<svg width="559" height="177" viewBox="0 0 559 177" fill="none" xmlns="http://www.w3.org/2000/svg">
<path d="M51.3621 155.196C50.6061 155.196 49.9388 155.061 49.3601 154.79C48.7815 154.519 48.3288 154.132 48.0021 153.628C47.6755 153.124 47.5121 152.517 47.5121 151.808V151.416H49.3321V151.808C49.3321 152.396 49.5141 152.839 49.8781 153.138C50.2421 153.427 50.7368 153.572 51.3621 153.572C51.9968 153.572 52.4681 153.446 52.7761 153.194C53.0935 152.942 53.2521 152.62 53.2521 152.228C53.2521 151.957 53.1775 151.738 53.0281 151.57C52.8788 151.402 52.6595 151.267 52.3701 151.164C52.0808 151.052 51.7261 150.949 51.3061 150.856L50.9841 150.786C50.3121 150.637 49.7335 150.45 49.2481 150.226C48.7721 149.993 48.4035 149.689 48.1421 149.316C47.8901 148.943 47.7641 148.457 47.7641 147.86C47.7641 147.263 47.9041 146.754 48.1841 146.334C48.4735 145.905 48.8748 145.578 49.3881 145.354C49.9108 145.121 50.5221 145.004 51.2221 145.004C51.9221 145.004 52.5428 145.125 53.0841 145.368C53.6348 145.601 54.0641 145.956 54.3721 146.432C54.6895 146.899 54.8481 147.487 54.8481 148.196V148.616H53.0281V148.196C53.0281 147.823 52.9535 147.524 52.8041 147.3C52.6641 147.067 52.4588 146.899 52.1881 146.796C51.9175 146.684 51.5955 146.628 51.2221 146.628C50.6621 146.628 50.2468 146.735 49.9761 146.95C49.7148 147.155 49.5841 147.44 49.5841 147.804C49.5841 148.047 49.6448 148.252 49.7661 148.42C49.8968 148.588 50.0881 148.728 50.3401 148.84C50.5921 148.952 50.9141 149.05 51.3061 149.134L51.6281 149.204C52.3281 149.353 52.9348 149.545 53.4481 149.778C53.9615 150.011 54.3581 150.319 54.6381 150.702C54.9275 151.085 55.0721 151.575 55.0721 152.172C55.0721 152.769 54.9181 153.297 54.6101 153.754C54.3115 154.202 53.8821 154.557 53.3221 154.818C52.7715 155.07 52.1181 155.196 51.3621 155.196ZM50.5081 156.624V143.576H52.1881V156.624H50.5081ZM60.2304 155.196C59.4277 155.196 58.737 155.051 58.1584 154.762C57.589 154.463 57.1504 154.043 56.8424 153.502C56.5437 152.951 56.3944 152.303 56.3944 151.556V145.2H58.2424V151.612C58.2424 152.209 58.4104 152.681 58.7464 153.026C59.0917 153.371 59.5864 153.544 60.2304 153.544C60.8744 153.544 61.3644 153.371 61.7004 153.026C62.0457 152.681 62.2184 152.209 62.2184 151.612V145.2H64.0664V151.556C64.0664 152.303 63.9124 152.951 63.6044 153.502C63.3057 154.043 62.867 154.463 62.2884 154.762C61.719 155.051 61.033 155.196 60.2304 155.196ZM69.2586 155.196C68.5026 155.196 67.8353 155.061 67.2566 154.79C66.678 154.519 66.2253 154.132 65.8986 153.628C65.572 153.124 65.4086 152.517 65.4086 151.808V151.416H67.2286V151.808C67.2286 152.396 67.4106 152.839 67.7746 153.138C68.1386 153.427 68.6333 153.572 69.2586 153.572C69.8933 153.572 70.3646 153.446 70.6726 153.194C70.99 152.942 71.1486 152.62 71.1486 152.228C71.1486 151.957 71.0693 151.738 70.9106 151.57C70.7613 151.402 70.5373 151.267 70.2386 151.164C69.9493 151.052 69.5946 150.949 69.1746 150.856L68.8526 150.786C68.1806 150.637 67.602 150.45 67.1166 150.226C66.6406 149.993 66.272 149.689 66.0106 149.316C65.7586 148.943 65.6326 148.457 65.6326 147.86C65.6326 147.263 65.7726 146.754 66.0526 146.334C66.342 145.905 66.7433 145.578 67.2566 145.354C67.7793 145.121 68.3906 145.004 69.0906 145.004C69.7906 145.004 70.4113 145.125 70.9526 145.368C71.5033 145.601 71.9326 145.956 72.2406 146.432C72.558 146.899 72.7166 147.487 72.7166 148.196V148.616H70.8966V148.196C70.8966 147.823 70.822 147.524 70.6726 147.3C70.5326 147.067 70.3273 146.899 70.0566 146.796C69.786 146.684 69.464 146.628 69.0906 146.628C68.5306 146.628 68.1153 146.735 67.8446 146.95C67.5833 147.155 67.4526 147.44 67.4526 147.804C67.4526 148.047 67.5133 148.252 67.6346 148.42C67.7653 148.588 67.9566 148.728 68.2086 148.84C68.4606 148.952 68.7826 149.05 69.1746 149.134L69.4966 149.204C70.1966 149.353 70.8033 149.545 71.3166 149.778C71.8393 150.011 72.2453 150.319 72.5346 150.702C72.824 151.085 72.9686 151.575 72.9686 152.172C72.9686 152.769 72.8146 153.297 72.5066 153.754C72.208 154.202 71.7786 154.557 71.2186 154.818C70.668 155.07 70.0146 155.196 69.2586 155.196ZM74.0122 155V153.376H75.3002V146.824H74.0122V145.2H78.0442C79.3602 145.2 80.3588 145.536 81.0402 146.208C81.7308 146.871 82.0762 147.86 82.0762 149.176V151.024C82.0762 152.34 81.7308 153.334 81.0402 154.006C80.3588 154.669 79.3602 155 78.0442 155H74.0122ZM77.1482 153.32H78.0722C78.8188 153.32 79.3648 153.124 79.7102 152.732C80.0555 152.34 80.2282 151.789 80.2282 151.08V149.12C80.2282 148.401 80.0555 147.851 79.7102 147.468C79.3648 147.076 78.8188 146.88 78.0722 146.88H77.1482V153.32ZM87.3404 155.196C86.127 155.196 85.1657 154.86 84.4564 154.188C83.747 153.507 83.3924 152.536 83.3924 151.276V148.924C83.3924 147.664 83.747 146.698 84.4564 146.026C85.1657 145.345 86.127 145.004 87.3404 145.004C88.5444 145.004 89.473 145.335 90.1264 145.998C90.7891 146.651 91.1204 147.552 91.1204 148.7V148.784H89.3004V148.644C89.3004 148.065 89.137 147.589 88.8104 147.216C88.493 146.843 88.003 146.656 87.3404 146.656C86.687 146.656 86.1737 146.857 85.8004 147.258C85.427 147.659 85.2404 148.205 85.2404 148.896V151.304C85.2404 151.985 85.427 152.531 85.8004 152.942C86.1737 153.343 86.687 153.544 87.3404 153.544C88.003 153.544 88.493 153.357 88.8104 152.984C89.137 152.601 89.3004 152.125 89.3004 151.556V151.304H91.1204V151.5C91.1204 152.648 90.7891 153.553 90.1264 154.216C89.473 154.869 88.5444 155.196 87.3404 155.196ZM99.5408 155.196C98.8502 155.196 98.2295 155.056 97.6788 154.776C97.1282 154.496 96.6942 154.09 96.3768 153.558C96.0595 153.026 95.9008 152.387 95.9008 151.64V151.416C95.9008 150.669 96.0595 150.03 96.3768 149.498C96.6942 148.966 97.1282 148.56 97.6788 148.28C98.2295 148 98.8502 147.86 99.5408 147.86C100.232 147.86 100.852 148 101.403 148.28C101.954 148.56 102.388 148.966 102.705 149.498C103.022 150.03 103.181 150.669 103.181 151.416V151.64C103.181 152.387 103.022 153.026 102.705 153.558C102.388 154.09 101.954 154.496 101.403 154.776C100.852 155.056 100.232 155.196 99.5408 155.196ZM99.5408 153.628C100.082 153.628 100.53 153.455 100.885 153.11C101.24 152.755 101.417 152.251 101.417 151.598V151.458C101.417 150.805 101.24 150.305 100.885 149.96C100.54 149.605 100.092 149.428 99.5408 149.428C98.9995 149.428 98.5515 149.605 98.1968 149.96C97.8422 150.305 97.6648 150.805 97.6648 151.458V151.598C97.6648 152.251 97.8422 152.755 98.1968 153.11C98.5515 153.455 98.9995 153.628 99.5408 153.628ZM104.809 155V148.056H106.545V148.84H106.797C106.9 148.56 107.068 148.355 107.301 148.224C107.544 148.093 107.824 148.028 108.141 148.028H108.981V149.596H108.113C107.665 149.596 107.296 149.717 107.007 149.96C106.718 150.193 106.573 150.557 106.573 151.052V155H104.809ZM117.261 155.196C116.505 155.196 115.837 155.061 115.259 154.79C114.68 154.519 114.227 154.132 113.901 153.628C113.574 153.124 113.411 152.517 113.411 151.808V151.416H115.231V151.808C115.231 152.396 115.413 152.839 115.777 153.138C116.141 153.427 116.635 153.572 117.261 153.572C117.895 153.572 118.367 153.446 118.675 153.194C118.992 152.942 119.151 152.62 119.151 152.228C119.151 151.957 119.076 151.738 118.927 151.57C118.777 151.402 118.558 151.267 118.269 151.164C117.979 151.052 117.625 150.949 117.205 150.856L116.883 150.786C116.211 150.637 115.632 150.45 115.147 150.226C114.671 149.993 114.302 149.689 114.041 149.316C113.789 148.943 113.663 148.457 113.663 147.86C113.663 147.263 113.803 146.754 114.083 146.334C114.372 145.905 114.773 145.578 115.287 145.354C115.809 145.121 116.421 145.004 117.121 145.004C117.821 145.004 118.441 145.125 118.983 145.368C119.533 145.601 119.963 145.956 120.271 146.432C120.588 146.899 120.747 147.487 120.747 148.196V148.616H118.927V148.196C118.927 147.823 118.852 147.524 118.703 147.3C118.563 147.067 118.357 146.899 118.087 146.796C117.816 146.684 117.494 146.628 117.121 146.628C116.561 146.628 116.145 146.735 115.875 146.95C115.613 147.155 115.483 147.44 115.483 147.804C115.483 148.047 115.543 148.252 115.665 148.42C115.795 148.588 115.987 148.728 116.239 148.84C116.491 148.952 116.813 149.05 117.205 149.134L117.527 149.204C118.227 149.353 118.833 149.545 119.347 149.778C119.86 150.011 120.257 150.319 120.537 150.702C120.826 151.085 120.971 151.575 120.971 152.172C120.971 152.769 120.817 153.297 120.509 153.754C120.21 154.202 119.781 154.557 119.221 154.818C118.67 155.07 118.017 155.196 117.261 155.196ZM116.407 156.624V143.576H118.087V156.624H116.407ZM125.751 155.196C124.995 155.196 124.327 155.061 123.749 154.79C123.17 154.519 122.717 154.132 122.391 153.628C122.064 153.124 121.901 152.517 121.901 151.808V151.416H123.721V151.808C123.721 152.396 123.903 152.839 124.267 153.138C124.631 153.427 125.125 153.572 125.751 153.572C126.385 153.572 126.857 153.446 127.165 153.194C127.482 152.942 127.641 152.62 127.641 152.228C127.641 151.957 127.561 151.738 127.403 151.57C127.253 151.402 127.029 151.267 126.731 151.164C126.441 151.052 126.087 150.949 125.667 150.856L125.345 150.786C124.673 150.637 124.094 150.45 123.609 150.226C123.133 149.993 122.764 149.689 122.503 149.316C122.251 148.943 122.125 148.457 122.125 147.86C122.125 147.263 122.265 146.754 122.545 146.334C122.834 145.905 123.235 145.578 123.749 145.354C124.271 145.121 124.883 145.004 125.583 145.004C126.283 145.004 126.903 145.125 127.445 145.368C127.995 145.601 128.425 145.956 128.733 146.432C129.05 146.899 129.209 147.487 129.209 148.196V148.616H127.389V148.196C127.389 147.823 127.314 147.524 127.165 147.3C127.025 147.067 126.819 146.899 126.549 146.796C126.278 146.684 125.956 146.628 125.583 146.628C125.023 146.628 124.607 146.735 124.337 146.95C124.075 147.155 123.945 147.44 123.945 147.804C123.945 148.047 124.005 148.252 124.127 148.42C124.257 148.588 124.449 148.728 124.701 148.84C124.953 148.952 125.275 149.05 125.667 149.134L125.989 149.204C126.689 149.353 127.295 149.545 127.809 149.778C128.331 150.011 128.737 150.319 129.027 150.702C129.316 151.085 129.461 151.575 129.461 152.172C129.461 152.769 129.307 153.297 128.999 153.754C128.7 154.202 128.271 154.557 127.711 154.818C127.16 155.07 126.507 155.196 125.751 155.196ZM134.647 155.196C133.415 155.196 132.435 154.86 131.707 154.188C130.979 153.507 130.615 152.536 130.615 151.276V148.924C130.615 147.664 130.979 146.698 131.707 146.026C132.435 145.345 133.415 145.004 134.647 145.004C135.879 145.004 136.859 145.345 137.587 146.026C138.315 146.698 138.679 147.664 138.679 148.924V151.276C138.679 152.536 138.315 153.507 137.587 154.188C136.859 154.86 135.879 155.196 134.647 155.196ZM134.647 153.544C135.338 153.544 135.874 153.343 136.257 152.942C136.64 152.541 136.831 152.004 136.831 151.332V148.868C136.831 148.196 136.64 147.659 136.257 147.258C135.874 146.857 135.338 146.656 134.647 146.656C133.966 146.656 133.429 146.857 133.037 147.258C132.654 147.659 132.463 148.196 132.463 148.868V151.332C132.463 152.004 132.654 152.541 133.037 152.942C133.429 153.343 133.966 153.544 134.647 153.544ZM140.3 155V145.2H142.148V153.32H146.628V155H140.3ZM54.8376 173.196C53.9323 173.196 53.1903 173 52.6116 172.608C52.033 172.216 51.683 171.656 51.5616 170.928L53.1856 170.508C53.251 170.835 53.3583 171.091 53.5076 171.278C53.6663 171.465 53.8576 171.6 54.0816 171.684C54.315 171.759 54.567 171.796 54.8376 171.796C55.2483 171.796 55.5516 171.726 55.7476 171.586C55.9436 171.437 56.0416 171.255 56.0416 171.04C56.0416 170.825 55.9483 170.662 55.7616 170.55C55.575 170.429 55.2763 170.331 54.8656 170.256L54.4736 170.186C53.9883 170.093 53.545 169.967 53.1436 169.808C52.7423 169.64 52.4203 169.411 52.1776 169.122C51.935 168.833 51.8136 168.459 51.8136 168.002C51.8136 167.311 52.0656 166.784 52.5696 166.42C53.0736 166.047 53.7363 165.86 54.5576 165.86C55.3323 165.86 55.9763 166.033 56.4896 166.378C57.003 166.723 57.339 167.176 57.4976 167.736L55.8596 168.24C55.785 167.885 55.631 167.633 55.3976 167.484C55.1736 167.335 54.8936 167.26 54.5576 167.26C54.2216 167.26 53.965 167.321 53.7876 167.442C53.6103 167.554 53.5216 167.713 53.5216 167.918C53.5216 168.142 53.615 168.31 53.8016 168.422C53.9883 168.525 54.2403 168.604 54.5576 168.66L54.9496 168.73C55.4723 168.823 55.9436 168.949 56.3636 169.108C56.793 169.257 57.129 169.477 57.3716 169.766C57.6236 170.046 57.7496 170.429 57.7496 170.914C57.7496 171.642 57.4836 172.207 56.9516 172.608C56.429 173 55.7243 173.196 54.8376 173.196ZM59.8554 173L58.8754 166.056H60.6254L61.2414 171.81H61.4934L62.3894 166.056H65.2174L66.1134 171.81H66.3654L66.9814 166.056H68.7314L67.7514 173H64.8254L63.9294 167.246H63.6774L62.7814 173H59.8554ZM72.4299 173.196C71.9353 173.196 71.4919 173.112 71.0999 172.944C70.7079 172.767 70.3953 172.515 70.1619 172.188C69.9379 171.852 69.8259 171.446 69.8259 170.97C69.8259 170.494 69.9379 170.097 70.1619 169.78C70.3953 169.453 70.7126 169.211 71.1139 169.052C71.5246 168.884 71.9913 168.8 72.5139 168.8H74.4179V168.408C74.4179 168.081 74.3153 167.815 74.1099 167.61C73.9046 167.395 73.5779 167.288 73.1299 167.288C72.6913 167.288 72.3646 167.391 72.1499 167.596C71.9353 167.792 71.7953 168.049 71.7299 168.366L70.1059 167.82C70.2179 167.465 70.3953 167.143 70.6379 166.854C70.8899 166.555 71.2213 166.317 71.6319 166.14C72.0519 165.953 72.5606 165.86 73.1579 165.86C74.0726 165.86 74.7959 166.089 75.3279 166.546C75.8599 167.003 76.1259 167.666 76.1259 168.534V171.124C76.1259 171.404 76.2566 171.544 76.5179 171.544H77.0779V173H75.9019C75.5566 173 75.2719 172.916 75.0479 172.748C74.8239 172.58 74.7119 172.356 74.7119 172.076V172.062H74.4459C74.4086 172.174 74.3246 172.323 74.1939 172.51C74.0633 172.687 73.8579 172.846 73.5779 172.986C73.2979 173.126 72.9153 173.196 72.4299 173.196ZM72.7379 171.768C73.2326 171.768 73.6339 171.633 73.9419 171.362C74.2593 171.082 74.4179 170.713 74.4179 170.256V170.116H72.6399C72.3133 170.116 72.0566 170.186 71.8699 170.326C71.6833 170.466 71.5899 170.662 71.5899 170.914C71.5899 171.166 71.6879 171.371 71.8839 171.53C72.0799 171.689 72.3646 171.768 72.7379 171.768ZM78.3677 175.8V166.056H80.1037V166.896H80.3557C80.5144 166.625 80.7617 166.387 81.0977 166.182C81.4337 165.967 81.9144 165.86 82.5397 165.86C83.0997 165.86 83.6177 166 84.0937 166.28C84.5697 166.551 84.9524 166.952 85.2417 167.484C85.531 168.016 85.6757 168.66 85.6757 169.416V169.64C85.6757 170.396 85.531 171.04 85.2417 171.572C84.9524 172.104 84.5697 172.51 84.0937 172.79C83.6177 173.061 83.0997 173.196 82.5397 173.196C82.1197 173.196 81.765 173.145 81.4757 173.042C81.1957 172.949 80.967 172.827 80.7897 172.678C80.6217 172.519 80.4864 172.361 80.3837 172.202H80.1317V175.8H78.3677ZM82.0077 171.656C82.5584 171.656 83.011 171.483 83.3657 171.138C83.7297 170.783 83.9117 170.27 83.9117 169.598V169.458C83.9117 168.786 83.7297 168.277 83.3657 167.932C83.0017 167.577 82.549 167.4 82.0077 167.4C81.4664 167.4 81.0137 167.577 80.6497 167.932C80.2857 168.277 80.1037 168.786 80.1037 169.458V169.598C80.1037 170.27 80.2857 170.783 80.6497 171.138C81.0137 171.483 81.4664 171.656 82.0077 171.656ZM93.5101 173C93.0528 173 92.6795 172.86 92.3901 172.58C92.1101 172.291 91.9701 171.908 91.9701 171.432V167.512H90.2341V166.056H91.9701V163.9H93.7341V166.056H95.6381V167.512H93.7341V171.124C93.7341 171.404 93.8648 171.544 94.1261 171.544H95.4701V173H93.5101ZM100.293 173.196C99.6021 173.196 98.9815 173.056 98.4308 172.776C97.8801 172.496 97.4461 172.09 97.1288 171.558C96.8115 171.026 96.6528 170.387 96.6528 169.64V169.416C96.6528 168.669 96.8115 168.03 97.1288 167.498C97.4461 166.966 97.8801 166.56 98.4308 166.28C98.9815 166 99.6021 165.86 100.293 165.86C100.983 165.86 101.604 166 102.155 166.28C102.705 166.56 103.139 166.966 103.457 167.498C103.774 168.03 103.933 168.669 103.933 169.416V169.64C103.933 170.387 103.774 171.026 103.457 171.558C103.139 172.09 102.705 172.496 102.155 172.776C101.604 173.056 100.983 173.196 100.293 173.196ZM100.293 171.628C100.834 171.628 101.282 171.455 101.637 171.11C101.991 170.755 102.169 170.251 102.169 169.598V169.458C102.169 168.805 101.991 168.305 101.637 167.96C101.291 167.605 100.843 167.428 100.293 167.428C99.7515 167.428 99.3035 167.605 98.9488 167.96C98.5941 168.305 98.4168 168.805 98.4168 169.458V169.598C98.4168 170.251 98.5941 170.755 98.9488 171.11C99.3035 171.455 99.7515 171.628 100.293 171.628ZM112.462 173.196C111.706 173.196 111.038 173.061 110.46 172.79C109.881 172.519 109.428 172.132 109.102 171.628C108.775 171.124 108.612 170.517 108.612 169.808V169.416H110.432V169.808C110.432 170.396 110.614 170.839 110.978 171.138C111.342 171.427 111.836 171.572 112.462 171.572C113.096 171.572 113.568 171.446 113.876 171.194C114.193 170.942 114.352 170.62 114.352 170.228C114.352 169.957 114.277 169.738 114.128 169.57C113.978 169.402 113.759 169.267 113.47 169.164C113.18 169.052 112.826 168.949 112.406 168.856L112.084 168.786C111.412 168.637 110.833 168.45 110.348 168.226C109.872 167.993 109.503 167.689 109.242 167.316C108.99 166.943 108.864 166.457 108.864 165.86C108.864 165.263 109.004 164.754 109.284 164.334C109.573 163.905 109.974 163.578 110.488 163.354C111.01 163.121 111.622 163.004 112.322 163.004C113.022 163.004 113.642 163.125 114.184 163.368C114.734 163.601 115.164 163.956 115.472 164.432C115.789 164.899 115.948 165.487 115.948 166.196V166.616H114.128V166.196C114.128 165.823 114.053 165.524 113.904 165.3C113.764 165.067 113.558 164.899 113.288 164.796C113.017 164.684 112.695 164.628 112.322 164.628C111.762 164.628 111.346 164.735 111.076 164.95C110.814 165.155 110.684 165.44 110.684 165.804C110.684 166.047 110.744 166.252 110.866 166.42C110.996 166.588 111.188 166.728 111.44 166.84C111.692 166.952 112.014 167.05 112.406 167.134L112.728 167.204C113.428 167.353 114.034 167.545 114.548 167.778C115.061 168.011 115.458 168.319 115.738 168.702C116.027 169.085 116.172 169.575 116.172 170.172C116.172 170.769 116.018 171.297 115.71 171.754C115.411 172.202 114.982 172.557 114.422 172.818C113.871 173.07 113.218 173.196 112.462 173.196ZM111.608 174.624V161.576H113.288V174.624H111.608ZM120.364 173.196C119.356 173.196 118.553 172.921 117.956 172.37C117.368 171.819 117.074 171.049 117.074 170.06V169.136H118.922V170.06C118.922 170.499 119.043 170.844 119.286 171.096C119.529 171.339 119.869 171.46 120.308 171.46C120.719 171.46 121.036 171.339 121.26 171.096C121.493 170.853 121.61 170.508 121.61 170.06V164.88H119.93V163.2H124.578V164.88H123.458V170.06C123.458 171.077 123.183 171.857 122.632 172.398C122.081 172.93 121.325 173.196 120.364 173.196ZM129.875 173.196C129.072 173.196 128.382 173.051 127.803 172.762C127.234 172.463 126.795 172.043 126.487 171.502C126.188 170.951 126.039 170.303 126.039 169.556V163.2H127.887V169.612C127.887 170.209 128.055 170.681 128.391 171.026C128.736 171.371 129.231 171.544 129.875 171.544C130.519 171.544 131.009 171.371 131.345 171.026C131.69 170.681 131.863 170.209 131.863 169.612V163.2H133.711V169.556C133.711 170.303 133.557 170.951 133.249 171.502C132.95 172.043 132.512 172.463 131.933 172.762C131.364 173.051 130.678 173.196 129.875 173.196ZM135.501 173V163.2H139.533C140.149 163.2 140.69 163.326 141.157 163.578C141.633 163.821 142.002 164.166 142.263 164.614C142.534 165.062 142.669 165.594 142.669 166.21V166.406C142.669 167.013 142.529 167.545 142.249 168.002C141.978 168.45 141.605 168.8 141.129 169.052C140.662 169.295 140.13 169.416 139.533 169.416H137.349V173H135.501ZM137.349 167.736H139.351C139.79 167.736 140.144 167.615 140.415 167.372C140.686 167.129 140.821 166.798 140.821 166.378V166.238C140.821 165.818 140.686 165.487 140.415 165.244C140.144 165.001 139.79 164.88 139.351 164.88H137.349V167.736Z" fill="#0E0F28"/>
<g filter="url(#filter0_d_856_3646)">
<path d="M24.9143 89.2329C24.0049 89.2433 23.0745 89.191 22.1442 89.076C12.2657 87.8625 4.54063 79.5464 4.02842 69.5984C3.41167 57.6524 12.9138 47.7671 24.7157 47.7671H24.768C27.674 47.7671 30.0783 45.4972 30.0783 42.5891V26.4589C30.0783 20.2558 32.5871 14.6384 36.643 10.5693C40.7094 6.51054 46.3228 4 52.5217 4L140.192 4C140.281 4 140.294 4.12418 140.205 4.13832C140.12 4.15201 140.118 4.29296 140.204 4.30688C150.863 6.0412 159 15.2915 159 26.4589V110.541C159 122.947 148.954 133 136.557 133L52.5322 133C40.1344 133 30.0887 122.947 30.0887 110.541L30.0887 94.4004C30.0887 91.5447 27.7681 89.2015 24.9143 89.2329Z" fill="#2050F2"/>
<path d="M140.191 2L140.407 2.01074C140.872 2.05658 141.268 2.25066 141.574 2.52832C152.667 4.83661 161 14.6654 161 26.459V110.541C161 124.051 150.06 135 136.557 135L52.5322 135C39.0286 135 28.0889 124.051 28.0889 110.541L28.0889 94.4004C28.0889 92.633 26.6524 91.2137 24.9365 91.2324L24.9355 91.2314C23.9356 91.2429 22.9168 91.1862 21.9004 91.0605V91.0615C11.0545 89.7293 2.59323 80.6156 2.03125 69.7012C1.35541 56.6074 11.7733 45.7676 24.7158 45.7676H24.7676C26.6359 45.7676 28.0781 44.3266 28.0781 42.5889V26.459C28.0781 19.7055 30.8121 13.5861 35.2266 9.15723L35.2305 9.15332C39.6563 4.73604 45.7717 2.00006 52.5215 2L140.191 2Z" stroke="#0E0F28" stroke-width="4"/>
</g>
<g clip-path="url(#clip0_856_3646)">
<path d="M101.22 114.539C98.4658 104.395 86.5051 97.8026 76.3936 99.9737C75.1346 97.5263 77.1412 96.8947 79.1477 96.4211C87.9215 94.3289 101.377 102.421 103.423 111.421C103.895 113.513 103.581 114.382 101.259 114.539H101.22Z" fill="#E4EAF2"/>
<path d="M107.043 111.224C105.508 105.066 101.495 100.526 96.2625 97.2106C90.2428 93.4211 83.7116 91.6053 76.5903 93.3421C78.3215 88.6842 84.6953 89.6711 88.551 90.579C94.4133 91.9606 99.9608 95.1579 103.935 99.6974C106.256 102.342 110.151 108.105 107.043 111.224Z" fill="#E4EAF2"/>
<path d="M98.3476 115.803C97.364 115.605 96.1444 116.316 95.2394 115.921C94.8067 115.724 93.5476 113.671 93.0755 113.119C89.2591 108.816 84.2231 106.487 78.4788 106.171C77.928 105.974 76.8657 103.408 77.0231 103.171C82.4919 101.355 89.0624 103.921 93.2722 107.553C95.6722 109.605 98.0722 112.605 98.3476 115.882V115.803Z" fill="#E4EAF2"/>
<path d="M111.567 103.092C110.348 101.513 109.325 99.7765 108.026 98.1976C102.715 91.6844 95.2787 87.4212 86.9377 86.0791L81.1147 85.4081C86.2688 82.5265 92.8 84.5002 97.7574 86.9081C102.715 89.316 107.829 93.2634 110.229 98.1186C110.977 99.6186 111.725 101.434 111.567 103.132V103.092Z" fill="#E4EAF2"/>
<path d="M112 93.3419C106.177 86.9866 98.8197 82.3287 90.2427 80.7498C93.6263 79.4077 97.7574 80.0393 101.062 81.3024C106.216 83.3156 110.623 87.8551 112 93.3024V93.3419Z" fill="#E4EAF2"/>
<path d="M92.1311 116C87.2917 115.132 82.7278 112.803 79.895 108.737C82.2557 108.619 84.7737 109.684 86.7803 110.869C88.7868 112.053 91.2655 113.908 92.0917 116.04L92.1311 116Z" fill="#E4EAF2"/>
</g>
<path d="M60.6115 39.28C59.1715 39.28 58.0248 38.8867 57.1715 38.1C56.3315 37.3133 55.9115 36.2133 55.9115 34.8V33.48H58.5515V34.8C58.5515 35.4267 58.7248 35.92 59.0715 36.28C59.4182 36.6267 59.9048 36.8 60.5315 36.8C61.1182 36.8 61.5715 36.6267 61.8915 36.28C62.2248 35.9333 62.3915 35.44 62.3915 34.8V27.4H59.9915V25H66.6315V27.4H65.0315V34.8C65.0315 36.2533 64.6382 37.3667 63.8515 38.14C63.0648 38.9 61.9848 39.28 60.6115 39.28ZM74.1985 39.28C73.0518 39.28 72.0652 39.0733 71.2385 38.66C70.4252 38.2333 69.7985 37.6333 69.3585 36.86C68.9318 36.0733 68.7185 35.1467 68.7185 34.08V25H71.3585V34.16C71.3585 35.0133 71.5985 35.6867 72.0785 36.18C72.5718 36.6733 73.2785 36.92 74.1985 36.92C75.1185 36.92 75.8185 36.6733 76.2985 36.18C76.7918 35.6867 77.0385 35.0133 77.0385 34.16V25H79.6785V34.08C79.6785 35.1467 79.4585 36.0733 79.0185 36.86C78.5918 37.6333 77.9652 38.2333 77.1385 38.66C76.3252 39.0733 75.3452 39.28 74.1985 39.28ZM82.236 39V25H87.996C88.876 25 89.6493 25.18 90.316 25.54C90.996 25.8867 91.5227 26.38 91.896 27.02C92.2827 27.66 92.476 28.42 92.476 29.3V29.58C92.476 30.4467 92.276 31.2067 91.876 31.86C91.4893 32.5 90.956 33 90.276 33.36C89.6093 33.7067 88.8493 33.88 87.996 33.88H84.876V39H82.236ZM84.876 31.48H87.736C88.3627 31.48 88.8693 31.3067 89.256 30.96C89.6427 30.6133 89.836 30.14 89.836 29.54V29.34C89.836 28.74 89.6427 28.2667 89.256 27.92C88.8693 27.5733 88.3627 27.4 87.736 27.4H84.876V31.48ZM94.3063 39V25H96.9463V39H94.3063ZM102.82 39V27.4H98.7398V25H109.54V27.4H105.46V39H102.82ZM111.338 39V25H120.338V27.4H113.978V30.74H119.778V33.14H113.978V36.6H120.458V39H111.338ZM122.412 39V25H128.492C129.372 25 130.138 25.1533 130.792 25.46C131.445 25.7667 131.952 26.2 132.312 26.76C132.672 27.32 132.852 27.98 132.852 28.74V28.98C132.852 29.82 132.652 30.5 132.252 31.02C131.852 31.54 131.358 31.92 130.772 32.16V32.52C131.305 32.5467 131.718 32.7333 132.012 33.08C132.305 33.4133 132.452 33.86 132.452 34.42V39H129.812V34.8C129.812 34.48 129.725 34.22 129.552 34.02C129.392 33.82 129.118 33.72 128.732 33.72H125.052V39H122.412ZM125.052 31.32H128.212C128.838 31.32 129.325 31.1533 129.672 30.82C130.032 30.4733 130.212 30.02 130.212 29.46V29.26C130.212 28.7 130.038 28.2533 129.692 27.92C129.345 27.5733 128.852 27.4 128.212 27.4H125.052V31.32ZM73.4437 65.28C72.3637 65.28 71.4103 65.0867 70.5837 64.7C69.757 64.3133 69.1103 63.76 68.6437 63.04C68.177 62.32 67.9437 61.4533 67.9437 60.44V59.88H70.5437V60.44C70.5437 61.28 70.8037 61.9133 71.3237 62.34C71.8437 62.7533 72.5503 62.96 73.4437 62.96C74.3503 62.96 75.0237 62.78 75.4637 62.42C75.917 62.06 76.1437 61.6 76.1437 61.04C76.1437 60.6533 76.0303 60.34 75.8037 60.1C75.5903 59.86 75.2703 59.6667 74.8437 59.52C74.4303 59.36 73.9237 59.2133 73.3237 59.08L72.8637 58.98C71.9037 58.7667 71.077 58.5 70.3837 58.18C69.7037 57.8467 69.177 57.4133 68.8037 56.88C68.4437 56.3467 68.2637 55.6533 68.2637 54.8C68.2637 53.9467 68.4637 53.22 68.8637 52.62C69.277 52.0067 69.8503 51.54 70.5837 51.22C71.3303 50.8867 72.2037 50.72 73.2037 50.72C74.2037 50.72 75.0903 50.8933 75.8637 51.24C76.6503 51.5733 77.2637 52.08 77.7037 52.76C78.157 53.4267 78.3837 54.2667 78.3837 55.28V55.88H75.7837V55.28C75.7837 54.7467 75.677 54.32 75.4637 54C75.2637 53.6667 74.9703 53.4267 74.5837 53.28C74.197 53.12 73.737 53.04 73.2037 53.04C72.4037 53.04 71.8103 53.1933 71.4237 53.5C71.0503 53.7933 70.8637 54.2 70.8637 54.72C70.8637 55.0667 70.9503 55.36 71.1237 55.6C71.3103 55.84 71.5837 56.04 71.9437 56.2C72.3037 56.36 72.7637 56.5 73.3237 56.62L73.7837 56.72C74.7837 56.9333 75.6503 57.2067 76.3837 57.54C77.1303 57.8733 77.7103 58.3133 78.1237 58.86C78.537 59.4067 78.7437 60.1067 78.7437 60.96C78.7437 61.8133 78.5237 62.5667 78.0837 63.22C77.657 63.86 77.0437 64.3667 76.2437 64.74C75.457 65.1 74.5237 65.28 73.4437 65.28ZM81.8326 65L79.9926 51H82.6126L83.9726 63.16H84.3326L86.0926 51H90.6526L92.4126 63.16H92.7726L94.1326 51H96.7526L94.9126 65H90.3526L88.5526 52.56H88.1926L86.3926 65H81.8326ZM97.3502 65L101.03 51H105.63L109.31 65H106.59L105.83 61.92H100.83L100.07 65H97.3502ZM101.45 59.48H105.21L103.51 52.66H103.15L101.45 59.48ZM110.986 65V51H116.746C117.626 51 118.399 51.18 119.066 51.54C119.746 51.8867 120.273 52.38 120.646 53.02C121.033 53.66 121.226 54.42 121.226 55.3V55.58C121.226 56.4467 121.026 57.2067 120.626 57.86C120.239 58.5 119.706 59 119.026 59.36C118.359 59.7067 117.599 59.88 116.746 59.88H113.626V65H110.986ZM113.626 57.48H116.486C117.113 57.48 117.619 57.3067 118.006 56.96C118.393 56.6133 118.586 56.14 118.586 55.54V55.34C118.586 54.74 118.393 54.2667 118.006 53.92C117.619 53.5733 117.113 53.4 116.486 53.4H113.626V57.48Z" fill="white"/>
<g filter="url(#filter1_d_856_3646)">
<path d="M156.914 89.2329C156.005 89.2433 155.075 89.191 154.144 89.076C144.266 87.8625 136.541 79.5464 136.028 69.5984C135.412 57.6524 144.914 47.7671 156.716 47.7671H156.768C159.674 47.7671 162.078 45.4972 162.078 42.5891V26.4589C162.078 20.2558 164.587 14.6384 168.643 10.5693C172.709 6.51054 178.323 4 184.522 4L272.192 4C272.281 4 272.294 4.12418 272.205 4.13832C272.12 4.15201 272.118 4.29296 272.204 4.30688C282.863 6.0412 291 15.2915 291 26.4589V110.541C291 122.947 280.954 133 268.557 133L184.532 133C172.134 133 162.089 122.947 162.089 110.541V94.4004C162.089 91.5447 159.768 89.2015 156.914 89.2329Z" fill="#2050F2"/>
<path d="M272.191 2L272.407 2.01074C272.872 2.05658 273.268 2.25066 273.574 2.52832C284.667 4.83661 293 14.6654 293 26.459V110.541C293 124.051 282.06 135 268.557 135L184.532 135C171.029 135 160.089 124.051 160.089 110.541V94.4004C160.089 92.633 158.652 91.2137 156.937 91.2324L156.936 91.2314C155.936 91.2429 154.917 91.1862 153.9 91.0605V91.0615C143.054 89.7293 134.593 80.6156 134.031 69.7012C133.355 56.6074 143.773 45.7676 156.716 45.7676H156.768C158.636 45.7676 160.078 44.3266 160.078 42.5889V26.459C160.078 19.7055 162.812 13.5861 167.227 9.15723L167.23 9.15332C171.656 4.73604 177.772 2.00006 184.521 2L272.191 2Z" stroke="#0E0F28" stroke-width="4"/>
</g>
<g clip-path="url(#clip1_856_3646)">
<path d="M226 116C216.082 116 208 107.918 208 98C208 88.082 216.082 80 226 80C235.918 80 244 88.082 244 98C244 107.918 235.918 116 226 116ZM226 81.8C217.072 81.8 209.8 89.072 209.8 98C209.8 106.928 217.072 114.2 226 114.2C234.928 114.2 242.2 106.928 242.2 98C242.2 89.072 234.928 81.8 226 81.8Z" fill="white"/>
<path d="M232.858 103.796C232.858 104.48 232.606 105.074 232.192 105.524C232.192 105.524 232.192 105.524 232.192 105.542C232.192 105.578 232.21 105.596 232.246 105.596C233.416 105.308 234.37 104.3 234.37 103.004V96.1999C234.37 94.1839 233.254 92.3299 231.418 91.3219L224.056 87.2539L222.598 88.0819L229.924 92.1139C231.742 93.1219 232.876 94.9759 232.876 96.9919V103.796H232.858Z" fill="white"/>
<path d="M230.788 104.948V98.1438C230.788 96.1278 229.672 94.2738 227.836 93.2658L220.51 89.2338L221.968 88.4058L229.33 92.4738C231.148 93.4818 232.282 95.3358 232.282 97.3518V104.156C232.282 105.47 231.328 106.46 230.158 106.748C230.122 106.748 230.104 106.73 230.104 106.694C230.104 106.694 230.104 106.694 230.104 106.676C230.518 106.226 230.77 105.632 230.77 104.948H230.788Z" fill="white"/>
<path fill-rule="evenodd" clip-rule="evenodd" d="M218.368 90.4579L219.844 89.6299L227.206 93.6979C229.024 94.7059 230.158 96.5599 230.158 98.5759V105.416C230.14 107.468 227.818 108.728 225.946 107.702L219.268 104.03L218.368 103.544V90.4939V90.4579ZM228.664 99.3679V103.31L223.714 100.574V93.3739L225.73 94.4899C227.548 95.4979 228.682 97.3519 228.682 99.3679H228.664ZM221.824 92.3659L222.58 92.7799V101.222L222.652 101.258L228.646 104.57V105.326L221.824 101.564V92.3659ZM220.618 91.6819V102.212H220.654L220.618 102.248L228.646 106.676C228.574 107.036 228.16 107.234 227.818 107.036L219.862 102.644V91.2499L220.618 91.6639V91.6819Z" fill="white"/>
</g>
<path d="M199.084 39V36.68H200.924V27.32H199.084V25H204.844C206.724 25 208.151 25.48 209.124 26.44C210.111 27.3867 210.604 28.8 210.604 30.68V33.32C210.604 35.2 210.111 36.62 209.124 37.58C208.151 38.5267 206.724 39 204.844 39H199.084ZM203.564 36.6H204.884C205.951 36.6 206.731 36.32 207.224 35.76C207.717 35.2 207.964 34.4133 207.964 33.4V30.6C207.964 29.5733 207.717 28.7867 207.224 28.24C206.731 27.68 205.951 27.4 204.884 27.4H203.564V36.6ZM212.804 39V25H218.884C219.764 25 220.531 25.1533 221.184 25.46C221.838 25.7667 222.344 26.2 222.704 26.76C223.064 27.32 223.244 27.98 223.244 28.74V28.98C223.244 29.82 223.044 30.5 222.644 31.02C222.244 31.54 221.751 31.92 221.164 32.16V32.52C221.698 32.5467 222.111 32.7333 222.404 33.08C222.698 33.4133 222.844 33.86 222.844 34.42V39H220.204V34.8C220.204 34.48 220.118 34.22 219.944 34.02C219.784 33.82 219.511 33.72 219.124 33.72H215.444V39H212.804ZM215.444 31.32H218.604C219.231 31.32 219.718 31.1533 220.064 30.82C220.424 30.4733 220.604 30.02 220.604 29.46V29.26C220.604 28.7 220.431 28.2533 220.084 27.92C219.738 27.5733 219.244 27.4 218.604 27.4H215.444V31.32ZM225.441 39V25H228.081V39H225.441ZM230.715 39V25H239.515V27.4H233.355V30.78H239.035V33.18H233.355V39H230.715ZM244.638 39V27.4H240.558V25H251.358V27.4H247.278V39H244.638ZM198.828 65V53.4H194.748V51H205.548V53.4H201.468V65H198.828ZM207.345 65V51H213.425C214.305 51 215.072 51.1533 215.725 51.46C216.379 51.7667 216.885 52.2 217.245 52.76C217.605 53.32 217.785 53.98 217.785 54.74V54.98C217.785 55.82 217.585 56.5 217.185 57.02C216.785 57.54 216.292 57.92 215.705 58.16V58.52C216.239 58.5467 216.652 58.7333 216.945 59.08C217.239 59.4133 217.385 59.86 217.385 60.42V65H214.745V60.8C214.745 60.48 214.659 60.22 214.485 60.02C214.325 59.82 214.052 59.72 213.665 59.72H209.985V65H207.345ZM209.985 57.32H213.145C213.772 57.32 214.259 57.1533 214.605 56.82C214.965 56.4733 215.145 56.02 215.145 55.46V55.26C215.145 54.7 214.972 54.2533 214.625 53.92C214.279 53.5733 213.785 53.4 213.145 53.4H209.985V57.32ZM219.022 65L222.702 51H227.302L230.982 65H228.262L227.502 61.92H222.502L221.742 65H219.022ZM223.122 59.48H226.882L225.182 52.66H224.822L223.122 59.48ZM232.258 65V62.68H234.098V53.32H232.258V51H238.018C239.898 51 241.325 51.48 242.298 52.44C243.285 53.3867 243.778 54.8 243.778 56.68V59.32C243.778 61.2 243.285 62.62 242.298 63.58C241.325 64.5267 239.898 65 238.018 65H232.258ZM236.738 62.6H238.058C239.125 62.6 239.905 62.32 240.398 61.76C240.891 61.2 241.138 60.4133 241.138 59.4V56.6C241.138 55.5733 240.891 54.7867 240.398 54.24C239.905 53.68 239.125 53.4 238.058 53.4H236.738V62.6ZM245.978 65V51H254.978V53.4H248.618V56.74H254.418V59.14H248.618V62.6H255.098V65H245.978Z" fill="white"/>
<path d="M191.463 155.196C190.707 155.196 190.039 155.061 189.461 154.79C188.882 154.519 188.429 154.132 188.103 153.628C187.776 153.124 187.613 152.517 187.613 151.808V151.416H189.433V151.808C189.433 152.396 189.615 152.839 189.979 153.138C190.343 153.427 190.837 153.572 191.463 153.572C192.097 153.572 192.569 153.446 192.877 153.194C193.194 152.942 193.353 152.62 193.353 152.228C193.353 151.957 193.273 151.738 193.115 151.57C192.965 151.402 192.741 151.267 192.443 151.164C192.153 151.052 191.799 150.949 191.379 150.856L191.057 150.786C190.385 150.637 189.806 150.45 189.321 150.226C188.845 149.993 188.476 149.689 188.215 149.316C187.963 148.943 187.837 148.457 187.837 147.86C187.837 147.263 187.977 146.754 188.257 146.334C188.546 145.905 188.947 145.578 189.461 145.354C189.983 145.121 190.595 145.004 191.295 145.004C191.995 145.004 192.615 145.125 193.157 145.368C193.707 145.601 194.137 145.956 194.445 146.432C194.762 146.899 194.921 147.487 194.921 148.196V148.616H193.101V148.196C193.101 147.823 193.026 147.524 192.877 147.3C192.737 147.067 192.531 146.899 192.261 146.796C191.99 146.684 191.668 146.628 191.295 146.628C190.735 146.628 190.319 146.735 190.049 146.95C189.787 147.155 189.657 147.44 189.657 147.804C189.657 148.047 189.717 148.252 189.839 148.42C189.969 148.588 190.161 148.728 190.413 148.84C190.665 148.952 190.987 149.05 191.379 149.134L191.701 149.204C192.401 149.353 193.007 149.545 193.521 149.778C194.043 150.011 194.449 150.319 194.739 150.702C195.028 151.085 195.173 151.575 195.173 152.172C195.173 152.769 195.019 153.297 194.711 153.754C194.412 154.202 193.983 154.557 193.423 154.818C192.872 155.07 192.219 155.196 191.463 155.196ZM196.551 155V145.2H198.399V149.246H202.039V145.2H203.887V155H202.039V150.926H198.399V155H196.551ZM209.546 155.196C208.314 155.196 207.334 154.86 206.606 154.188C205.878 153.507 205.514 152.536 205.514 151.276V148.924C205.514 147.664 205.878 146.698 206.606 146.026C207.334 145.345 208.314 145.004 209.546 145.004C210.778 145.004 211.758 145.345 212.486 146.026C213.214 146.698 213.578 147.664 213.578 148.924V151.276C213.578 152.536 213.214 153.507 212.486 154.188C211.758 154.86 210.778 155.196 209.546 155.196ZM209.546 153.544C210.237 153.544 210.774 153.343 211.156 152.942C211.539 152.541 211.73 152.004 211.73 151.332V148.868C211.73 148.196 211.539 147.659 211.156 147.258C210.774 146.857 210.237 146.656 209.546 146.656C208.865 146.656 208.328 146.857 207.936 147.258C207.554 147.659 207.362 148.196 207.362 148.868V151.332C207.362 152.004 207.554 152.541 207.936 152.942C208.328 153.343 208.865 153.544 209.546 153.544ZM215.199 155V145.2H219.455C220.071 145.2 220.608 145.307 221.065 145.522C221.523 145.737 221.877 146.04 222.129 146.432C222.381 146.824 222.507 147.286 222.507 147.818V147.986C222.507 148.574 222.367 149.05 222.087 149.414C221.807 149.778 221.462 150.044 221.051 150.212V150.464C221.425 150.483 221.714 150.613 221.919 150.856C222.125 151.089 222.227 151.402 222.227 151.794V155H220.379V152.06C220.379 151.836 220.319 151.654 220.197 151.514C220.085 151.374 219.894 151.304 219.623 151.304H217.047V155H215.199ZM217.047 149.624H219.259C219.698 149.624 220.039 149.507 220.281 149.274C220.533 149.031 220.659 148.714 220.659 148.322V148.182C220.659 147.79 220.538 147.477 220.295 147.244C220.053 147.001 219.707 146.88 219.259 146.88H217.047V149.624ZM226.149 155V146.88H223.293V145.2H230.853V146.88H227.997V155H226.149ZM229.842 157.8L233.958 145.2H235.722L231.606 157.8H229.842ZM236.418 155V145.2H238.266V153.32H242.746V155H236.418ZM247.486 155.196C246.254 155.196 245.274 154.86 244.546 154.188C243.818 153.507 243.454 152.536 243.454 151.276V148.924C243.454 147.664 243.818 146.698 244.546 146.026C245.274 145.345 246.254 145.004 247.486 145.004C248.718 145.004 249.698 145.345 250.426 146.026C251.154 146.698 251.518 147.664 251.518 148.924V151.276C251.518 152.536 251.154 153.507 250.426 154.188C249.698 154.86 248.718 155.196 247.486 155.196ZM247.486 153.544C248.177 153.544 248.713 153.343 249.096 152.942C249.479 152.541 249.67 152.004 249.67 151.332V148.868C249.67 148.196 249.479 147.659 249.096 147.258C248.713 146.857 248.177 146.656 247.486 146.656C246.805 146.656 246.268 146.857 245.876 147.258C245.493 147.659 245.302 148.196 245.302 148.868V151.332C245.302 152.004 245.493 152.541 245.876 152.942C246.268 153.343 246.805 153.544 247.486 153.544ZM253.139 155V145.2H256.653L258.599 153.74H258.851V145.2H260.671V155H257.157L255.211 146.46H254.959V155H253.139ZM265.906 155.196C265.234 155.196 264.622 155.047 264.072 154.748C263.53 154.44 263.096 153.997 262.77 153.418C262.452 152.83 262.294 152.116 262.294 151.276V148.924C262.294 147.664 262.648 146.698 263.358 146.026C264.067 145.345 265.028 145.004 266.242 145.004C267.446 145.004 268.374 145.326 269.028 145.97C269.69 146.605 270.022 147.468 270.022 148.56V148.616H268.202V148.504C268.202 148.159 268.127 147.846 267.978 147.566C267.838 147.286 267.623 147.067 267.334 146.908C267.044 146.74 266.68 146.656 266.242 146.656C265.588 146.656 265.075 146.857 264.702 147.258C264.328 147.659 264.142 148.205 264.142 148.896V151.304C264.142 151.985 264.328 152.536 264.702 152.956C265.075 153.367 265.598 153.572 266.27 153.572C266.942 153.572 267.432 153.395 267.74 153.04C268.048 152.685 268.202 152.237 268.202 151.696V151.556H265.878V149.988H270.022V155H268.314V154.062H268.062C267.996 154.221 267.889 154.389 267.74 154.566C267.6 154.743 267.385 154.893 267.096 155.014C266.806 155.135 266.41 155.196 265.906 155.196ZM186.437 173.196C185.812 173.196 185.331 173.089 184.995 172.874C184.659 172.659 184.412 172.421 184.253 172.16H184.001V173H182.265V163.2H184.029V166.854H184.281C184.384 166.686 184.519 166.527 184.687 166.378C184.864 166.229 185.093 166.107 185.373 166.014C185.662 165.911 186.017 165.86 186.437 165.86C186.997 165.86 187.515 166 187.991 166.28C188.467 166.551 188.85 166.952 189.139 167.484C189.428 168.016 189.573 168.66 189.573 169.416V169.64C189.573 170.396 189.428 171.04 189.139 171.572C188.85 172.104 188.467 172.51 187.991 172.79C187.515 173.061 186.997 173.196 186.437 173.196ZM185.905 171.656C186.446 171.656 186.899 171.483 187.263 171.138C187.627 170.783 187.809 170.27 187.809 169.598V169.458C187.809 168.786 187.627 168.277 187.263 167.932C186.908 167.577 186.456 167.4 185.905 167.4C185.364 167.4 184.911 167.577 184.547 167.932C184.183 168.277 184.001 168.786 184.001 169.458V169.598C184.001 170.27 184.183 170.783 184.547 171.138C184.911 171.483 185.364 171.656 185.905 171.656ZM191.949 175.8V174.26H195.729C195.99 174.26 196.121 174.12 196.121 173.84V172.09H195.869C195.794 172.249 195.678 172.407 195.519 172.566C195.36 172.725 195.146 172.855 194.875 172.958C194.604 173.061 194.259 173.112 193.839 173.112C193.298 173.112 192.822 172.991 192.411 172.748C192.01 172.496 191.697 172.151 191.473 171.712C191.249 171.273 191.137 170.769 191.137 170.2V166.056H192.901V170.06C192.901 170.583 193.027 170.975 193.279 171.236C193.54 171.497 193.909 171.628 194.385 171.628C194.926 171.628 195.346 171.451 195.645 171.096C195.944 170.732 196.093 170.228 196.093 169.584V166.056H197.857V174.232C197.857 174.708 197.717 175.086 197.437 175.366C197.157 175.655 196.784 175.8 196.317 175.8H191.949ZM203.375 175.8V166.056H205.111V166.896H205.363C205.521 166.625 205.769 166.387 206.105 166.182C206.441 165.967 206.921 165.86 207.547 165.86C208.107 165.86 208.625 166 209.101 166.28C209.577 166.551 209.959 166.952 210.249 167.484C210.538 168.016 210.683 168.66 210.683 169.416V169.64C210.683 170.396 210.538 171.04 210.249 171.572C209.959 172.104 209.577 172.51 209.101 172.79C208.625 173.061 208.107 173.196 207.547 173.196C207.127 173.196 206.772 173.145 206.483 173.042C206.203 172.949 205.974 172.827 205.797 172.678C205.629 172.519 205.493 172.361 205.391 172.202H205.139V175.8H203.375ZM207.015 171.656C207.565 171.656 208.018 171.483 208.373 171.138C208.737 170.783 208.919 170.27 208.919 169.598V169.458C208.919 168.786 208.737 168.277 208.373 167.932C208.009 167.577 207.556 167.4 207.015 167.4C206.473 167.4 206.021 167.577 205.657 167.932C205.293 168.277 205.111 168.786 205.111 169.458V169.598C205.111 170.27 205.293 170.783 205.657 171.138C206.021 171.483 206.473 171.656 207.015 171.656ZM212.302 173V166.056H214.038V166.84H214.29C214.393 166.56 214.561 166.355 214.794 166.224C215.037 166.093 215.317 166.028 215.634 166.028H216.474V167.596H215.606C215.158 167.596 214.79 167.717 214.5 167.96C214.211 168.193 214.066 168.557 214.066 169.052V173H212.302ZM220.771 173.196C220.08 173.196 219.469 173.051 218.937 172.762C218.414 172.463 218.004 172.048 217.705 171.516C217.416 170.975 217.271 170.34 217.271 169.612V169.444C217.271 168.716 217.416 168.086 217.705 167.554C217.994 167.013 218.4 166.597 218.923 166.308C219.446 166.009 220.052 165.86 220.743 165.86C221.424 165.86 222.017 166.014 222.521 166.322C223.025 166.621 223.417 167.041 223.697 167.582C223.977 168.114 224.117 168.735 224.117 169.444V170.046H219.063C219.082 170.522 219.259 170.909 219.595 171.208C219.931 171.507 220.342 171.656 220.827 171.656C221.322 171.656 221.686 171.549 221.919 171.334C222.152 171.119 222.33 170.881 222.451 170.62L223.893 171.376C223.762 171.619 223.571 171.885 223.319 172.174C223.076 172.454 222.75 172.697 222.339 172.902C221.928 173.098 221.406 173.196 220.771 173.196ZM219.077 168.73H222.325C222.288 168.329 222.124 168.007 221.835 167.764C221.555 167.521 221.186 167.4 220.729 167.4C220.253 167.4 219.875 167.521 219.595 167.764C219.315 168.007 219.142 168.329 219.077 168.73ZM226.603 173V167.512H224.839V166.056H226.603V164.768C226.603 164.292 226.743 163.914 227.023 163.634C227.312 163.345 227.685 163.2 228.143 163.2H229.963V164.656H228.759C228.497 164.656 228.367 164.796 228.367 165.076V166.056H230.187V167.512H228.367V173H226.603ZM234.484 173.196C233.793 173.196 233.182 173.051 232.65 172.762C232.127 172.463 231.717 172.048 231.418 171.516C231.129 170.975 230.984 170.34 230.984 169.612V169.444C230.984 168.716 231.129 168.086 231.418 167.554C231.707 167.013 232.113 166.597 232.636 166.308C233.159 166.009 233.765 165.86 234.456 165.86C235.137 165.86 235.73 166.014 236.234 166.322C236.738 166.621 237.13 167.041 237.41 167.582C237.69 168.114 237.83 168.735 237.83 169.444V170.046H232.776C232.795 170.522 232.972 170.909 233.308 171.208C233.644 171.507 234.055 171.656 234.54 171.656C235.035 171.656 235.399 171.549 235.632 171.334C235.865 171.119 236.043 170.881 236.164 170.62L237.606 171.376C237.475 171.619 237.284 171.885 237.032 172.174C236.789 172.454 236.463 172.697 236.052 172.902C235.641 173.098 235.119 173.196 234.484 173.196ZM232.79 168.73H236.038C236.001 168.329 235.837 168.007 235.548 167.764C235.268 167.521 234.899 167.4 234.442 167.4C233.966 167.4 233.588 167.521 233.308 167.764C233.028 168.007 232.855 168.329 232.79 168.73ZM239.4 173V166.056H241.136V166.84H241.388C241.491 166.56 241.659 166.355 241.892 166.224C242.135 166.093 242.415 166.028 242.732 166.028H243.572V167.596H242.704C242.256 167.596 241.887 167.717 241.598 167.96C241.309 168.193 241.164 168.557 241.164 169.052V173H239.4ZM247.869 173.196C247.178 173.196 246.567 173.051 246.035 172.762C245.512 172.463 245.101 172.048 244.803 171.516C244.513 170.975 244.369 170.34 244.369 169.612V169.444C244.369 168.716 244.513 168.086 244.803 167.554C245.092 167.013 245.498 166.597 246.021 166.308C246.543 166.009 247.15 165.86 247.841 165.86C248.522 165.86 249.115 166.014 249.619 166.322C250.123 166.621 250.515 167.041 250.795 167.582C251.075 168.114 251.215 168.735 251.215 169.444V170.046H246.161C246.179 170.522 246.357 170.909 246.693 171.208C247.029 171.507 247.439 171.656 247.925 171.656C248.419 171.656 248.783 171.549 249.017 171.334C249.25 171.119 249.427 170.881 249.549 170.62L250.991 171.376C250.86 171.619 250.669 171.885 250.417 172.174C250.174 172.454 249.847 172.697 249.437 172.902C249.026 173.098 248.503 173.196 247.869 173.196ZM246.175 168.73H249.423C249.385 168.329 249.222 168.007 248.933 167.764C248.653 167.521 248.284 167.4 247.827 167.4C247.351 167.4 246.973 167.521 246.693 167.764C246.413 168.007 246.24 168.329 246.175 168.73ZM252.785 173V166.056H254.521V166.966H254.773C254.885 166.723 255.095 166.495 255.403 166.28C255.711 166.056 256.177 165.944 256.803 165.944C257.344 165.944 257.815 166.07 258.217 166.322C258.627 166.565 258.945 166.905 259.169 167.344C259.393 167.773 259.505 168.277 259.505 168.856V173H257.741V168.996C257.741 168.473 257.61 168.081 257.349 167.82C257.097 167.559 256.733 167.428 256.257 167.428C255.715 167.428 255.295 167.61 254.997 167.974C254.698 168.329 254.549 168.828 254.549 169.472V173H252.785ZM264.674 173.196C264.002 173.196 263.39 173.056 262.84 172.776C262.298 172.496 261.869 172.09 261.552 171.558C261.234 171.026 261.076 170.382 261.076 169.626V169.43C261.076 168.674 261.234 168.03 261.552 167.498C261.869 166.966 262.298 166.56 262.84 166.28C263.39 166 264.002 165.86 264.674 165.86C265.336 165.86 265.906 165.977 266.382 166.21C266.858 166.443 267.24 166.765 267.53 167.176C267.828 167.577 268.024 168.035 268.118 168.548L266.41 168.912C266.372 168.632 266.288 168.38 266.158 168.156C266.027 167.932 265.84 167.755 265.598 167.624C265.364 167.493 265.07 167.428 264.716 167.428C264.361 167.428 264.039 167.507 263.75 167.666C263.47 167.815 263.246 168.044 263.078 168.352C262.919 168.651 262.84 169.019 262.84 169.458V169.598C262.84 170.037 262.919 170.41 263.078 170.718C263.246 171.017 263.47 171.245 263.75 171.404C264.039 171.553 264.361 171.628 264.716 171.628C265.248 171.628 265.649 171.493 265.92 171.222C266.2 170.942 266.377 170.578 266.452 170.13L268.16 170.536C268.038 171.031 267.828 171.483 267.53 171.894C267.24 172.295 266.858 172.613 266.382 172.846C265.906 173.079 265.336 173.196 264.674 173.196ZM272.779 173.196C272.088 173.196 271.477 173.051 270.945 172.762C270.422 172.463 270.011 172.048 269.713 171.516C269.423 170.975 269.279 170.34 269.279 169.612V169.444C269.279 168.716 269.423 168.086 269.713 167.554C270.002 167.013 270.408 166.597 270.931 166.308C271.453 166.009 272.06 165.86 272.751 165.86C273.432 165.86 274.025 166.014 274.529 166.322C275.033 166.621 275.425 167.041 275.705 167.582C275.985 168.114 276.125 168.735 276.125 169.444V170.046H271.071C271.089 170.522 271.267 170.909 271.603 171.208C271.939 171.507 272.349 171.656 272.835 171.656C273.329 171.656 273.693 171.549 273.927 171.334C274.16 171.119 274.337 170.881 274.459 170.62L275.901 171.376C275.77 171.619 275.579 171.885 275.327 172.174C275.084 172.454 274.757 172.697 274.347 172.902C273.936 173.098 273.413 173.196 272.779 173.196ZM271.085 168.73H274.333C274.295 168.329 274.132 168.007 273.843 167.764C273.563 167.521 273.194 167.4 272.737 167.4C272.261 167.4 271.883 167.521 271.603 167.764C271.323 168.007 271.15 168.329 271.085 168.73Z" fill="#0E0F28"/>
<path d="M437.274 155V145.2H441.53C442.146 145.2 442.682 145.307 443.14 145.522C443.597 145.737 443.952 146.04 444.204 146.432C444.456 146.824 444.582 147.286 444.582 147.818V147.986C444.582 148.574 444.442 149.05 444.162 149.414C443.882 149.778 443.536 150.044 443.126 150.212V150.464C443.499 150.483 443.788 150.613 443.994 150.856C444.199 151.089 444.302 151.402 444.302 151.794V155H442.454V152.06C442.454 151.836 442.393 151.654 442.272 151.514C442.16 151.374 441.968 151.304 441.698 151.304H439.122V155H437.274ZM439.122 149.624H441.334C441.772 149.624 442.113 149.507 442.356 149.274C442.608 149.031 442.734 148.714 442.734 148.322V148.182C442.734 147.79 442.612 147.477 442.37 147.244C442.127 147.001 441.782 146.88 441.334 146.88H439.122V149.624ZM446.119 155V145.2H452.419V146.88H447.967V149.218H452.027V150.898H447.967V153.32H452.503V155H446.119ZM453.199 155L455.775 145.2H458.995L461.571 155H459.667L459.135 152.844H455.635L455.103 155H453.199ZM456.069 151.136H458.701L457.511 146.362H457.259L456.069 151.136ZM462.744 155V145.2H464.592V153.32H469.072V155H462.744ZM475.307 155V146.88H472.451V145.2H480.011V146.88H477.155V155H475.307ZM481.27 155V145.2H483.118V155H481.27ZM484.961 155V145.2H488.391L490.085 153.74H490.337L492.031 145.2H495.461V155H493.669V146.558H493.417L491.737 155H488.685L487.005 146.558H486.753V155H484.961ZM497.307 155V145.2H503.607V146.88H499.155V149.218H503.215V150.898H499.155V153.32H503.691V155H497.307ZM507.777 155L510.353 145.2H513.573L516.149 155H514.245L513.713 152.844H510.213L509.681 155H507.777ZM510.647 151.136H513.279L512.089 146.362H511.837L510.647 151.136ZM517.322 155V145.2H519.17V153.32H523.65V155H517.322ZM524.91 155V145.2H531.21V146.88H526.758V149.218H530.818V150.898H526.758V153.32H531.294V155H524.91ZM532.662 155V145.2H536.918C537.534 145.2 538.071 145.307 538.528 145.522C538.986 145.737 539.34 146.04 539.592 146.432C539.844 146.824 539.97 147.286 539.97 147.818V147.986C539.97 148.574 539.83 149.05 539.55 149.414C539.27 149.778 538.925 150.044 538.514 150.212V150.464C538.888 150.483 539.177 150.613 539.382 150.856C539.588 151.089 539.69 151.402 539.69 151.794V155H537.842V152.06C537.842 151.836 537.782 151.654 537.66 151.514C537.548 151.374 537.357 151.304 537.086 151.304H534.51V155H532.662ZM534.51 149.624H536.722C537.161 149.624 537.502 149.507 537.744 149.274C537.996 149.031 538.122 148.714 538.122 148.322V148.182C538.122 147.79 538.001 147.477 537.758 147.244C537.516 147.001 537.17 146.88 536.722 146.88H534.51V149.624ZM543.612 155V146.88H540.756V145.2H548.316V146.88H545.46V155H543.612Z" fill="#0E0F28"/>
<g filter="url(#filter2_d_856_3646)">
<path d="M288.914 89.2329C288.005 89.2433 287.075 89.191 286.144 89.076C276.266 87.8625 268.541 79.5464 268.028 69.5984C267.412 57.6524 276.914 47.7671 288.716 47.7671H288.768C291.674 47.7671 294.078 45.4972 294.078 42.5891V26.4589C294.078 20.2558 296.587 14.6384 300.643 10.5693C304.709 6.51054 310.323 4 316.522 4L404.192 4C404.281 4 404.294 4.12418 404.205 4.13832C404.12 4.15201 404.118 4.29296 404.204 4.30688C414.863 6.0412 423 15.2915 423 26.4589V110.541C423 122.947 412.954 133 400.557 133L316.532 133C304.134 133 294.089 122.947 294.089 110.541V94.4004C294.089 91.5447 291.768 89.2015 288.914 89.2329Z" fill="#2050F2"/>
<path d="M404.191 2L404.407 2.01074C404.872 2.05658 405.268 2.25066 405.574 2.52832C416.667 4.83661 425 14.6654 425 26.459V110.541C425 124.051 414.06 135 400.557 135L316.532 135C303.029 135 292.089 124.051 292.089 110.541V94.4004C292.089 92.633 290.652 91.2137 288.937 91.2324L288.936 91.2314C287.936 91.2429 286.917 91.1862 285.9 91.0605V91.0615C275.054 89.7293 266.593 80.6156 266.031 69.7012C265.355 56.6074 275.773 45.7676 288.716 45.7676H288.768C290.636 45.7676 292.078 44.3266 292.078 42.5889V26.459C292.078 19.7055 294.812 13.5861 299.227 9.15723L299.23 9.15332C303.656 4.73604 309.772 2.00006 316.521 2L404.191 2Z" stroke="#0E0F28" stroke-width="4"/>
</g>
<path d="M339.219 50.28C338.139 50.28 337.186 50.0867 336.359 49.7C335.532 49.3133 334.886 48.76 334.419 48.04C333.952 47.32 333.719 46.4533 333.719 45.44V44.88H336.319V45.44C336.319 46.28 336.579 46.9133 337.099 47.34C337.619 47.7533 338.326 47.96 339.219 47.96C340.126 47.96 340.799 47.78 341.239 47.42C341.692 47.06 341.919 46.6 341.919 46.04C341.919 45.6533 341.806 45.34 341.579 45.1C341.366 44.86 341.046 44.6667 340.619 44.52C340.206 44.36 339.699 44.2133 339.099 44.08L338.639 43.98C337.679 43.7667 336.852 43.5 336.159 43.18C335.479 42.8467 334.952 42.4133 334.579 41.88C334.219 41.3467 334.039 40.6533 334.039 39.8C334.039 38.9467 334.239 38.22 334.639 37.62C335.052 37.0067 335.626 36.54 336.359 36.22C337.106 35.8867 337.979 35.72 338.979 35.72C339.979 35.72 340.866 35.8933 341.639 36.24C342.426 36.5733 343.039 37.08 343.479 37.76C343.932 38.4267 344.159 39.2667 344.159 40.28V40.88H341.559V40.28C341.559 39.7467 341.452 39.32 341.239 39C341.039 38.6667 340.746 38.4267 340.359 38.28C339.972 38.12 339.512 38.04 338.979 38.04C338.179 38.04 337.586 38.1933 337.199 38.5C336.826 38.7933 336.639 39.2 336.639 39.72C336.639 40.0667 336.726 40.36 336.899 40.6C337.086 40.84 337.359 41.04 337.719 41.2C338.079 41.36 338.539 41.5 339.099 41.62L339.559 41.72C340.559 41.9333 341.426 42.2067 342.159 42.54C342.906 42.8733 343.486 43.3133 343.899 43.86C344.312 44.4067 344.519 45.1067 344.519 45.96C344.519 46.8133 344.299 47.5667 343.859 48.22C343.432 48.86 342.819 49.3667 342.019 49.74C341.232 50.1 340.299 50.28 339.219 50.28ZM346.488 50V36H355.488V38.4H349.128V41.74H354.928V44.14H349.128V47.6H355.608V50H346.488ZM357.562 50V36H362.582L365.362 48.2H365.722V36H368.322V50H363.302L360.522 37.8H360.162V50H357.562ZM370.561 50V47.68H372.401V38.32H370.561V36H376.321C378.201 36 379.627 36.48 380.601 37.44C381.587 38.3867 382.081 39.8 382.081 41.68V44.32C382.081 46.2 381.587 47.62 380.601 48.58C379.627 49.5267 378.201 50 376.321 50H370.561ZM375.041 47.6H376.361C377.427 47.6 378.207 47.32 378.701 46.76C379.194 46.2 379.441 45.4133 379.441 44.4V41.6C379.441 40.5733 379.194 39.7867 378.701 39.24C378.207 38.68 377.427 38.4 376.361 38.4H375.041V47.6ZM350.206 76V64.4H346.126V62H356.926V64.4H352.846V76H350.206ZM363.598 76.28C361.838 76.28 360.438 75.8 359.398 74.84C358.358 73.8667 357.838 72.48 357.838 70.68V67.32C357.838 65.52 358.358 64.14 359.398 63.18C360.438 62.2067 361.838 61.72 363.598 61.72C365.358 61.72 366.758 62.2067 367.798 63.18C368.838 64.14 369.358 65.52 369.358 67.32V70.68C369.358 72.48 368.838 73.8667 367.798 74.84C366.758 75.8 365.358 76.28 363.598 76.28ZM363.598 73.92C364.585 73.92 365.351 73.6333 365.898 73.06C366.445 72.4867 366.718 71.72 366.718 70.76V67.24C366.718 66.28 366.445 65.5133 365.898 64.94C365.351 64.3667 364.585 64.08 363.598 64.08C362.625 64.08 361.858 64.3667 361.298 64.94C360.751 65.5133 360.478 66.28 360.478 67.24V70.76C360.478 71.72 360.751 72.4867 361.298 73.06C361.858 73.6333 362.625 73.92 363.598 73.92ZM329.486 102V88H338.486V90.4H332.126V93.74H337.926V96.14H332.126V99.6H338.606V102H329.486ZM343.16 102L339.6 88H342.32L345.28 100.3H345.56L348.52 88H351.24L347.68 102H343.16ZM352.924 102V88H361.924V90.4H355.564V93.74H361.364V96.14H355.564V99.6H362.044V102H352.924ZM363.998 102V88H369.018L371.798 100.2H372.158V88H374.758V102H369.738L366.958 89.8H366.598V102H363.998ZM380.636 102V90.4H376.556V88H387.356V90.4H383.276V102H380.636Z" fill="white"/>
<g filter="url(#filter3_d_856_3646)">
<path d="M420.914 89.2329C420.005 89.2433 419.075 89.191 418.144 89.076C408.266 87.8625 400.541 79.5464 400.028 69.5984C399.412 57.6524 408.914 47.7671 420.716 47.7671H420.768C423.674 47.7671 426.078 45.4972 426.078 42.5891V26.4589C426.078 20.2558 428.587 14.6384 432.643 10.5693C436.709 6.51054 442.323 4 448.522 4L536.192 4C536.281 4 536.294 4.12418 536.205 4.13832C536.12 4.15201 536.118 4.29296 536.204 4.30688C546.863 6.0412 555 15.2915 555 26.4589V110.541C555 122.947 544.954 133 532.557 133L448.532 133C436.134 133 426.089 122.947 426.089 110.541V94.4004C426.089 91.5447 423.768 89.2015 420.914 89.2329Z" fill="#2050F2"/>
<path d="M536.191 2L536.407 2.01074C536.872 2.05658 537.268 2.25066 537.574 2.52832C548.667 4.83661 557 14.6654 557 26.459V110.541C557 124.051 546.06 135 532.557 135L448.532 135C435.029 135 424.089 124.051 424.089 110.541V94.4004C424.089 92.633 422.652 91.2137 420.937 91.2324L420.936 91.2314C419.936 91.2429 418.917 91.1862 417.9 91.0605V91.0615C407.054 89.7293 398.593 80.6156 398.031 69.7012C397.355 56.6074 407.773 45.7676 420.716 45.7676H420.768C422.636 45.7676 424.078 44.3266 424.078 42.5889V26.459C424.078 19.7055 426.812 13.5861 431.227 9.15723L431.23 9.15332C435.656 4.73604 441.772 2.00006 448.521 2L536.191 2Z" stroke="#0E0F28" stroke-width="4"/>
</g>
<path d="M444.591 39V27.4H440.511V25H451.311V27.4H447.231V39H444.591ZM453.109 39V25H462.109V27.4H455.749V30.74H461.549V33.14H455.749V36.6H462.229V39H453.109ZM464.183 39V25H466.823V36.6H473.223V39H464.183ZM475.023 39V25H484.023V27.4H477.663V30.74H483.463V33.14H477.663V36.6H484.143V39H475.023ZM490.937 39.28C489.977 39.28 489.104 39.0667 488.317 38.64C487.544 38.2 486.924 37.5667 486.457 36.74C486.004 35.9 485.777 34.88 485.777 33.68V30.32C485.777 28.52 486.284 27.14 487.297 26.18C488.311 25.2067 489.684 24.72 491.417 24.72C493.137 24.72 494.464 25.18 495.397 26.1C496.344 27.0067 496.817 28.24 496.817 29.8V29.88H494.217V29.72C494.217 29.2267 494.111 28.78 493.897 28.38C493.697 27.98 493.391 27.6667 492.977 27.44C492.564 27.2 492.044 27.08 491.417 27.08C490.484 27.08 489.751 27.3667 489.217 27.94C488.684 28.5133 488.417 29.2933 488.417 30.28V33.72C488.417 34.6933 488.684 35.48 489.217 36.08C489.751 36.6667 490.497 36.96 491.457 36.96C492.417 36.96 493.117 36.7067 493.557 36.2C493.997 35.6933 494.217 35.0533 494.217 34.28V34.08H490.897V31.84H496.817V39H494.377V37.66H494.017C493.924 37.8867 493.771 38.1267 493.557 38.38C493.357 38.6333 493.051 38.8467 492.637 39.02C492.224 39.1933 491.657 39.28 490.937 39.28ZM499.34 39V25H505.42C506.3 25 507.066 25.1533 507.72 25.46C508.373 25.7667 508.88 26.2 509.24 26.76C509.6 27.32 509.78 27.98 509.78 28.74V28.98C509.78 29.82 509.58 30.5 509.18 31.02C508.78 31.54 508.286 31.92 507.7 32.16V32.52C508.233 32.5467 508.646 32.7333 508.94 33.08C509.233 33.4133 509.38 33.86 509.38 34.42V39H506.74V34.8C506.74 34.48 506.653 34.22 506.48 34.02C506.32 33.82 506.046 33.72 505.66 33.72H501.98V39H499.34ZM501.98 31.32H505.14C505.766 31.32 506.253 31.1533 506.6 30.82C506.96 30.4733 507.14 30.02 507.14 29.46V29.26C507.14 28.7 506.966 28.2533 506.62 27.92C506.273 27.5733 505.78 27.4 505.14 27.4H501.98V31.32ZM511.016 39L514.696 25H519.296L522.976 39H520.256L519.496 35.92H514.496L513.736 39H511.016ZM515.116 33.48H518.876L517.176 26.66H516.816L515.116 33.48ZM524.652 39V25H529.552L531.972 37.2H532.332L534.752 25H539.652V39H537.092V26.94H536.732L534.332 39H529.972L527.572 26.94H527.212V39H524.652ZM461.485 65L465.165 51H469.765L473.445 65H470.725L469.965 61.92H464.965L464.205 65H461.485ZM465.585 59.48H469.345L467.645 52.66H467.285L465.585 59.48ZM475.121 65V51H477.761V62.6H484.161V65H475.121ZM485.961 65V51H494.961V53.4H488.601V56.74H494.401V59.14H488.601V62.6H495.081V65H485.961ZM497.035 65V51H503.115C503.995 51 504.762 51.1533 505.415 51.46C506.068 51.7667 506.575 52.2 506.935 52.76C507.295 53.32 507.475 53.98 507.475 54.74V54.98C507.475 55.82 507.275 56.5 506.875 57.02C506.475 57.54 505.982 57.92 505.395 58.16V58.52C505.928 58.5467 506.342 58.7333 506.635 59.08C506.928 59.4133 507.075 59.86 507.075 60.42V65H504.435V60.8C504.435 60.48 504.348 60.22 504.175 60.02C504.015 59.82 503.742 59.72 503.355 59.72H499.675V65H497.035ZM499.675 57.32H502.835C503.462 57.32 503.948 57.1533 504.295 56.82C504.655 56.4733 504.835 56.02 504.835 55.46V55.26C504.835 54.7 504.662 54.2533 504.315 53.92C503.968 53.5733 503.475 53.4 502.835 53.4H499.675V57.32ZM512.677 65V53.4H508.597V51H519.397V53.4H515.317V65H512.677Z" fill="white"/>
<g clip-path="url(#clip2_856_3646)">
<path d="M488.258 107.794C487.427 106.845 487.637 105.789 488.3 104.853C490.379 101.912 495.169 98.2341 497.808 95.3412C498.243 94.8653 498.609 94.3023 499.049 93.8282C498.748 93.766 498.581 93.9827 498.355 94.1105C493.733 96.7353 488.565 101.399 483.983 103.562C479.837 105.519 476.582 103.1 472.669 101.956C471.904 101.535 471.79 100.591 472.359 99.9478L505.225 86.2291C507.222 85.4211 508.268 86.8543 507.941 88.7633L504.695 113.404C504.225 115.46 502.124 116.57 500.17 115.702L488.258 107.792V107.794Z" fill="#E4EAF2"/>
</g>
<defs>
<filter id="filter0_d_856_3646" x="0" y="0" width="163" height="141" filterUnits="userSpaceOnUse" color-interpolation-filters="sRGB">
<feFlood flood-opacity="0" result="BackgroundImageFix"/>
<feColorMatrix in="SourceAlpha" type="matrix" values="0 0 0 0 0 0 0 0 0 0 0 0 0 0 0 0 0 0 127 0" result="hardAlpha"/>
<feOffset dy="4"/>
<feComposite in2="hardAlpha" operator="out"/>
<feColorMatrix type="matrix" values="0 0 0 0 0.054902 0 0 0 0 0.0588235 0 0 0 0 0.156863 0 0 0 1 0"/>
<feBlend mode="normal" in2="BackgroundImageFix" result="effect1_dropShadow_856_3646"/>
<feBlend mode="normal" in="SourceGraphic" in2="effect1_dropShadow_856_3646" result="shape"/>
</filter>
<filter id="filter1_d_856_3646" x="132" y="0" width="163" height="141" filterUnits="userSpaceOnUse" color-interpolation-filters="sRGB">
<feFlood flood-opacity="0" result="BackgroundImageFix"/>
<feColorMatrix in="SourceAlpha" type="matrix" values="0 0 0 0 0 0 0 0 0 0 0 0 0 0 0 0 0 0 127 0" result="hardAlpha"/>
<feOffset dy="4"/>
<feComposite in2="hardAlpha" operator="out"/>
<feColorMatrix type="matrix" values="0 0 0 0 0.054902 0 0 0 0 0.0588235 0 0 0 0 0.156863 0 0 0 1 0"/>
<feBlend mode="normal" in2="BackgroundImageFix" result="effect1_dropShadow_856_3646"/>
<feBlend mode="normal" in="SourceGraphic" in2="effect1_dropShadow_856_3646" result="shape"/>
</filter>
<filter id="filter2_d_856_3646" x="264" y="0" width="163" height="141" filterUnits="userSpaceOnUse" color-interpolation-filters="sRGB">
<feFlood flood-opacity="0" result="BackgroundImageFix"/>
<feColorMatrix in="SourceAlpha" type="matrix" values="0 0 0 0 0 0 0 0 0 0 0 0 0 0 0 0 0 0 127 0" result="hardAlpha"/>
<feOffset dy="4"/>
<feComposite in2="hardAlpha" operator="out"/>
<feColorMatrix type="matrix" values="0 0 0 0 0.054902 0 0 0 0 0.0588235 0 0 0 0 0.156863 0 0 0 1 0"/>
<feBlend mode="normal" in2="BackgroundImageFix" result="effect1_dropShadow_856_3646"/>
<feBlend mode="normal" in="SourceGraphic" in2="effect1_dropShadow_856_3646" result="shape"/>
</filter>
<filter id="filter3_d_856_3646" x="396" y="0" width="163" height="141" filterUnits="userSpaceOnUse" color-interpolation-filters="sRGB">
<feFlood flood-opacity="0" result="BackgroundImageFix"/>
<feColorMatrix in="SourceAlpha" type="matrix" values="0 0 0 0 0 0 0 0 0 0 0 0 0 0 0 0 0 0 127 0" result="hardAlpha"/>
<feOffset dy="4"/>
<feComposite in2="hardAlpha" operator="out"/>
<feColorMatrix type="matrix" values="0 0 0 0 0.054902 0 0 0 0 0.0588235 0 0 0 0 0.156863 0 0 0 1 0"/>
<feBlend mode="normal" in2="BackgroundImageFix" result="effect1_dropShadow_856_3646"/>
<feBlend mode="normal" in="SourceGraphic" in2="effect1_dropShadow_856_3646" result="shape"/>
</filter>
<clipPath id="clip0_856_3646">
<rect width="36" height="36" fill="white" transform="translate(76 80)"/>
</clipPath>
<clipPath id="clip1_856_3646">
<rect width="36" height="36" fill="white" transform="translate(208 80)"/>
</clipPath>
<clipPath id="clip2_856_3646">
<rect width="36" height="30" fill="white" transform="translate(472 86)"/>
</clipPath>
</defs>
</svg>
