<svg width="380" height="380" viewBox="0 0 380 380" fill="none" xmlns="http://www.w3.org/2000/svg">
<path d="M271.229 266.874C271.229 275.393 268.042 282.856 262.931 288.57C262.913 288.59 262.901 288.614 262.895 288.64L262.761 289.282C262.738 289.391 262.835 289.486 262.943 289.461C277.824 286.035 289.947 273.432 289.947 256.818V171.739C289.947 146.589 275.9 123.35 253.096 110.775L161.02 60L142.781 70.3203L234.378 120.831C257.182 133.406 271.229 156.646 271.229 181.796V266.874Z" fill="white"/>
<path d="M245.492 281.4V196.322C245.492 171.172 231.445 147.932 208.641 135.357L117.044 84.8463L135.283 74.526L227.359 125.301C250.163 137.876 264.21 161.115 264.21 186.265V271.344C264.21 287.958 252.086 300.561 237.206 303.987C237.098 304.012 237.001 303.917 237.023 303.808L237.158 303.166C237.163 303.14 237.176 303.116 237.194 303.096C242.305 297.382 245.492 289.919 245.492 281.4Z" fill="white"/>
<path fill-rule="evenodd" clip-rule="evenodd" d="M90.1365 100.066L108.614 89.6108L200.69 140.386C223.493 152.961 237.541 176.2 237.541 201.35V286.848L237.538 286.846C237.224 312.407 208.167 328.292 184.896 315.459L101.445 269.44L90.1365 263.364V100.066ZM218.823 211.672V261.063L156.819 226.871V136.838L181.972 150.708C204.775 163.283 218.823 186.522 218.823 211.672ZM133.422 123.935L142.781 129.096V234.608L143.763 235.135L218.823 276.526V286.081L133.543 239.054L133.422 239.122V123.935ZM118.213 115.548V247.238L118.653 247.478L118.213 247.727L218.708 303.144C217.868 307.564 212.588 310.086 208.294 307.718L108.854 252.882V110.387L118.213 115.548Z" fill="white"/>
</svg>
