<svg width="559" height="177" viewBox="0 0 559 177" fill="none" xmlns="http://www.w3.org/2000/svg">
<path d="M51.3621 155.196C50.6061 155.196 49.9388 155.061 49.3601 154.79C48.7815 154.519 48.3288 154.132 48.0021 153.628C47.6755 153.124 47.5121 152.517 47.5121 151.808V151.416H49.3321V151.808C49.3321 152.396 49.5141 152.839 49.8781 153.138C50.2421 153.427 50.7368 153.572 51.3621 153.572C51.9968 153.572 52.4681 153.446 52.7761 153.194C53.0935 152.942 53.2521 152.62 53.2521 152.228C53.2521 151.957 53.1775 151.738 53.0281 151.57C52.8788 151.402 52.6595 151.267 52.3701 151.164C52.0808 151.052 51.7261 150.949 51.3061 150.856L50.9841 150.786C50.3121 150.637 49.7335 150.45 49.2481 150.226C48.7721 149.993 48.4035 149.689 48.1421 149.316C47.8901 148.943 47.7641 148.457 47.7641 147.86C47.7641 147.263 47.9041 146.754 48.1841 146.334C48.4735 145.905 48.8748 145.578 49.3881 145.354C49.9108 145.121 50.5221 145.004 51.2221 145.004C51.9221 145.004 52.5428 145.125 53.0841 145.368C53.6348 145.601 54.0641 145.956 54.3721 146.432C54.6895 146.899 54.8481 147.487 54.8481 148.196V148.616H53.0281V148.196C53.0281 147.823 52.9535 147.524 52.8041 147.3C52.6641 147.067 52.4588 146.899 52.1881 146.796C51.9175 146.684 51.5955 146.628 51.2221 146.628C50.6621 146.628 50.2468 146.735 49.9761 146.95C49.7148 147.155 49.5841 147.44 49.5841 147.804C49.5841 148.047 49.6448 148.252 49.7661 148.42C49.8968 148.588 50.0881 148.728 50.3401 148.84C50.5921 148.952 50.9141 149.05 51.3061 149.134L51.6281 149.204C52.3281 149.353 52.9348 149.545 53.4481 149.778C53.9615 150.011 54.3581 150.319 54.6381 150.702C54.9275 151.085 55.0721 151.575 55.0721 152.172C55.0721 152.769 54.9181 153.297 54.6101 153.754C54.3115 154.202 53.8821 154.557 53.3221 154.818C52.7715 155.07 52.1181 155.196 51.3621 155.196ZM50.5081 156.624V143.576H52.1881V156.624H50.5081ZM60.2304 155.196C59.4277 155.196 58.737 155.051 58.1584 154.762C57.589 154.463 57.1504 154.043 56.8424 153.502C56.5437 152.951 56.3944 152.303 56.3944 151.556V145.2H58.2424V151.612C58.2424 152.209 58.4104 152.681 58.7464 153.026C59.0917 153.371 59.5864 153.544 60.2304 153.544C60.8744 153.544 61.3644 153.371 61.7004 153.026C62.0457 152.681 62.2184 152.209 62.2184 151.612V145.2H64.0664V151.556C64.0664 152.303 63.9124 152.951 63.6044 153.502C63.3057 154.043 62.867 154.463 62.2884 154.762C61.719 155.051 61.033 155.196 60.2304 155.196ZM69.2586 155.196C68.5026 155.196 67.8353 155.061 67.2566 154.79C66.678 154.519 66.2253 154.132 65.8986 153.628C65.572 153.124 65.4086 152.517 65.4086 151.808V151.416H67.2286V151.808C67.2286 152.396 67.4106 152.839 67.7746 153.138C68.1386 153.427 68.6333 153.572 69.2586 153.572C69.8933 153.572 70.3646 153.446 70.6726 153.194C70.99 152.942 71.1486 152.62 71.1486 152.228C71.1486 151.957 71.0693 151.738 70.9106 151.57C70.7613 151.402 70.5373 151.267 70.2386 151.164C69.9493 151.052 69.5946 150.949 69.1746 150.856L68.8526 150.786C68.1806 150.637 67.602 150.45 67.1166 150.226C66.6406 149.993 66.272 149.689 66.0106 149.316C65.7586 148.943 65.6326 148.457 65.6326 147.86C65.6326 147.263 65.7726 146.754 66.0526 146.334C66.342 145.905 66.7433 145.578 67.2566 145.354C67.7793 145.121 68.3906 145.004 69.0906 145.004C69.7906 145.004 70.4113 145.125 70.9526 145.368C71.5033 145.601 71.9326 145.956 72.2406 146.432C72.558 146.899 72.7166 147.487 72.7166 148.196V148.616H70.8966V148.196C70.8966 147.823 70.822 147.524 70.6726 147.3C70.5326 147.067 70.3273 146.899 70.0566 146.796C69.786 146.684 69.464 146.628 69.0906 146.628C68.5306 146.628 68.1153 146.735 67.8446 146.95C67.5833 147.155 67.4526 147.44 67.4526 147.804C67.4526 148.047 67.5133 148.252 67.6346 148.42C67.7653 148.588 67.9566 148.728 68.2086 148.84C68.4606 148.952 68.7826 149.05 69.1746 149.134L69.4966 149.204C70.1966 149.353 70.8033 149.545 71.3166 149.778C71.8393 150.011 72.2453 150.319 72.5346 150.702C72.824 151.085 72.9686 151.575 72.9686 152.172C72.9686 152.769 72.8146 153.297 72.5066 153.754C72.208 154.202 71.7786 154.557 71.2186 154.818C70.668 155.07 70.0146 155.196 69.2586 155.196ZM74.0122 155V153.376H75.3002V146.824H74.0122V145.2H78.0442C79.3602 145.2 80.3588 145.536 81.0402 146.208C81.7308 146.871 82.0762 147.86 82.0762 149.176V151.024C82.0762 152.34 81.7308 153.334 81.0402 154.006C80.3588 154.669 79.3602 155 78.0442 155H74.0122ZM77.1482 153.32H78.0722C78.8188 153.32 79.3648 153.124 79.7102 152.732C80.0555 152.34 80.2282 151.789 80.2282 151.08V149.12C80.2282 148.401 80.0555 147.851 79.7102 147.468C79.3648 147.076 78.8188 146.88 78.0722 146.88H77.1482V153.32ZM87.3404 155.196C86.127 155.196 85.1657 154.86 84.4564 154.188C83.747 153.507 83.3924 152.536 83.3924 151.276V148.924C83.3924 147.664 83.747 146.698 84.4564 146.026C85.1657 145.345 86.127 145.004 87.3404 145.004C88.5444 145.004 89.473 145.335 90.1264 145.998C90.7891 146.651 91.1204 147.552 91.1204 148.7V148.784H89.3004V148.644C89.3004 148.065 89.137 147.589 88.8104 147.216C88.493 146.843 88.003 146.656 87.3404 146.656C86.687 146.656 86.1737 146.857 85.8004 147.258C85.427 147.659 85.2404 148.205 85.2404 148.896V151.304C85.2404 151.985 85.427 152.531 85.8004 152.942C86.1737 153.343 86.687 153.544 87.3404 153.544C88.003 153.544 88.493 153.357 88.8104 152.984C89.137 152.601 89.3004 152.125 89.3004 151.556V151.304H91.1204V151.5C91.1204 152.648 90.7891 153.553 90.1264 154.216C89.473 154.869 88.5444 155.196 87.3404 155.196ZM99.5408 155.196C98.8502 155.196 98.2295 155.056 97.6788 154.776C97.1282 154.496 96.6942 154.09 96.3768 153.558C96.0595 153.026 95.9008 152.387 95.9008 151.64V151.416C95.9008 150.669 96.0595 150.03 96.3768 149.498C96.6942 148.966 97.1282 148.56 97.6788 148.28C98.2295 148 98.8502 147.86 99.5408 147.86C100.232 147.86 100.852 148 101.403 148.28C101.954 148.56 102.388 148.966 102.705 149.498C103.022 150.03 103.181 150.669 103.181 151.416V151.64C103.181 152.387 103.022 153.026 102.705 153.558C102.388 154.09 101.954 154.496 101.403 154.776C100.852 155.056 100.232 155.196 99.5408 155.196ZM99.5408 153.628C100.082 153.628 100.53 153.455 100.885 153.11C101.24 152.755 101.417 152.251 101.417 151.598V151.458C101.417 150.805 101.24 150.305 100.885 149.96C100.54 149.605 100.092 149.428 99.5408 149.428C98.9995 149.428 98.5515 149.605 98.1968 149.96C97.8422 150.305 97.6648 150.805 97.6648 151.458V151.598C97.6648 152.251 97.8422 152.755 98.1968 153.11C98.5515 153.455 98.9995 153.628 99.5408 153.628ZM104.809 155V148.056H106.545V148.84H106.797C106.9 148.56 107.068 148.355 107.301 148.224C107.544 148.093 107.824 148.028 108.141 148.028H108.981V149.596H108.113C107.665 149.596 107.296 149.717 107.007 149.96C106.718 150.193 106.573 150.557 106.573 151.052V155H104.809ZM117.261 155.196C116.505 155.196 115.837 155.061 115.259 154.79C114.68 154.519 114.227 154.132 113.901 153.628C113.574 153.124 113.411 152.517 113.411 151.808V151.416H115.231V151.808C115.231 152.396 115.413 152.839 115.777 153.138C116.141 153.427 116.635 153.572 117.261 153.572C117.895 153.572 118.367 153.446 118.675 153.194C118.992 152.942 119.151 152.62 119.151 152.228C119.151 151.957 119.076 151.738 118.927 151.57C118.777 151.402 118.558 151.267 118.269 151.164C117.979 151.052 117.625 150.949 117.205 150.856L116.883 150.786C116.211 150.637 115.632 150.45 115.147 150.226C114.671 149.993 114.302 149.689 114.041 149.316C113.789 148.943 113.663 148.457 113.663 147.86C113.663 147.263 113.803 146.754 114.083 146.334C114.372 145.905 114.773 145.578 115.287 145.354C115.809 145.121 116.421 145.004 117.121 145.004C117.821 145.004 118.441 145.125 118.983 145.368C119.533 145.601 119.963 145.956 120.271 146.432C120.588 146.899 120.747 147.487 120.747 148.196V148.616H118.927V148.196C118.927 147.823 118.852 147.524 118.703 147.3C118.563 147.067 118.357 146.899 118.087 146.796C117.816 146.684 117.494 146.628 117.121 146.628C116.561 146.628 116.145 146.735 115.875 146.95C115.613 147.155 115.483 147.44 115.483 147.804C115.483 148.047 115.543 148.252 115.665 148.42C115.795 148.588 115.987 148.728 116.239 148.84C116.491 148.952 116.813 149.05 117.205 149.134L117.527 149.204C118.227 149.353 118.833 149.545 119.347 149.778C119.86 150.011 120.257 150.319 120.537 150.702C120.826 151.085 120.971 151.575 120.971 152.172C120.971 152.769 120.817 153.297 120.509 153.754C120.21 154.202 119.781 154.557 119.221 154.818C118.67 155.07 118.017 155.196 117.261 155.196ZM116.407 156.624V143.576H118.087V156.624H116.407ZM125.751 155.196C124.995 155.196 124.327 155.061 123.749 154.79C123.17 154.519 122.717 154.132 122.391 153.628C122.064 153.124 121.901 152.517 121.901 151.808V151.416H123.721V151.808C123.721 152.396 123.903 152.839 124.267 153.138C124.631 153.427 125.125 153.572 125.751 153.572C126.385 153.572 126.857 153.446 127.165 153.194C127.482 152.942 127.641 152.62 127.641 152.228C127.641 151.957 127.561 151.738 127.403 151.57C127.253 151.402 127.029 151.267 126.731 151.164C126.441 151.052 126.087 150.949 125.667 150.856L125.345 150.786C124.673 150.637 124.094 150.45 123.609 150.226C123.133 149.993 122.764 149.689 122.503 149.316C122.251 148.943 122.125 148.457 122.125 147.86C122.125 147.263 122.265 146.754 122.545 146.334C122.834 145.905 123.235 145.578 123.749 145.354C124.271 145.121 124.883 145.004 125.583 145.004C126.283 145.004 126.903 145.125 127.445 145.368C127.995 145.601 128.425 145.956 128.733 146.432C129.05 146.899 129.209 147.487 129.209 148.196V148.616H127.389V148.196C127.389 147.823 127.314 147.524 127.165 147.3C127.025 147.067 126.819 146.899 126.549 146.796C126.278 146.684 125.956 146.628 125.583 146.628C125.023 146.628 124.607 146.735 124.337 146.95C124.075 147.155 123.945 147.44 123.945 147.804C123.945 148.047 124.005 148.252 124.127 148.42C124.257 148.588 124.449 148.728 124.701 148.84C124.953 148.952 125.275 149.05 125.667 149.134L125.989 149.204C126.689 149.353 127.295 149.545 127.809 149.778C128.331 150.011 128.737 150.319 129.027 150.702C129.316 151.085 129.461 151.575 129.461 152.172C129.461 152.769 129.307 153.297 128.999 153.754C128.7 154.202 128.271 154.557 127.711 154.818C127.16 155.07 126.507 155.196 125.751 155.196ZM134.647 155.196C133.415 155.196 132.435 154.86 131.707 154.188C130.979 153.507 130.615 152.536 130.615 151.276V148.924C130.615 147.664 130.979 146.698 131.707 146.026C132.435 145.345 133.415 145.004 134.647 145.004C135.879 145.004 136.859 145.345 137.587 146.026C138.315 146.698 138.679 147.664 138.679 148.924V151.276C138.679 152.536 138.315 153.507 137.587 154.188C136.859 154.86 135.879 155.196 134.647 155.196ZM134.647 153.544C135.338 153.544 135.874 153.343 136.257 152.942C136.64 152.541 136.831 152.004 136.831 151.332V148.868C136.831 148.196 136.64 147.659 136.257 147.258C135.874 146.857 135.338 146.656 134.647 146.656C133.966 146.656 133.429 146.857 133.037 147.258C132.654 147.659 132.463 148.196 132.463 148.868V151.332C132.463 152.004 132.654 152.541 133.037 152.942C133.429 153.343 133.966 153.544 134.647 153.544ZM140.3 155V145.2H142.148V153.32H146.628V155H140.3ZM54.8376 173.196C53.9323 173.196 53.1903 173 52.6116 172.608C52.033 172.216 51.683 171.656 51.5616 170.928L53.1856 170.508C53.251 170.835 53.3583 171.091 53.5076 171.278C53.6663 171.465 53.8576 171.6 54.0816 171.684C54.315 171.759 54.567 171.796 54.8376 171.796C55.2483 171.796 55.5516 171.726 55.7476 171.586C55.9436 171.437 56.0416 171.255 56.0416 171.04C56.0416 170.825 55.9483 170.662 55.7616 170.55C55.575 170.429 55.2763 170.331 54.8656 170.256L54.4736 170.186C53.9883 170.093 53.545 169.967 53.1436 169.808C52.7423 169.64 52.4203 169.411 52.1776 169.122C51.935 168.833 51.8136 168.459 51.8136 168.002C51.8136 167.311 52.0656 166.784 52.5696 166.42C53.0736 166.047 53.7363 165.86 54.5576 165.86C55.3323 165.86 55.9763 166.033 56.4896 166.378C57.003 166.723 57.339 167.176 57.4976 167.736L55.8596 168.24C55.785 167.885 55.631 167.633 55.3976 167.484C55.1736 167.335 54.8936 167.26 54.5576 167.26C54.2216 167.26 53.965 167.321 53.7876 167.442C53.6103 167.554 53.5216 167.713 53.5216 167.918C53.5216 168.142 53.615 168.31 53.8016 168.422C53.9883 168.525 54.2403 168.604 54.5576 168.66L54.9496 168.73C55.4723 168.823 55.9436 168.949 56.3636 169.108C56.793 169.257 57.129 169.477 57.3716 169.766C57.6236 170.046 57.7496 170.429 57.7496 170.914C57.7496 171.642 57.4836 172.207 56.9516 172.608C56.429 173 55.7243 173.196 54.8376 173.196ZM59.8554 173L58.8754 166.056H60.6254L61.2414 171.81H61.4934L62.3894 166.056H65.2174L66.1134 171.81H66.3654L66.9814 166.056H68.7314L67.7514 173H64.8254L63.9294 167.246H63.6774L62.7814 173H59.8554ZM72.4299 173.196C71.9353 173.196 71.4919 173.112 71.0999 172.944C70.7079 172.767 70.3953 172.515 70.1619 172.188C69.9379 171.852 69.8259 171.446 69.8259 170.97C69.8259 170.494 69.9379 170.097 70.1619 169.78C70.3953 169.453 70.7126 169.211 71.1139 169.052C71.5246 168.884 71.9913 168.8 72.5139 168.8H74.4179V168.408C74.4179 168.081 74.3153 167.815 74.1099 167.61C73.9046 167.395 73.5779 167.288 73.1299 167.288C72.6913 167.288 72.3646 167.391 72.1499 167.596C71.9353 167.792 71.7953 168.049 71.7299 168.366L70.1059 167.82C70.2179 167.465 70.3953 167.143 70.6379 166.854C70.8899 166.555 71.2213 166.317 71.6319 166.14C72.0519 165.953 72.5606 165.86 73.1579 165.86C74.0726 165.86 74.7959 166.089 75.3279 166.546C75.8599 167.003 76.1259 167.666 76.1259 168.534V171.124C76.1259 171.404 76.2566 171.544 76.5179 171.544H77.0779V173H75.9019C75.5566 173 75.2719 172.916 75.0479 172.748C74.8239 172.58 74.7119 172.356 74.7119 172.076V172.062H74.4459C74.4086 172.174 74.3246 172.323 74.1939 172.51C74.0633 172.687 73.8579 172.846 73.5779 172.986C73.2979 173.126 72.9153 173.196 72.4299 173.196ZM72.7379 171.768C73.2326 171.768 73.6339 171.633 73.9419 171.362C74.2593 171.082 74.4179 170.713 74.4179 170.256V170.116H72.6399C72.3133 170.116 72.0566 170.186 71.8699 170.326C71.6833 170.466 71.5899 170.662 71.5899 170.914C71.5899 171.166 71.6879 171.371 71.8839 171.53C72.0799 171.689 72.3646 171.768 72.7379 171.768ZM78.3677 175.8V166.056H80.1037V166.896H80.3557C80.5144 166.625 80.7617 166.387 81.0977 166.182C81.4337 165.967 81.9144 165.86 82.5397 165.86C83.0997 165.86 83.6177 166 84.0937 166.28C84.5697 166.551 84.9524 166.952 85.2417 167.484C85.531 168.016 85.6757 168.66 85.6757 169.416V169.64C85.6757 170.396 85.531 171.04 85.2417 171.572C84.9524 172.104 84.5697 172.51 84.0937 172.79C83.6177 173.061 83.0997 173.196 82.5397 173.196C82.1197 173.196 81.765 173.145 81.4757 173.042C81.1957 172.949 80.967 172.827 80.7897 172.678C80.6217 172.519 80.4864 172.361 80.3837 172.202H80.1317V175.8H78.3677ZM82.0077 171.656C82.5584 171.656 83.011 171.483 83.3657 171.138C83.7297 170.783 83.9117 170.27 83.9117 169.598V169.458C83.9117 168.786 83.7297 168.277 83.3657 167.932C83.0017 167.577 82.549 167.4 82.0077 167.4C81.4664 167.4 81.0137 167.577 80.6497 167.932C80.2857 168.277 80.1037 168.786 80.1037 169.458V169.598C80.1037 170.27 80.2857 170.783 80.6497 171.138C81.0137 171.483 81.4664 171.656 82.0077 171.656ZM93.5101 173C93.0528 173 92.6795 172.86 92.3901 172.58C92.1101 172.291 91.9701 171.908 91.9701 171.432V167.512H90.2341V166.056H91.9701V163.9H93.7341V166.056H95.6381V167.512H93.7341V171.124C93.7341 171.404 93.8648 171.544 94.1261 171.544H95.4701V173H93.5101ZM100.293 173.196C99.6021 173.196 98.9815 173.056 98.4308 172.776C97.8801 172.496 97.4461 172.09 97.1288 171.558C96.8115 171.026 96.6528 170.387 96.6528 169.64V169.416C96.6528 168.669 96.8115 168.03 97.1288 167.498C97.4461 166.966 97.8801 166.56 98.4308 166.28C98.9815 166 99.6021 165.86 100.293 165.86C100.983 165.86 101.604 166 102.155 166.28C102.705 166.56 103.139 166.966 103.457 167.498C103.774 168.03 103.933 168.669 103.933 169.416V169.64C103.933 170.387 103.774 171.026 103.457 171.558C103.139 172.09 102.705 172.496 102.155 172.776C101.604 173.056 100.983 173.196 100.293 173.196ZM100.293 171.628C100.834 171.628 101.282 171.455 101.637 171.11C101.991 170.755 102.169 170.251 102.169 169.598V169.458C102.169 168.805 101.991 168.305 101.637 167.96C101.291 167.605 100.843 167.428 100.293 167.428C99.7515 167.428 99.3035 167.605 98.9488 167.96C98.5941 168.305 98.4168 168.805 98.4168 169.458V169.598C98.4168 170.251 98.5941 170.755 98.9488 171.11C99.3035 171.455 99.7515 171.628 100.293 171.628ZM112.462 173.196C111.706 173.196 111.038 173.061 110.46 172.79C109.881 172.519 109.428 172.132 109.102 171.628C108.775 171.124 108.612 170.517 108.612 169.808V169.416H110.432V169.808C110.432 170.396 110.614 170.839 110.978 171.138C111.342 171.427 111.836 171.572 112.462 171.572C113.096 171.572 113.568 171.446 113.876 171.194C114.193 170.942 114.352 170.62 114.352 170.228C114.352 169.957 114.277 169.738 114.128 169.57C113.978 169.402 113.759 169.267 113.47 169.164C113.18 169.052 112.826 168.949 112.406 168.856L112.084 168.786C111.412 168.637 110.833 168.45 110.348 168.226C109.872 167.993 109.503 167.689 109.242 167.316C108.99 166.943 108.864 166.457 108.864 165.86C108.864 165.263 109.004 164.754 109.284 164.334C109.573 163.905 109.974 163.578 110.488 163.354C111.01 163.121 111.622 163.004 112.322 163.004C113.022 163.004 113.642 163.125 114.184 163.368C114.734 163.601 115.164 163.956 115.472 164.432C115.789 164.899 115.948 165.487 115.948 166.196V166.616H114.128V166.196C114.128 165.823 114.053 165.524 113.904 165.3C113.764 165.067 113.558 164.899 113.288 164.796C113.017 164.684 112.695 164.628 112.322 164.628C111.762 164.628 111.346 164.735 111.076 164.95C110.814 165.155 110.684 165.44 110.684 165.804C110.684 166.047 110.744 166.252 110.866 166.42C110.996 166.588 111.188 166.728 111.44 166.84C111.692 166.952 112.014 167.05 112.406 167.134L112.728 167.204C113.428 167.353 114.034 167.545 114.548 167.778C115.061 168.011 115.458 168.319 115.738 168.702C116.027 169.085 116.172 169.575 116.172 170.172C116.172 170.769 116.018 171.297 115.71 171.754C115.411 172.202 114.982 172.557 114.422 172.818C113.871 173.07 113.218 173.196 112.462 173.196ZM111.608 174.624V161.576H113.288V174.624H111.608ZM120.364 173.196C119.356 173.196 118.553 172.921 117.956 172.37C117.368 171.819 117.074 171.049 117.074 170.06V169.136H118.922V170.06C118.922 170.499 119.043 170.844 119.286 171.096C119.529 171.339 119.869 171.46 120.308 171.46C120.719 171.46 121.036 171.339 121.26 171.096C121.493 170.853 121.61 170.508 121.61 170.06V164.88H119.93V163.2H124.578V164.88H123.458V170.06C123.458 171.077 123.183 171.857 122.632 172.398C122.081 172.93 121.325 173.196 120.364 173.196ZM129.875 173.196C129.072 173.196 128.382 173.051 127.803 172.762C127.234 172.463 126.795 172.043 126.487 171.502C126.188 170.951 126.039 170.303 126.039 169.556V163.2H127.887V169.612C127.887 170.209 128.055 170.681 128.391 171.026C128.736 171.371 129.231 171.544 129.875 171.544C130.519 171.544 131.009 171.371 131.345 171.026C131.69 170.681 131.863 170.209 131.863 169.612V163.2H133.711V169.556C133.711 170.303 133.557 170.951 133.249 171.502C132.95 172.043 132.512 172.463 131.933 172.762C131.364 173.051 130.678 173.196 129.875 173.196ZM135.501 173V163.2H139.533C140.149 163.2 140.69 163.326 141.157 163.578C141.633 163.821 142.002 164.166 142.263 164.614C142.534 165.062 142.669 165.594 142.669 166.21V166.406C142.669 167.013 142.529 167.545 142.249 168.002C141.978 168.45 141.605 168.8 141.129 169.052C140.662 169.295 140.13 169.416 139.533 169.416H137.349V173H135.501ZM137.349 167.736H139.351C139.79 167.736 140.144 167.615 140.415 167.372C140.686 167.129 140.821 166.798 140.821 166.378V166.238C140.821 165.818 140.686 165.487 140.415 165.244C140.144 165.001 139.79 164.88 139.351 164.88H137.349V167.736Z" fill="#0E0F28"/>
<g filter="url(#filter0_d_792_3646)">
<path d="M24.9143 89.2329C24.0049 89.2433 23.0745 89.191 22.1442 89.076C12.2657 87.8625 4.54063 79.5464 4.02842 69.5984C3.41167 57.6524 12.9138 47.7671 24.7157 47.7671H24.768C27.674 47.7671 30.0783 45.4972 30.0783 42.5891V26.4589C30.0783 20.2558 32.5871 14.6384 36.643 10.5693C40.7094 6.51054 46.3228 4 52.5217 4L140.192 4C140.281 4 140.294 4.12418 140.205 4.13832C140.12 4.15201 140.118 4.29296 140.204 4.30688C150.863 6.0412 159 15.2915 159 26.4589V110.541C159 122.947 148.954 133 136.557 133L52.5322 133C40.1344 133 30.0887 122.947 30.0887 110.541L30.0887 94.4004C30.0887 91.5447 27.7681 89.2015 24.9143 89.2329Z" fill="#2050F2"/>
<path d="M140.191 2L140.407 2.01074C140.872 2.05658 141.268 2.25066 141.574 2.52832C152.667 4.83661 161 14.6654 161 26.459V110.541C161 124.051 150.06 135 136.557 135L52.5322 135C39.0286 135 28.0889 124.051 28.0889 110.541L28.0889 94.4004C28.0889 92.633 26.6524 91.2137 24.9365 91.2324L24.9355 91.2314C23.9356 91.2429 22.9168 91.1862 21.9004 91.0605V91.0615C11.0545 89.7293 2.59323 80.6156 2.03125 69.7012C1.35541 56.6074 11.7733 45.7676 24.7158 45.7676H24.7676C26.6359 45.7676 28.0781 44.3266 28.0781 42.5889V26.459C28.0781 19.7055 30.8121 13.5861 35.2266 9.15723L35.2305 9.15332C39.6563 4.73604 45.7717 2.00006 52.5215 2L140.191 2Z" stroke="#0E0F28" stroke-width="4"/>
</g>
<g clip-path="url(#clip0_792_3646)">
<path d="M101.22 114.539C98.4658 104.395 86.5051 97.8026 76.3936 99.9737C75.1346 97.5263 77.1412 96.8947 79.1477 96.4211C87.9215 94.3289 101.377 102.421 103.423 111.421C103.895 113.513 103.581 114.382 101.259 114.539H101.22Z" fill="#E4EAF2"/>
<path d="M107.043 111.224C105.508 105.066 101.495 100.526 96.2625 97.2106C90.2428 93.4211 83.7116 91.6053 76.5903 93.3421C78.3215 88.6842 84.6953 89.6711 88.551 90.579C94.4133 91.9606 99.9608 95.1579 103.935 99.6974C106.256 102.342 110.151 108.105 107.043 111.224Z" fill="#E4EAF2"/>
<path d="M98.3476 115.803C97.364 115.605 96.1444 116.316 95.2394 115.921C94.8067 115.724 93.5476 113.671 93.0755 113.119C89.2591 108.816 84.2231 106.487 78.4788 106.171C77.928 105.974 76.8657 103.408 77.0231 103.171C82.4919 101.355 89.0624 103.921 93.2722 107.553C95.6722 109.605 98.0722 112.605 98.3476 115.882V115.803Z" fill="#E4EAF2"/>
<path d="M111.567 103.092C110.348 101.513 109.325 99.7765 108.026 98.1976C102.715 91.6844 95.2787 87.4212 86.9377 86.0791L81.1147 85.4081C86.2688 82.5265 92.8 84.5002 97.7574 86.9081C102.715 89.316 107.829 93.2634 110.229 98.1186C110.977 99.6186 111.725 101.434 111.567 103.132V103.092Z" fill="#E4EAF2"/>
<path d="M112 93.3419C106.177 86.9866 98.8197 82.3287 90.2427 80.7498C93.6263 79.4077 97.7574 80.0393 101.062 81.3024C106.216 83.3156 110.623 87.8551 112 93.3024V93.3419Z" fill="#E4EAF2"/>
<path d="M92.1311 116C87.2917 115.132 82.7278 112.803 79.895 108.737C82.2557 108.619 84.7737 109.684 86.7803 110.869C88.7868 112.053 91.2655 113.908 92.0917 116.04L92.1311 116Z" fill="#E4EAF2"/>
</g>
<path d="M60.6115 39.28C59.1715 39.28 58.0248 38.8867 57.1715 38.1C56.3315 37.3133 55.9115 36.2133 55.9115 34.8V33.48H58.5515V34.8C58.5515 35.4267 58.7248 35.92 59.0715 36.28C59.4182 36.6267 59.9048 36.8 60.5315 36.8C61.1182 36.8 61.5715 36.6267 61.8915 36.28C62.2248 35.9333 62.3915 35.44 62.3915 34.8V27.4H59.9915V25H66.6315V27.4H65.0315V34.8C65.0315 36.2533 64.6382 37.3667 63.8515 38.14C63.0648 38.9 61.9848 39.28 60.6115 39.28ZM74.1985 39.28C73.0518 39.28 72.0652 39.0733 71.2385 38.66C70.4252 38.2333 69.7985 37.6333 69.3585 36.86C68.9318 36.0733 68.7185 35.1467 68.7185 34.08V25H71.3585V34.16C71.3585 35.0133 71.5985 35.6867 72.0785 36.18C72.5718 36.6733 73.2785 36.92 74.1985 36.92C75.1185 36.92 75.8185 36.6733 76.2985 36.18C76.7918 35.6867 77.0385 35.0133 77.0385 34.16V25H79.6785V34.08C79.6785 35.1467 79.4585 36.0733 79.0185 36.86C78.5918 37.6333 77.9652 38.2333 77.1385 38.66C76.3252 39.0733 75.3452 39.28 74.1985 39.28ZM82.236 39V25H87.996C88.876 25 89.6493 25.18 90.316 25.54C90.996 25.8867 91.5227 26.38 91.896 27.02C92.2827 27.66 92.476 28.42 92.476 29.3V29.58C92.476 30.4467 92.276 31.2067 91.876 31.86C91.4893 32.5 90.956 33 90.276 33.36C89.6093 33.7067 88.8493 33.88 87.996 33.88H84.876V39H82.236ZM84.876 31.48H87.736C88.3627 31.48 88.8693 31.3067 89.256 30.96C89.6427 30.6133 89.836 30.14 89.836 29.54V29.34C89.836 28.74 89.6427 28.2667 89.256 27.92C88.8693 27.5733 88.3627 27.4 87.736 27.4H84.876V31.48ZM94.3063 39V25H96.9463V39H94.3063ZM102.82 39V27.4H98.7398V25H109.54V27.4H105.46V39H102.82ZM111.338 39V25H120.338V27.4H113.978V30.74H119.778V33.14H113.978V36.6H120.458V39H111.338ZM122.412 39V25H128.492C129.372 25 130.138 25.1533 130.792 25.46C131.445 25.7667 131.952 26.2 132.312 26.76C132.672 27.32 132.852 27.98 132.852 28.74V28.98C132.852 29.82 132.652 30.5 132.252 31.02C131.852 31.54 131.358 31.92 130.772 32.16V32.52C131.305 32.5467 131.718 32.7333 132.012 33.08C132.305 33.4133 132.452 33.86 132.452 34.42V39H129.812V34.8C129.812 34.48 129.725 34.22 129.552 34.02C129.392 33.82 129.118 33.72 128.732 33.72H125.052V39H122.412ZM125.052 31.32H128.212C128.838 31.32 129.325 31.1533 129.672 30.82C130.032 30.4733 130.212 30.02 130.212 29.46V29.26C130.212 28.7 130.038 28.2533 129.692 27.92C129.345 27.5733 128.852 27.4 128.212 27.4H125.052V31.32ZM73.4437 65.28C72.3637 65.28 71.4103 65.0867 70.5837 64.7C69.757 64.3133 69.1103 63.76 68.6437 63.04C68.177 62.32 67.9437 61.4533 67.9437 60.44V59.88H70.5437V60.44C70.5437 61.28 70.8037 61.9133 71.3237 62.34C71.8437 62.7533 72.5503 62.96 73.4437 62.96C74.3503 62.96 75.0237 62.78 75.4637 62.42C75.917 62.06 76.1437 61.6 76.1437 61.04C76.1437 60.6533 76.0303 60.34 75.8037 60.1C75.5903 59.86 75.2703 59.6667 74.8437 59.52C74.4303 59.36 73.9237 59.2133 73.3237 59.08L72.8637 58.98C71.9037 58.7667 71.077 58.5 70.3837 58.18C69.7037 57.8467 69.177 57.4133 68.8037 56.88C68.4437 56.3467 68.2637 55.6533 68.2637 54.8C68.2637 53.9467 68.4637 53.22 68.8637 52.62C69.277 52.0067 69.8503 51.54 70.5837 51.22C71.3303 50.8867 72.2037 50.72 73.2037 50.72C74.2037 50.72 75.0903 50.8933 75.8637 51.24C76.6503 51.5733 77.2637 52.08 77.7037 52.76C78.157 53.4267 78.3837 54.2667 78.3837 55.28V55.88H75.7837V55.28C75.7837 54.7467 75.677 54.32 75.4637 54C75.2637 53.6667 74.9703 53.4267 74.5837 53.28C74.197 53.12 73.737 53.04 73.2037 53.04C72.4037 53.04 71.8103 53.1933 71.4237 53.5C71.0503 53.7933 70.8637 54.2 70.8637 54.72C70.8637 55.0667 70.9503 55.36 71.1237 55.6C71.3103 55.84 71.5837 56.04 71.9437 56.2C72.3037 56.36 72.7637 56.5 73.3237 56.62L73.7837 56.72C74.7837 56.9333 75.6503 57.2067 76.3837 57.54C77.1303 57.8733 77.7103 58.3133 78.1237 58.86C78.537 59.4067 78.7437 60.1067 78.7437 60.96C78.7437 61.8133 78.5237 62.5667 78.0837 63.22C77.657 63.86 77.0437 64.3667 76.2437 64.74C75.457 65.1 74.5237 65.28 73.4437 65.28ZM81.8326 65L79.9926 51H82.6126L83.9726 63.16H84.3326L86.0926 51H90.6526L92.4126 63.16H92.7726L94.1326 51H96.7526L94.9126 65H90.3526L88.5526 52.56H88.1926L86.3926 65H81.8326ZM97.3502 65L101.03 51H105.63L109.31 65H106.59L105.83 61.92H100.83L100.07 65H97.3502ZM101.45 59.48H105.21L103.51 52.66H103.15L101.45 59.48ZM110.986 65V51H116.746C117.626 51 118.399 51.18 119.066 51.54C119.746 51.8867 120.273 52.38 120.646 53.02C121.033 53.66 121.226 54.42 121.226 55.3V55.58C121.226 56.4467 121.026 57.2067 120.626 57.86C120.239 58.5 119.706 59 119.026 59.36C118.359 59.7067 117.599 59.88 116.746 59.88H113.626V65H110.986ZM113.626 57.48H116.486C117.113 57.48 117.619 57.3067 118.006 56.96C118.393 56.6133 118.586 56.14 118.586 55.54V55.34C118.586 54.74 118.393 54.2667 118.006 53.92C117.619 53.5733 117.113 53.4 116.486 53.4H113.626V57.48Z" fill="white"/>
<g filter="url(#filter1_d_792_3646)">
<path d="M156.914 89.2329C156.005 89.2433 155.075 89.191 154.144 89.076C144.266 87.8625 136.541 79.5464 136.028 69.5984C135.412 57.6524 144.914 47.7671 156.716 47.7671H156.768C159.674 47.7671 162.078 45.4972 162.078 42.5891V26.4589C162.078 20.2558 164.587 14.6384 168.643 10.5693C172.709 6.51054 178.323 4 184.522 4L272.192 4C272.281 4 272.294 4.12418 272.205 4.13832C272.12 4.15201 272.118 4.29296 272.204 4.30688C282.863 6.0412 291 15.2915 291 26.4589V110.541C291 122.947 280.954 133 268.557 133L184.532 133C172.134 133 162.089 122.947 162.089 110.541V94.4004C162.089 91.5447 159.768 89.2015 156.914 89.2329Z" fill="#2050F2"/>
<path d="M272.191 2L272.407 2.01074C272.872 2.05658 273.268 2.25066 273.574 2.52832C284.667 4.83661 293 14.6654 293 26.459V110.541C293 124.051 282.06 135 268.557 135L184.532 135C171.029 135 160.089 124.051 160.089 110.541V94.4004C160.089 92.633 158.652 91.2137 156.937 91.2324L156.936 91.2314C155.936 91.2429 154.917 91.1862 153.9 91.0605V91.0615C143.054 89.7293 134.593 80.6156 134.031 69.7012C133.355 56.6074 143.773 45.7676 156.716 45.7676H156.768C158.636 45.7676 160.078 44.3266 160.078 42.5889V26.459C160.078 19.7055 162.812 13.5861 167.227 9.15723L167.23 9.15332C171.656 4.73604 177.772 2.00006 184.521 2L272.191 2Z" stroke="#0E0F28" stroke-width="4"/>
</g>
<path d="M200.084 50V47.68H201.924V38.32H200.084V36H205.844C207.724 36 209.151 36.48 210.124 37.44C211.111 38.3867 211.604 39.8 211.604 41.68V44.32C211.604 46.2 211.111 47.62 210.124 48.58C209.151 49.5267 207.724 50 205.844 50H200.084ZM204.564 47.6H205.884C206.951 47.6 207.731 47.32 208.224 46.76C208.717 46.2 208.964 45.4133 208.964 44.4V41.6C208.964 40.5733 208.717 39.7867 208.224 39.24C207.731 38.68 206.951 38.4 205.884 38.4H204.564V47.6ZM213.804 50V36H219.884C220.764 36 221.531 36.1533 222.184 36.46C222.838 36.7667 223.344 37.2 223.704 37.76C224.064 38.32 224.244 38.98 224.244 39.74V39.98C224.244 40.82 224.044 41.5 223.644 42.02C223.244 42.54 222.751 42.92 222.164 43.16V43.52C222.698 43.5467 223.111 43.7333 223.404 44.08C223.698 44.4133 223.844 44.86 223.844 45.42V50H221.204V45.8C221.204 45.48 221.118 45.22 220.944 45.02C220.784 44.82 220.511 44.72 220.124 44.72H216.444V50H213.804ZM216.444 42.32H219.604C220.231 42.32 220.718 42.1533 221.064 41.82C221.424 41.4733 221.604 41.02 221.604 40.46V40.26C221.604 39.7 221.431 39.2533 221.084 38.92C220.738 38.5733 220.244 38.4 219.604 38.4H216.444V42.32ZM226.441 50V36H229.081V50H226.441ZM231.715 50V36H240.515V38.4H234.355V41.78H240.035V44.18H234.355V50H231.715ZM245.638 50V38.4H241.558V36H252.358V38.4H248.278V50H245.638ZM177.525 102V88H183.285C184.165 88 184.938 88.18 185.605 88.54C186.285 88.8867 186.812 89.38 187.185 90.02C187.572 90.66 187.765 91.42 187.765 92.3V92.58C187.765 93.4467 187.565 94.2067 187.165 94.86C186.778 95.5 186.245 96 185.565 96.36C184.898 96.7067 184.138 96.88 183.285 96.88H180.165V102H177.525ZM180.165 94.48H183.025C183.652 94.48 184.158 94.3067 184.545 93.96C184.932 93.6133 185.125 93.14 185.125 92.54V92.34C185.125 91.74 184.932 91.2667 184.545 90.92C184.158 90.5733 183.652 90.4 183.025 90.4H180.165V94.48ZM189.595 102V88H195.675C196.555 88 197.322 88.1533 197.975 88.46C198.629 88.7667 199.135 89.2 199.495 89.76C199.855 90.32 200.035 90.98 200.035 91.74V91.98C200.035 92.82 199.835 93.5 199.435 94.02C199.035 94.54 198.542 94.92 197.955 95.16V95.52C198.489 95.5467 198.902 95.7333 199.195 96.08C199.489 96.4133 199.635 96.86 199.635 97.42V102H196.995V97.8C196.995 97.48 196.909 97.22 196.735 97.02C196.575 96.82 196.302 96.72 195.915 96.72H192.235V102H189.595ZM192.235 94.32H195.395C196.022 94.32 196.509 94.1533 196.855 93.82C197.215 93.4733 197.395 93.02 197.395 92.46V92.26C197.395 91.7 197.222 91.2533 196.875 90.92C196.529 90.5733 196.035 90.4 195.395 90.4H192.235V94.32ZM207.672 102.28C205.912 102.28 204.512 101.8 203.472 100.84C202.432 99.8667 201.912 98.48 201.912 96.68V93.32C201.912 91.52 202.432 90.14 203.472 89.18C204.512 88.2067 205.912 87.72 207.672 87.72C209.432 87.72 210.832 88.2067 211.872 89.18C212.912 90.14 213.432 91.52 213.432 93.32V96.68C213.432 98.48 212.912 99.8667 211.872 100.84C210.832 101.8 209.432 102.28 207.672 102.28ZM207.672 99.92C208.659 99.92 209.425 99.6333 209.972 99.06C210.519 98.4867 210.792 97.72 210.792 96.76V93.24C210.792 92.28 210.519 91.5133 209.972 90.94C209.425 90.3667 208.659 90.08 207.672 90.08C206.699 90.08 205.932 90.3667 205.372 90.94C204.825 91.5133 204.552 92.28 204.552 93.24V96.76C204.552 97.72 204.825 98.4867 205.372 99.06C205.932 99.6333 206.699 99.92 207.672 99.92ZM218.421 102V90.4H214.341V88H225.141V90.4H221.061V102H218.421ZM231.813 102.28C230.053 102.28 228.653 101.8 227.613 100.84C226.573 99.8667 226.053 98.48 226.053 96.68V93.32C226.053 91.52 226.573 90.14 227.613 89.18C228.653 88.2067 230.053 87.72 231.813 87.72C233.573 87.72 234.973 88.2067 236.013 89.18C237.053 90.14 237.573 91.52 237.573 93.32V96.68C237.573 98.48 237.053 99.8667 236.013 100.84C234.973 101.8 233.573 102.28 231.813 102.28ZM231.813 99.92C232.799 99.92 233.566 99.6333 234.113 99.06C234.659 98.4867 234.933 97.72 234.933 96.76V93.24C234.933 92.28 234.659 91.5133 234.113 90.94C233.566 90.3667 232.799 90.08 231.813 90.08C230.839 90.08 230.073 90.3667 229.513 90.94C228.966 91.5133 228.693 92.28 228.693 93.24V96.76C228.693 97.72 228.966 98.4867 229.513 99.06C230.073 99.6333 230.839 99.92 231.813 99.92ZM245.208 102.28C243.475 102.28 242.102 101.8 241.088 100.84C240.075 99.8667 239.568 98.48 239.568 96.68V93.32C239.568 91.52 240.075 90.14 241.088 89.18C242.102 88.2067 243.475 87.72 245.208 87.72C246.928 87.72 248.255 88.1933 249.188 89.14C250.135 90.0733 250.608 91.36 250.608 93V93.12H248.008V92.92C248.008 92.0933 247.775 91.4133 247.308 90.88C246.855 90.3467 246.155 90.08 245.208 90.08C244.275 90.08 243.542 90.3667 243.008 90.94C242.475 91.5133 242.208 92.2933 242.208 93.28V96.72C242.208 97.6933 242.475 98.4733 243.008 99.06C243.542 99.6333 244.275 99.92 245.208 99.92C246.155 99.92 246.855 99.6533 247.308 99.12C247.775 98.5733 248.008 97.8933 248.008 97.08V96.72H250.608V97C250.608 98.64 250.135 99.9333 249.188 100.88C248.255 101.813 246.928 102.28 245.208 102.28ZM258.199 102.28C256.439 102.28 255.039 101.8 253.999 100.84C252.959 99.8667 252.439 98.48 252.439 96.68V93.32C252.439 91.52 252.959 90.14 253.999 89.18C255.039 88.2067 256.439 87.72 258.199 87.72C259.959 87.72 261.359 88.2067 262.399 89.18C263.439 90.14 263.959 91.52 263.959 93.32V96.68C263.959 98.48 263.439 99.8667 262.399 100.84C261.359 101.8 259.959 102.28 258.199 102.28ZM258.199 99.92C259.186 99.92 259.953 99.6333 260.499 99.06C261.046 98.4867 261.319 97.72 261.319 96.76V93.24C261.319 92.28 261.046 91.5133 260.499 90.94C259.953 90.3667 259.186 90.08 258.199 90.08C257.226 90.08 256.459 90.3667 255.899 90.94C255.353 91.5133 255.079 92.28 255.079 93.24V96.76C255.079 97.72 255.353 98.4867 255.899 99.06C256.459 99.6333 257.226 99.92 258.199 99.92ZM266.275 102V88H268.915V99.6H275.315V102H266.275Z" fill="white"/>
<path d="M202.428 155.196C201.672 155.196 201.004 155.061 200.426 154.79C199.847 154.519 199.394 154.132 199.068 153.628C198.741 153.124 198.578 152.517 198.578 151.808V151.416H200.398V151.808C200.398 152.396 200.58 152.839 200.944 153.138C201.308 153.427 201.802 153.572 202.428 153.572C203.062 153.572 203.534 153.446 203.842 153.194C204.159 152.942 204.318 152.62 204.318 152.228C204.318 151.957 204.238 151.738 204.08 151.57C203.93 151.402 203.706 151.267 203.408 151.164C203.118 151.052 202.764 150.949 202.344 150.856L202.022 150.786C201.35 150.637 200.771 150.45 200.286 150.226C199.81 149.993 199.441 149.689 199.18 149.316C198.928 148.943 198.802 148.457 198.802 147.86C198.802 147.263 198.942 146.754 199.222 146.334C199.511 145.905 199.912 145.578 200.426 145.354C200.948 145.121 201.56 145.004 202.26 145.004C202.96 145.004 203.58 145.125 204.122 145.368C204.672 145.601 205.102 145.956 205.41 146.432C205.727 146.899 205.886 147.487 205.886 148.196V148.616H204.066V148.196C204.066 147.823 203.991 147.524 203.842 147.3C203.702 147.067 203.496 146.899 203.226 146.796C202.955 146.684 202.633 146.628 202.26 146.628C201.7 146.628 201.284 146.735 201.014 146.95C200.752 147.155 200.622 147.44 200.622 147.804C200.622 148.047 200.682 148.252 200.804 148.42C200.934 148.588 201.126 148.728 201.378 148.84C201.63 148.952 201.952 149.05 202.344 149.134L202.666 149.204C203.366 149.353 203.972 149.545 204.486 149.778C205.008 150.011 205.414 150.319 205.704 150.702C205.993 151.085 206.138 151.575 206.138 152.172C206.138 152.769 205.984 153.297 205.676 153.754C205.377 154.202 204.948 154.557 204.388 154.818C203.837 155.07 203.184 155.196 202.428 155.196ZM207.516 155V145.2H209.364V149.246H213.004V145.2H214.852V155H213.004V150.926H209.364V155H207.516ZM220.511 155.196C219.279 155.196 218.299 154.86 217.571 154.188C216.843 153.507 216.479 152.536 216.479 151.276V148.924C216.479 147.664 216.843 146.698 217.571 146.026C218.299 145.345 219.279 145.004 220.511 145.004C221.743 145.004 222.723 145.345 223.451 146.026C224.179 146.698 224.543 147.664 224.543 148.924V151.276C224.543 152.536 224.179 153.507 223.451 154.188C222.723 154.86 221.743 155.196 220.511 155.196ZM220.511 153.544C221.202 153.544 221.739 153.343 222.121 152.942C222.504 152.541 222.695 152.004 222.695 151.332V148.868C222.695 148.196 222.504 147.659 222.121 147.258C221.739 146.857 221.202 146.656 220.511 146.656C219.83 146.656 219.293 146.857 218.901 147.258C218.519 147.659 218.327 148.196 218.327 148.868V151.332C218.327 152.004 218.519 152.541 218.901 152.942C219.293 153.343 219.83 153.544 220.511 153.544ZM226.164 155V145.2H230.42C231.036 145.2 231.573 145.307 232.03 145.522C232.488 145.737 232.842 146.04 233.094 146.432C233.346 146.824 233.472 147.286 233.472 147.818V147.986C233.472 148.574 233.332 149.05 233.052 149.414C232.772 149.778 232.427 150.044 232.016 150.212V150.464C232.39 150.483 232.679 150.613 232.884 150.856C233.09 151.089 233.192 151.402 233.192 151.794V155H231.344V152.06C231.344 151.836 231.284 151.654 231.162 151.514C231.05 151.374 230.859 151.304 230.588 151.304H228.012V155H226.164ZM228.012 149.624H230.224C230.663 149.624 231.004 149.507 231.246 149.274C231.498 149.031 231.624 148.714 231.624 148.322V148.182C231.624 147.79 231.503 147.477 231.26 147.244C231.018 147.001 230.672 146.88 230.224 146.88H228.012V149.624ZM237.114 155V146.88H234.258V145.2H241.818V146.88H238.962V155H237.114ZM248.895 155V146.516H248.643L247.327 149.624H245.451L247.453 145.2H250.687V155H248.895ZM251.977 155L254.497 151.5L252.005 148.056H254.049L255.631 150.366H255.883L257.465 148.056H259.509L257.017 151.5L259.537 155H257.465L255.883 152.662H255.631L254.049 155H251.977ZM186.985 173.196C185.977 173.196 185.174 172.921 184.577 172.37C183.989 171.819 183.695 171.049 183.695 170.06V169.136H185.543V170.06C185.543 170.499 185.664 170.844 185.907 171.096C186.15 171.339 186.49 171.46 186.929 171.46C187.34 171.46 187.657 171.339 187.881 171.096C188.114 170.853 188.231 170.508 188.231 170.06V164.88H186.551V163.2H191.199V164.88H190.079V170.06C190.079 171.077 189.804 171.857 189.253 172.398C188.702 172.93 187.946 173.196 186.985 173.196ZM196.496 173.196C195.693 173.196 195.003 173.051 194.424 172.762C193.855 172.463 193.416 172.043 193.108 171.502C192.809 170.951 192.66 170.303 192.66 169.556V163.2H194.508V169.612C194.508 170.209 194.676 170.681 195.012 171.026C195.357 171.371 195.852 171.544 196.496 171.544C197.14 171.544 197.63 171.371 197.966 171.026C198.311 170.681 198.484 170.209 198.484 169.612V163.2H200.332V169.556C200.332 170.303 200.178 170.951 199.87 171.502C199.571 172.043 199.133 172.463 198.554 172.762C197.985 173.051 197.299 173.196 196.496 173.196ZM202.122 173V163.2H206.154C206.77 163.2 207.312 163.326 207.778 163.578C208.254 163.821 208.623 164.166 208.884 164.614C209.155 165.062 209.29 165.594 209.29 166.21V166.406C209.29 167.013 209.15 167.545 208.87 168.002C208.6 168.45 208.226 168.8 207.75 169.052C207.284 169.295 206.752 169.416 206.154 169.416H203.97V173H202.122ZM203.97 167.736H205.972C206.411 167.736 206.766 167.615 207.036 167.372C207.307 167.129 207.442 166.798 207.442 166.378V166.238C207.442 165.818 207.307 165.487 207.036 165.244C206.766 165.001 206.411 164.88 205.972 164.88H203.97V167.736ZM216.842 173C216.385 173 216.011 172.86 215.722 172.58C215.442 172.291 215.302 171.908 215.302 171.432V167.512H213.566V166.056H215.302V163.9H217.066V166.056H218.97V167.512H217.066V171.124C217.066 171.404 217.197 171.544 217.458 171.544H218.802V173H216.842ZM223.625 173.196C222.934 173.196 222.313 173.056 221.763 172.776C221.212 172.496 220.778 172.09 220.461 171.558C220.143 171.026 219.985 170.387 219.985 169.64V169.416C219.985 168.669 220.143 168.03 220.461 167.498C220.778 166.966 221.212 166.56 221.763 166.28C222.313 166 222.934 165.86 223.625 165.86C224.315 165.86 224.936 166 225.487 166.28C226.037 166.56 226.471 166.966 226.789 167.498C227.106 168.03 227.265 168.669 227.265 169.416V169.64C227.265 170.387 227.106 171.026 226.789 171.558C226.471 172.09 226.037 172.496 225.487 172.776C224.936 173.056 224.315 173.196 223.625 173.196ZM223.625 171.628C224.166 171.628 224.614 171.455 224.969 171.11C225.323 170.755 225.501 170.251 225.501 169.598V169.458C225.501 168.805 225.323 168.305 224.969 167.96C224.623 167.605 224.175 167.428 223.625 167.428C223.083 167.428 222.635 167.605 222.281 167.96C221.926 168.305 221.749 168.805 221.749 169.458V169.598C221.749 170.251 221.926 170.755 222.281 171.11C222.635 171.455 223.083 171.628 223.625 171.628ZM232.392 173V163.2H234.24V167.246H237.88V163.2H239.728V173H237.88V168.926H234.24V173H232.392ZM241.579 173V163.2H247.879V164.88H243.427V167.218H247.487V168.898H243.427V171.32H247.963V173H241.579ZM249.051 173V171.376H250.339V164.824H249.051V163.2H253.083C254.399 163.2 255.398 163.536 256.079 164.208C256.77 164.871 257.115 165.86 257.115 167.176V169.024C257.115 170.34 256.77 171.334 256.079 172.006C255.398 172.669 254.399 173 253.083 173H249.051ZM252.187 171.32H253.111C253.858 171.32 254.404 171.124 254.749 170.732C255.095 170.34 255.267 169.789 255.267 169.08V167.12C255.267 166.401 255.095 165.851 254.749 165.468C254.404 165.076 253.858 164.88 253.111 164.88H252.187V171.32ZM262.043 173.196C261.371 173.196 260.76 173.047 260.209 172.748C259.668 172.44 259.234 171.997 258.907 171.418C258.59 170.83 258.431 170.116 258.431 169.276V166.924C258.431 165.664 258.786 164.698 259.495 164.026C260.205 163.345 261.166 163.004 262.379 163.004C263.583 163.004 264.512 163.326 265.165 163.97C265.828 164.605 266.159 165.468 266.159 166.56V166.616H264.339V166.504C264.339 166.159 264.265 165.846 264.115 165.566C263.975 165.286 263.761 165.067 263.471 164.908C263.182 164.74 262.818 164.656 262.379 164.656C261.726 164.656 261.213 164.857 260.839 165.258C260.466 165.659 260.279 166.205 260.279 166.896V169.304C260.279 169.985 260.466 170.536 260.839 170.956C261.213 171.367 261.735 171.572 262.407 171.572C263.079 171.572 263.569 171.395 263.877 171.04C264.185 170.685 264.339 170.237 264.339 169.696V169.556H262.015V167.988H266.159V173H264.451V172.062H264.199C264.134 172.221 264.027 172.389 263.877 172.566C263.737 172.743 263.523 172.893 263.233 173.014C262.944 173.135 262.547 173.196 262.043 173.196ZM267.925 173V163.2H274.225V164.88H269.773V167.218H273.833V168.898H269.773V171.32H274.309V173H267.925Z" fill="#0E0F28"/>
<path d="M437.274 155V145.2H441.53C442.146 145.2 442.682 145.307 443.14 145.522C443.597 145.737 443.952 146.04 444.204 146.432C444.456 146.824 444.582 147.286 444.582 147.818V147.986C444.582 148.574 444.442 149.05 444.162 149.414C443.882 149.778 443.536 150.044 443.126 150.212V150.464C443.499 150.483 443.788 150.613 443.994 150.856C444.199 151.089 444.302 151.402 444.302 151.794V155H442.454V152.06C442.454 151.836 442.393 151.654 442.272 151.514C442.16 151.374 441.968 151.304 441.698 151.304H439.122V155H437.274ZM439.122 149.624H441.334C441.772 149.624 442.113 149.507 442.356 149.274C442.608 149.031 442.734 148.714 442.734 148.322V148.182C442.734 147.79 442.612 147.477 442.37 147.244C442.127 147.001 441.782 146.88 441.334 146.88H439.122V149.624ZM446.119 155V145.2H452.419V146.88H447.967V149.218H452.027V150.898H447.967V153.32H452.503V155H446.119ZM453.199 155L455.775 145.2H458.995L461.571 155H459.667L459.135 152.844H455.635L455.103 155H453.199ZM456.069 151.136H458.701L457.511 146.362H457.259L456.069 151.136ZM462.744 155V145.2H464.592V153.32H469.072V155H462.744ZM475.307 155V146.88H472.451V145.2H480.011V146.88H477.155V155H475.307ZM481.27 155V145.2H483.118V155H481.27ZM484.961 155V145.2H488.391L490.085 153.74H490.337L492.031 145.2H495.461V155H493.669V146.558H493.417L491.737 155H488.685L487.005 146.558H486.753V155H484.961ZM497.307 155V145.2H503.607V146.88H499.155V149.218H503.215V150.898H499.155V153.32H503.691V155H497.307ZM507.777 155L510.353 145.2H513.573L516.149 155H514.245L513.713 152.844H510.213L509.681 155H507.777ZM510.647 151.136H513.279L512.089 146.362H511.837L510.647 151.136ZM517.322 155V145.2H519.17V153.32H523.65V155H517.322ZM524.91 155V145.2H531.21V146.88H526.758V149.218H530.818V150.898H526.758V153.32H531.294V155H524.91ZM532.662 155V145.2H536.918C537.534 145.2 538.071 145.307 538.528 145.522C538.986 145.737 539.34 146.04 539.592 146.432C539.844 146.824 539.97 147.286 539.97 147.818V147.986C539.97 148.574 539.83 149.05 539.55 149.414C539.27 149.778 538.925 150.044 538.514 150.212V150.464C538.888 150.483 539.177 150.613 539.382 150.856C539.588 151.089 539.69 151.402 539.69 151.794V155H537.842V152.06C537.842 151.836 537.782 151.654 537.66 151.514C537.548 151.374 537.357 151.304 537.086 151.304H534.51V155H532.662ZM534.51 149.624H536.722C537.161 149.624 537.502 149.507 537.744 149.274C537.996 149.031 538.122 148.714 538.122 148.322V148.182C538.122 147.79 538.001 147.477 537.758 147.244C537.516 147.001 537.17 146.88 536.722 146.88H534.51V149.624ZM543.612 155V146.88H540.756V145.2H548.316V146.88H545.46V155H543.612Z" fill="#0E0F28"/>
<g filter="url(#filter2_d_792_3646)">
<path d="M288.914 89.2329C288.005 89.2433 287.075 89.191 286.144 89.076C276.266 87.8625 268.541 79.5464 268.028 69.5984C267.412 57.6524 276.914 47.7671 288.716 47.7671H288.768C291.674 47.7671 294.078 45.4972 294.078 42.5891V26.4589C294.078 20.2558 296.587 14.6384 300.643 10.5693C304.709 6.51054 310.323 4 316.522 4L404.192 4C404.281 4 404.294 4.12418 404.205 4.13832C404.12 4.15201 404.118 4.29296 404.204 4.30688C414.863 6.0412 423 15.2915 423 26.4589V110.541C423 122.947 412.954 133 400.557 133L316.532 133C304.134 133 294.089 122.947 294.089 110.541V94.4004C294.089 91.5447 291.768 89.2015 288.914 89.2329Z" fill="#2050F2"/>
<path d="M404.191 2L404.407 2.01074C404.872 2.05658 405.268 2.25066 405.574 2.52832C416.667 4.83661 425 14.6654 425 26.459V110.541C425 124.051 414.06 135 400.557 135L316.532 135C303.029 135 292.089 124.051 292.089 110.541V94.4004C292.089 92.633 290.652 91.2137 288.937 91.2324L288.936 91.2314C287.936 91.2429 286.917 91.1862 285.9 91.0605V91.0615C275.054 89.7293 266.593 80.6156 266.031 69.7012C265.355 56.6074 275.773 45.7676 288.716 45.7676H288.768C290.636 45.7676 292.078 44.3266 292.078 42.5889V26.459C292.078 19.7055 294.812 13.5861 299.227 9.15723L299.23 9.15332C303.656 4.73604 309.772 2.00006 316.521 2L404.191 2Z" stroke="#0E0F28" stroke-width="4"/>
</g>
<path d="M339.219 50.28C338.139 50.28 337.186 50.0867 336.359 49.7C335.532 49.3133 334.886 48.76 334.419 48.04C333.952 47.32 333.719 46.4533 333.719 45.44V44.88H336.319V45.44C336.319 46.28 336.579 46.9133 337.099 47.34C337.619 47.7533 338.326 47.96 339.219 47.96C340.126 47.96 340.799 47.78 341.239 47.42C341.692 47.06 341.919 46.6 341.919 46.04C341.919 45.6533 341.806 45.34 341.579 45.1C341.366 44.86 341.046 44.6667 340.619 44.52C340.206 44.36 339.699 44.2133 339.099 44.08L338.639 43.98C337.679 43.7667 336.852 43.5 336.159 43.18C335.479 42.8467 334.952 42.4133 334.579 41.88C334.219 41.3467 334.039 40.6533 334.039 39.8C334.039 38.9467 334.239 38.22 334.639 37.62C335.052 37.0067 335.626 36.54 336.359 36.22C337.106 35.8867 337.979 35.72 338.979 35.72C339.979 35.72 340.866 35.8933 341.639 36.24C342.426 36.5733 343.039 37.08 343.479 37.76C343.932 38.4267 344.159 39.2667 344.159 40.28V40.88H341.559V40.28C341.559 39.7467 341.452 39.32 341.239 39C341.039 38.6667 340.746 38.4267 340.359 38.28C339.972 38.12 339.512 38.04 338.979 38.04C338.179 38.04 337.586 38.1933 337.199 38.5C336.826 38.7933 336.639 39.2 336.639 39.72C336.639 40.0667 336.726 40.36 336.899 40.6C337.086 40.84 337.359 41.04 337.719 41.2C338.079 41.36 338.539 41.5 339.099 41.62L339.559 41.72C340.559 41.9333 341.426 42.2067 342.159 42.54C342.906 42.8733 343.486 43.3133 343.899 43.86C344.312 44.4067 344.519 45.1067 344.519 45.96C344.519 46.8133 344.299 47.5667 343.859 48.22C343.432 48.86 342.819 49.3667 342.019 49.74C341.232 50.1 340.299 50.28 339.219 50.28ZM346.488 50V36H355.488V38.4H349.128V41.74H354.928V44.14H349.128V47.6H355.608V50H346.488ZM357.562 50V36H362.582L365.362 48.2H365.722V36H368.322V50H363.302L360.522 37.8H360.162V50H357.562ZM370.561 50V47.68H372.401V38.32H370.561V36H376.321C378.201 36 379.627 36.48 380.601 37.44C381.587 38.3867 382.081 39.8 382.081 41.68V44.32C382.081 46.2 381.587 47.62 380.601 48.58C379.627 49.5267 378.201 50 376.321 50H370.561ZM375.041 47.6H376.361C377.427 47.6 378.207 47.32 378.701 46.76C379.194 46.2 379.441 45.4133 379.441 44.4V41.6C379.441 40.5733 379.194 39.7867 378.701 39.24C378.207 38.68 377.427 38.4 376.361 38.4H375.041V47.6ZM350.206 76V64.4H346.126V62H356.926V64.4H352.846V76H350.206ZM363.598 76.28C361.838 76.28 360.438 75.8 359.398 74.84C358.358 73.8667 357.838 72.48 357.838 70.68V67.32C357.838 65.52 358.358 64.14 359.398 63.18C360.438 62.2067 361.838 61.72 363.598 61.72C365.358 61.72 366.758 62.2067 367.798 63.18C368.838 64.14 369.358 65.52 369.358 67.32V70.68C369.358 72.48 368.838 73.8667 367.798 74.84C366.758 75.8 365.358 76.28 363.598 76.28ZM363.598 73.92C364.585 73.92 365.351 73.6333 365.898 73.06C366.445 72.4867 366.718 71.72 366.718 70.76V67.24C366.718 66.28 366.445 65.5133 365.898 64.94C365.351 64.3667 364.585 64.08 363.598 64.08C362.625 64.08 361.858 64.3667 361.298 64.94C360.751 65.5133 360.478 66.28 360.478 67.24V70.76C360.478 71.72 360.751 72.4867 361.298 73.06C361.858 73.6333 362.625 73.92 363.598 73.92ZM329.486 102V88H338.486V90.4H332.126V93.74H337.926V96.14H332.126V99.6H338.606V102H329.486ZM343.16 102L339.6 88H342.32L345.28 100.3H345.56L348.52 88H351.24L347.68 102H343.16ZM352.924 102V88H361.924V90.4H355.564V93.74H361.364V96.14H355.564V99.6H362.044V102H352.924ZM363.998 102V88H369.018L371.798 100.2H372.158V88H374.758V102H369.738L366.958 89.8H366.598V102H363.998ZM380.636 102V90.4H376.556V88H387.356V90.4H383.276V102H380.636Z" fill="white"/>
<g filter="url(#filter3_d_792_3646)">
<path d="M420.914 89.2329C420.005 89.2433 419.075 89.191 418.144 89.076C408.266 87.8625 400.541 79.5464 400.028 69.5984C399.412 57.6524 408.914 47.7671 420.716 47.7671H420.768C423.674 47.7671 426.078 45.4972 426.078 42.5891V26.4589C426.078 20.2558 428.587 14.6384 432.643 10.5693C436.709 6.51054 442.323 4 448.522 4L536.192 4C536.281 4 536.294 4.12418 536.205 4.13832C536.12 4.15201 536.118 4.29296 536.204 4.30688C546.863 6.0412 555 15.2915 555 26.4589V110.541C555 122.947 544.954 133 532.557 133L448.532 133C436.134 133 426.089 122.947 426.089 110.541V94.4004C426.089 91.5447 423.768 89.2015 420.914 89.2329Z" fill="#2050F2"/>
<path d="M536.191 2L536.407 2.01074C536.872 2.05658 537.268 2.25066 537.574 2.52832C548.667 4.83661 557 14.6654 557 26.459V110.541C557 124.051 546.06 135 532.557 135L448.532 135C435.029 135 424.089 124.051 424.089 110.541V94.4004C424.089 92.633 422.652 91.2137 420.937 91.2324L420.936 91.2314C419.936 91.2429 418.917 91.1862 417.9 91.0605V91.0615C407.054 89.7293 398.593 80.6156 398.031 69.7012C397.355 56.6074 407.773 45.7676 420.716 45.7676H420.768C422.636 45.7676 424.078 44.3266 424.078 42.5889V26.459C424.078 19.7055 426.812 13.5861 431.227 9.15723L431.23 9.15332C435.656 4.73604 441.772 2.00006 448.521 2L536.191 2Z" stroke="#0E0F28" stroke-width="4"/>
</g>
<path d="M444.591 39V27.4H440.511V25H451.311V27.4H447.231V39H444.591ZM453.109 39V25H462.109V27.4H455.749V30.74H461.549V33.14H455.749V36.6H462.229V39H453.109ZM464.183 39V25H466.823V36.6H473.223V39H464.183ZM475.023 39V25H484.023V27.4H477.663V30.74H483.463V33.14H477.663V36.6H484.143V39H475.023ZM490.937 39.28C489.977 39.28 489.104 39.0667 488.317 38.64C487.544 38.2 486.924 37.5667 486.457 36.74C486.004 35.9 485.777 34.88 485.777 33.68V30.32C485.777 28.52 486.284 27.14 487.297 26.18C488.311 25.2067 489.684 24.72 491.417 24.72C493.137 24.72 494.464 25.18 495.397 26.1C496.344 27.0067 496.817 28.24 496.817 29.8V29.88H494.217V29.72C494.217 29.2267 494.111 28.78 493.897 28.38C493.697 27.98 493.391 27.6667 492.977 27.44C492.564 27.2 492.044 27.08 491.417 27.08C490.484 27.08 489.751 27.3667 489.217 27.94C488.684 28.5133 488.417 29.2933 488.417 30.28V33.72C488.417 34.6933 488.684 35.48 489.217 36.08C489.751 36.6667 490.497 36.96 491.457 36.96C492.417 36.96 493.117 36.7067 493.557 36.2C493.997 35.6933 494.217 35.0533 494.217 34.28V34.08H490.897V31.84H496.817V39H494.377V37.66H494.017C493.924 37.8867 493.771 38.1267 493.557 38.38C493.357 38.6333 493.051 38.8467 492.637 39.02C492.224 39.1933 491.657 39.28 490.937 39.28ZM499.34 39V25H505.42C506.3 25 507.066 25.1533 507.72 25.46C508.373 25.7667 508.88 26.2 509.24 26.76C509.6 27.32 509.78 27.98 509.78 28.74V28.98C509.78 29.82 509.58 30.5 509.18 31.02C508.78 31.54 508.286 31.92 507.7 32.16V32.52C508.233 32.5467 508.646 32.7333 508.94 33.08C509.233 33.4133 509.38 33.86 509.38 34.42V39H506.74V34.8C506.74 34.48 506.653 34.22 506.48 34.02C506.32 33.82 506.046 33.72 505.66 33.72H501.98V39H499.34ZM501.98 31.32H505.14C505.766 31.32 506.253 31.1533 506.6 30.82C506.96 30.4733 507.14 30.02 507.14 29.46V29.26C507.14 28.7 506.966 28.2533 506.62 27.92C506.273 27.5733 505.78 27.4 505.14 27.4H501.98V31.32ZM511.016 39L514.696 25H519.296L522.976 39H520.256L519.496 35.92H514.496L513.736 39H511.016ZM515.116 33.48H518.876L517.176 26.66H516.816L515.116 33.48ZM524.652 39V25H529.552L531.972 37.2H532.332L534.752 25H539.652V39H537.092V26.94H536.732L534.332 39H529.972L527.572 26.94H527.212V39H524.652ZM461.485 65L465.165 51H469.765L473.445 65H470.725L469.965 61.92H464.965L464.205 65H461.485ZM465.585 59.48H469.345L467.645 52.66H467.285L465.585 59.48ZM475.121 65V51H477.761V62.6H484.161V65H475.121ZM485.961 65V51H494.961V53.4H488.601V56.74H494.401V59.14H488.601V62.6H495.081V65H485.961ZM497.035 65V51H503.115C503.995 51 504.762 51.1533 505.415 51.46C506.068 51.7667 506.575 52.2 506.935 52.76C507.295 53.32 507.475 53.98 507.475 54.74V54.98C507.475 55.82 507.275 56.5 506.875 57.02C506.475 57.54 505.982 57.92 505.395 58.16V58.52C505.928 58.5467 506.342 58.7333 506.635 59.08C506.928 59.4133 507.075 59.86 507.075 60.42V65H504.435V60.8C504.435 60.48 504.348 60.22 504.175 60.02C504.015 59.82 503.742 59.72 503.355 59.72H499.675V65H497.035ZM499.675 57.32H502.835C503.462 57.32 503.948 57.1533 504.295 56.82C504.655 56.4733 504.835 56.02 504.835 55.46V55.26C504.835 54.7 504.662 54.2533 504.315 53.92C503.968 53.5733 503.475 53.4 502.835 53.4H499.675V57.32ZM512.677 65V53.4H508.597V51H519.397V53.4H515.317V65H512.677Z" fill="white"/>
<g clip-path="url(#clip1_792_3646)">
<path d="M488.258 107.794C487.427 106.845 487.637 105.789 488.3 104.853C490.379 101.912 495.169 98.2341 497.808 95.3412C498.243 94.8653 498.609 94.3023 499.049 93.8282C498.748 93.766 498.581 93.9827 498.355 94.1105C493.733 96.7353 488.565 101.399 483.983 103.562C479.837 105.519 476.582 103.1 472.669 101.956C471.904 101.535 471.79 100.591 472.359 99.9478L505.225 86.2291C507.222 85.4211 508.268 86.8543 507.941 88.7633L504.695 113.404C504.225 115.46 502.124 116.57 500.17 115.702L488.258 107.792V107.794Z" fill="#E4EAF2"/>
</g>
<defs>
<filter id="filter0_d_792_3646" x="0" y="0" width="163" height="141" filterUnits="userSpaceOnUse" color-interpolation-filters="sRGB">
<feFlood flood-opacity="0" result="BackgroundImageFix"/>
<feColorMatrix in="SourceAlpha" type="matrix" values="0 0 0 0 0 0 0 0 0 0 0 0 0 0 0 0 0 0 127 0" result="hardAlpha"/>
<feOffset dy="4"/>
<feComposite in2="hardAlpha" operator="out"/>
<feColorMatrix type="matrix" values="0 0 0 0 0.054902 0 0 0 0 0.0588235 0 0 0 0 0.156863 0 0 0 1 0"/>
<feBlend mode="normal" in2="BackgroundImageFix" result="effect1_dropShadow_792_3646"/>
<feBlend mode="normal" in="SourceGraphic" in2="effect1_dropShadow_792_3646" result="shape"/>
</filter>
<filter id="filter1_d_792_3646" x="132" y="0" width="163" height="141" filterUnits="userSpaceOnUse" color-interpolation-filters="sRGB">
<feFlood flood-opacity="0" result="BackgroundImageFix"/>
<feColorMatrix in="SourceAlpha" type="matrix" values="0 0 0 0 0 0 0 0 0 0 0 0 0 0 0 0 0 0 127 0" result="hardAlpha"/>
<feOffset dy="4"/>
<feComposite in2="hardAlpha" operator="out"/>
<feColorMatrix type="matrix" values="0 0 0 0 0.054902 0 0 0 0 0.0588235 0 0 0 0 0.156863 0 0 0 1 0"/>
<feBlend mode="normal" in2="BackgroundImageFix" result="effect1_dropShadow_792_3646"/>
<feBlend mode="normal" in="SourceGraphic" in2="effect1_dropShadow_792_3646" result="shape"/>
</filter>
<filter id="filter2_d_792_3646" x="264" y="0" width="163" height="141" filterUnits="userSpaceOnUse" color-interpolation-filters="sRGB">
<feFlood flood-opacity="0" result="BackgroundImageFix"/>
<feColorMatrix in="SourceAlpha" type="matrix" values="0 0 0 0 0 0 0 0 0 0 0 0 0 0 0 0 0 0 127 0" result="hardAlpha"/>
<feOffset dy="4"/>
<feComposite in2="hardAlpha" operator="out"/>
<feColorMatrix type="matrix" values="0 0 0 0 0.054902 0 0 0 0 0.0588235 0 0 0 0 0.156863 0 0 0 1 0"/>
<feBlend mode="normal" in2="BackgroundImageFix" result="effect1_dropShadow_792_3646"/>
<feBlend mode="normal" in="SourceGraphic" in2="effect1_dropShadow_792_3646" result="shape"/>
</filter>
<filter id="filter3_d_792_3646" x="396" y="0" width="163" height="141" filterUnits="userSpaceOnUse" color-interpolation-filters="sRGB">
<feFlood flood-opacity="0" result="BackgroundImageFix"/>
<feColorMatrix in="SourceAlpha" type="matrix" values="0 0 0 0 0 0 0 0 0 0 0 0 0 0 0 0 0 0 127 0" result="hardAlpha"/>
<feOffset dy="4"/>
<feComposite in2="hardAlpha" operator="out"/>
<feColorMatrix type="matrix" values="0 0 0 0 0.054902 0 0 0 0 0.0588235 0 0 0 0 0.156863 0 0 0 1 0"/>
<feBlend mode="normal" in2="BackgroundImageFix" result="effect1_dropShadow_792_3646"/>
<feBlend mode="normal" in="SourceGraphic" in2="effect1_dropShadow_792_3646" result="shape"/>
</filter>
<clipPath id="clip0_792_3646">
<rect width="36" height="36" fill="white" transform="translate(76 80)"/>
</clipPath>
<clipPath id="clip1_792_3646">
<rect width="36" height="30" fill="white" transform="translate(472 86)"/>
</clipPath>
</defs>
</svg>
