<?xml version="1.0" encoding="UTF-8"?>
<svg id="_圖層_1" data-name="圖層_1" xmlns="http://www.w3.org/2000/svg" version="1.1" xmlns:xlink="http://www.w3.org/1999/xlink" viewBox="0 0 559 177">
  <!-- Generator: Adobe Illustrator 29.5.1, SVG Export Plug-In . SVG Version: 2.1.0 Build 141)  -->
  <defs>
    <style>
      .st0 {
        fill: #fff;
      }

      .st1, .st2 {
        fill: none;
      }

      .st3 {
        fill: #e4eaf2;
      }

      .st4 {
        clip-path: url(#clippath-1);
      }

      .st2 {
        stroke: #0e0f28;
        stroke-width: 4px;
      }

      .st5 {
        fill: #2050f2;
      }

      .st6 {
        fill: #0e0f28;
      }

      .st7 {
        clip-path: url(#clippath);
      }
    </style>
    <clipPath id="clippath">
      <rect class="st1" x="76" y="80" width="36" height="36"/>
    </clipPath>
    <clipPath id="clippath-1">
      <rect class="st1" x="472" y="86" width="36" height="30"/>
    </clipPath>
  </defs>
  <path class="st6" d="M51.4,155.2c-.8,0-1.4-.1-2-.4-.6-.3-1-.7-1.4-1.2-.3-.5-.5-1.1-.5-1.8v-.4h1.8v.4c0,.6.2,1,.5,1.3.4.3.9.4,1.5.4s1.1-.1,1.4-.4c.3-.3.5-.6.5-1s0-.5-.2-.7c-.1-.2-.4-.3-.7-.4-.3-.1-.6-.2-1.1-.3h-.3c-.7-.2-1.3-.4-1.7-.6-.5-.2-.8-.5-1.1-.9-.3-.4-.4-.9-.4-1.5s.1-1.1.4-1.5c.3-.4.7-.8,1.2-1,.5-.2,1.1-.4,1.8-.4s1.3.1,1.9.4c.6.2,1,.6,1.3,1.1.3.5.5,1.1.5,1.8v.4h-1.8v-.4c0-.4,0-.7-.2-.9-.1-.2-.3-.4-.6-.5-.3-.1-.6-.2-1-.2-.6,0-1,.1-1.2.3-.3.2-.4.5-.4.9s0,.4.2.6c.1.2.3.3.6.4s.6.2,1,.3h.3c.7.2,1.3.4,1.8.6.5.2.9.5,1.2.9.3.4.4.9.4,1.5s-.2,1.1-.5,1.6c-.3.4-.7.8-1.3,1.1-.6.3-1.2.4-2,.4ZM50.5,156.6v-13h1.7v13h-1.7ZM60.2,155.2c-.8,0-1.5-.1-2.1-.4-.6-.3-1-.7-1.3-1.3-.3-.6-.4-1.2-.4-1.9v-6.4h1.8v6.4c0,.6.2,1.1.5,1.4.3.3.8.5,1.5.5s1.1-.2,1.5-.5c.3-.3.5-.8.5-1.4v-6.4h1.8v6.4c0,.7-.2,1.4-.5,1.9-.3.5-.7,1-1.3,1.3-.6.3-1.3.4-2.1.4ZM69.3,155.2c-.8,0-1.4-.1-2-.4-.6-.3-1-.7-1.4-1.2-.3-.5-.5-1.1-.5-1.8v-.4h1.8v.4c0,.6.2,1,.5,1.3.4.3.9.4,1.5.4s1.1-.1,1.4-.4c.3-.3.5-.6.5-1s0-.5-.2-.7c-.1-.2-.4-.3-.7-.4-.3-.1-.6-.2-1.1-.3h-.3c-.7-.2-1.3-.4-1.7-.6-.5-.2-.8-.5-1.1-.9-.3-.4-.4-.9-.4-1.5s.1-1.1.4-1.5c.3-.4.7-.8,1.2-1,.5-.2,1.1-.4,1.8-.4s1.3.1,1.9.4c.6.2,1,.6,1.3,1.1.3.5.5,1.1.5,1.8v.4h-1.8v-.4c0-.4,0-.7-.2-.9-.1-.2-.3-.4-.6-.5-.3-.1-.6-.2-1-.2-.6,0-1,.1-1.2.3-.3.2-.4.5-.4.9s0,.4.2.6c.1.2.3.3.6.4.3.1.6.2,1,.3h.3c.7.2,1.3.4,1.8.6.5.2.9.5,1.2.9.3.4.4.9.4,1.5s-.2,1.1-.5,1.6c-.3.4-.7.8-1.3,1.1-.6.3-1.2.4-2,.4ZM74,155v-1.6h1.3v-6.6h-1.3v-1.6h4c1.3,0,2.3.3,3,1,.7.7,1,1.7,1,3v1.8c0,1.3-.3,2.3-1,3-.7.7-1.7,1-3,1h-4ZM77.1,153.3h.9c.7,0,1.3-.2,1.6-.6.3-.4.5-.9.5-1.7v-2c0-.7-.2-1.3-.5-1.7-.3-.4-.9-.6-1.6-.6h-.9v6.4ZM87.3,155.2c-1.2,0-2.2-.3-2.9-1-.7-.7-1.1-1.7-1.1-2.9v-2.4c0-1.3.4-2.2,1.1-2.9.7-.7,1.7-1,2.9-1s2.1.3,2.8,1c.7.7,1,1.6,1,2.7h0c0,0-1.8,0-1.8,0h0c0-.7-.2-1.2-.5-1.6-.3-.4-.8-.6-1.5-.6s-1.2.2-1.5.6c-.4.4-.6.9-.6,1.6v2.4c0,.7.2,1.2.6,1.6.4.4.9.6,1.5.6s1.2-.2,1.5-.6c.3-.4.5-.9.5-1.4v-.3h1.8v.2c0,1.1-.3,2.1-1,2.7-.7.7-1.6,1-2.8,1ZM99.5,155.2c-.7,0-1.3-.1-1.9-.4-.6-.3-1-.7-1.3-1.2-.3-.5-.5-1.2-.5-1.9v-.2c0-.7.2-1.4.5-1.9.3-.5.8-.9,1.3-1.2.6-.3,1.2-.4,1.9-.4s1.3.1,1.9.4,1,.7,1.3,1.2.5,1.2.5,1.9v.2c0,.7-.2,1.4-.5,1.9s-.8.9-1.3,1.2-1.2.4-1.9.4ZM99.5,153.6c.5,0,1-.2,1.3-.5.4-.4.5-.9.5-1.5h0c0-.8-.2-1.3-.5-1.6-.3-.4-.8-.5-1.3-.5s-1,.2-1.3.5c-.4.3-.5.8-.5,1.5h0c0,.8.2,1.3.5,1.7.4.3.8.5,1.3.5ZM104.8,155v-6.9h1.7v.8h.3c.1-.3.3-.5.5-.6.2-.1.5-.2.8-.2h.8v1.6h-.9c-.4,0-.8.1-1.1.4-.3.2-.4.6-.4,1.1v3.9h-1.8ZM117.3,155.2c-.8,0-1.4-.1-2-.4-.6-.3-1-.7-1.4-1.2-.3-.5-.5-1.1-.5-1.8v-.4h1.8v.4c0,.6.2,1,.5,1.3.4.3.9.4,1.5.4s1.1-.1,1.4-.4c.3-.3.5-.6.5-1s0-.5-.2-.7c-.2-.2-.4-.3-.7-.4-.3-.1-.6-.2-1.1-.3h-.3c-.7-.2-1.3-.4-1.7-.6-.5-.2-.8-.5-1.1-.9-.3-.4-.4-.9-.4-1.5s.1-1.1.4-1.5c.3-.4.7-.8,1.2-1,.5-.2,1.1-.4,1.8-.4s1.3.1,1.9.4c.5.2,1,.6,1.3,1.1.3.5.5,1.1.5,1.8v.4h-1.8v-.4c0-.4,0-.7-.2-.9-.1-.2-.3-.4-.6-.5-.3-.1-.6-.2-1-.2-.6,0-1,.1-1.2.3-.3.2-.4.5-.4.9s0,.4.2.6c.1.2.3.3.6.4s.6.2,1,.3h.3c.7.2,1.3.4,1.8.6.5.2.9.5,1.2.9.3.4.4.9.4,1.5s-.2,1.1-.5,1.6c-.3.4-.7.8-1.3,1.1-.6.3-1.2.4-2,.4ZM116.4,156.6v-13h1.7v13h-1.7ZM125.8,155.2c-.8,0-1.4-.1-2-.4-.6-.3-1-.7-1.4-1.2-.3-.5-.5-1.1-.5-1.8v-.4h1.8v.4c0,.6.2,1,.5,1.3.4.3.9.4,1.5.4s1.1-.1,1.4-.4c.3-.3.5-.6.5-1s0-.5-.2-.7c-.2-.2-.4-.3-.7-.4-.3-.1-.6-.2-1.1-.3h-.3c-.7-.2-1.3-.4-1.7-.6-.5-.2-.8-.5-1.1-.9-.3-.4-.4-.9-.4-1.5s.1-1.1.4-1.5c.3-.4.7-.8,1.2-1,.5-.2,1.1-.4,1.8-.4s1.3.1,1.9.4c.6.2,1,.6,1.3,1.1.3.5.5,1.1.5,1.8v.4h-1.8v-.4c0-.4,0-.7-.2-.9-.1-.2-.3-.4-.6-.5-.3-.1-.6-.2-1-.2-.6,0-1,.1-1.2.3-.3.2-.4.5-.4.9s0,.4.2.6c.1.2.3.3.6.4.3.1.6.2,1,.3h.3c.7.2,1.3.4,1.8.6.5.2.9.5,1.2.9.3.4.4.9.4,1.5s-.2,1.1-.5,1.6c-.3.4-.7.8-1.3,1.1-.6.3-1.2.4-2,.4ZM134.6,155.2c-1.2,0-2.2-.3-2.9-1-.7-.7-1.1-1.7-1.1-2.9v-2.4c0-1.3.4-2.2,1.1-2.9.7-.7,1.7-1,2.9-1s2.2.3,2.9,1c.7.7,1.1,1.6,1.1,2.9v2.4c0,1.3-.4,2.2-1.1,2.9-.7.7-1.7,1-2.9,1ZM134.6,153.5c.7,0,1.2-.2,1.6-.6.4-.4.6-.9.6-1.6v-2.5c0-.7-.2-1.2-.6-1.6-.4-.4-.9-.6-1.6-.6s-1.2.2-1.6.6c-.4.4-.6.9-.6,1.6v2.5c0,.7.2,1.2.6,1.6.4.4.9.6,1.6.6ZM140.3,155v-9.8h1.8v8.1h4.5v1.7h-6.3ZM54.8,173.2c-.9,0-1.6-.2-2.2-.6-.6-.4-.9-1-1-1.7l1.6-.4c0,.3.2.6.3.8.2.2.4.3.6.4.2,0,.5.1.8.1.4,0,.7,0,.9-.2.2-.1.3-.3.3-.5s0-.4-.3-.5c-.2-.1-.5-.2-.9-.3h-.4c-.5-.2-.9-.3-1.3-.4-.4-.2-.7-.4-1-.7-.2-.3-.4-.7-.4-1.1,0-.7.3-1.2.8-1.6.5-.4,1.2-.6,2-.6s1.4.2,1.9.5c.5.3.8.8,1,1.4l-1.6.5c0-.4-.2-.6-.5-.8-.2-.1-.5-.2-.8-.2s-.6,0-.8.2c-.2.1-.3.3-.3.5s0,.4.3.5c.2.1.4.2.8.2h.4c.5.2,1,.3,1.4.4.4.1.8.4,1,.7.3.3.4.7.4,1.1,0,.7-.3,1.3-.8,1.7-.5.4-1.2.6-2.1.6ZM59.9,173l-1-6.9h1.8l.6,5.8h.3l.9-5.8h2.8l.9,5.8h.3l.6-5.8h1.8l-1,6.9h-2.9l-.9-5.8h-.3l-.9,5.8h-2.9ZM72.4,173.2c-.5,0-.9,0-1.3-.3-.4-.2-.7-.4-.9-.8-.2-.3-.3-.7-.3-1.2s.1-.9.3-1.2c.2-.3.6-.6,1-.7.4-.2.9-.3,1.4-.3h1.9v-.4c0-.3-.1-.6-.3-.8-.2-.2-.5-.3-1-.3s-.8.1-1,.3c-.2.2-.4.5-.4.8l-1.6-.5c.1-.4.3-.7.5-1,.3-.3.6-.5,1-.7.4-.2.9-.3,1.5-.3.9,0,1.6.2,2.2.7.5.5.8,1.1.8,2v2.6c0,.3.1.4.4.4h.6v1.5h-1.2c-.3,0-.6,0-.9-.3s-.3-.4-.3-.7h0s-.3,0-.3,0c0,.1-.1.3-.3.4-.1.2-.3.3-.6.5-.3.1-.7.2-1.1.2ZM72.7,171.8c.5,0,.9-.1,1.2-.4.3-.3.5-.6.5-1.1h0c0-.1-1.8-.1-1.8-.1-.3,0-.6,0-.8.2-.2.1-.3.3-.3.6s0,.5.3.6c.2.2.5.2.9.2ZM78.4,175.8v-9.7h1.7v.8h.3c.2-.3.4-.5.7-.7.3-.2.8-.3,1.4-.3s1.1.1,1.6.4c.5.3.9.7,1.1,1.2.3.5.4,1.2.4,1.9v.2c0,.8-.1,1.4-.4,1.9-.3.5-.7.9-1.1,1.2-.5.3-1,.4-1.6.4s-.8,0-1.1-.2c-.3,0-.5-.2-.7-.4-.2-.2-.3-.3-.4-.5h-.3v3.6h-1.8ZM82,171.7c.6,0,1-.2,1.4-.5.4-.4.5-.9.5-1.5h0c0-.8-.2-1.3-.5-1.7-.4-.4-.8-.5-1.4-.5s-1,.2-1.4.5c-.4.3-.5.9-.5,1.5h0c0,.8.2,1.3.5,1.7.4.3.8.5,1.4.5ZM93.5,173c-.5,0-.8-.1-1.1-.4-.3-.3-.4-.7-.4-1.1v-3.9h-1.7v-1.5h1.7v-2.2h1.8v2.2h1.9v1.5h-1.9v3.6c0,.3.1.4.4.4h1.3v1.5h-2ZM100.3,173.2c-.7,0-1.3-.1-1.9-.4-.6-.3-1-.7-1.3-1.2s-.5-1.2-.5-1.9v-.2c0-.7.2-1.4.5-1.9s.8-.9,1.3-1.2c.6-.3,1.2-.4,1.9-.4s1.3.1,1.9.4c.6.3,1,.7,1.3,1.2.3.5.5,1.2.5,1.9v.2c0,.7-.2,1.4-.5,1.9-.3.5-.8.9-1.3,1.2-.6.3-1.2.4-1.9.4ZM100.3,171.6c.5,0,1-.2,1.3-.5.4-.4.5-.9.5-1.5h0c0-.8-.2-1.3-.5-1.6-.3-.4-.8-.5-1.3-.5s-1,.2-1.3.5c-.4.3-.5.8-.5,1.5h0c0,.8.2,1.3.5,1.7.4.3.8.5,1.3.5ZM112.5,173.2c-.8,0-1.4-.1-2-.4-.6-.3-1-.7-1.4-1.2-.3-.5-.5-1.1-.5-1.8v-.4h1.8v.4c0,.6.2,1,.5,1.3.4.3.9.4,1.5.4s1.1-.1,1.4-.4c.3-.3.5-.6.5-1s0-.5-.2-.7c-.2-.2-.4-.3-.7-.4-.3-.1-.6-.2-1.1-.3h-.3c-.7-.2-1.3-.4-1.7-.6-.5-.2-.8-.5-1.1-.9-.3-.4-.4-.9-.4-1.5s.1-1.1.4-1.5c.3-.4.7-.8,1.2-1,.5-.2,1.1-.4,1.8-.4s1.3.1,1.9.4c.6.2,1,.6,1.3,1.1.3.5.5,1.1.5,1.8v.4h-1.8v-.4c0-.4,0-.7-.2-.9-.1-.2-.3-.4-.6-.5-.3-.1-.6-.2-1-.2-.6,0-1,.1-1.2.3-.3.2-.4.5-.4.9s0,.4.2.6c.1.2.3.3.6.4s.6.2,1,.3h.3c.7.2,1.3.4,1.8.6.5.2.9.5,1.2.9.3.4.4.9.4,1.5s-.2,1.1-.5,1.6c-.3.4-.7.8-1.3,1.1-.6.3-1.2.4-2,.4ZM111.6,174.6v-13h1.7v13h-1.7ZM120.4,173.2c-1,0-1.8-.3-2.4-.8-.6-.6-.9-1.3-.9-2.3v-.9h1.8v.9c0,.4.1.8.4,1,.2.2.6.4,1,.4s.7-.1,1-.4c.2-.2.3-.6.3-1v-5.2h-1.7v-1.7h4.6v1.7h-1.1v5.2c0,1-.3,1.8-.8,2.3-.6.5-1.3.8-2.3.8ZM129.9,173.2c-.8,0-1.5-.1-2.1-.4-.6-.3-1-.7-1.3-1.3-.3-.6-.4-1.2-.4-1.9v-6.4h1.8v6.4c0,.6.2,1.1.5,1.4.3.3.8.5,1.5.5s1.1-.2,1.5-.5c.3-.3.5-.8.5-1.4v-6.4h1.8v6.4c0,.7-.2,1.4-.5,1.9-.3.5-.7,1-1.3,1.3-.6.3-1.3.4-2.1.4ZM135.5,173v-9.8h4c.6,0,1.2.1,1.6.4.5.2.8.6,1.1,1,.3.4.4,1,.4,1.6v.2c0,.6-.1,1.1-.4,1.6-.3.4-.6.8-1.1,1.1-.5.2-1,.4-1.6.4h-2.2v3.6h-1.8ZM137.3,167.7h2c.4,0,.8-.1,1.1-.4.3-.2.4-.6.4-1h0c0-.6-.1-.9-.4-1.1-.3-.2-.6-.4-1.1-.4h-2v2.9Z"/>
  <g>
    <path class="st5" d="M24.9,89.2c-.9,0-1.8,0-2.8-.2-9.9-1.2-17.6-9.5-18.1-19.5-.6-11.9,8.9-21.8,20.7-21.8h0c2.9,0,5.3-2.3,5.3-5.2v-16.1c0-6.2,2.5-11.8,6.6-15.9,4.1-4.1,9.7-6.6,15.9-6.6h87.7c0,0,.1.1,0,.1,0,0,0,.2,0,.2,10.7,1.7,18.8,11,18.8,22.2v84.1c0,12.4-10,22.5-22.4,22.5H52.5c-12.4,0-22.4-10.1-22.4-22.5v-16.1c0-2.9-2.3-5.2-5.2-5.2Z"/>
    <path class="st2" d="M140.2,2h.2c.5,0,.9.3,1.2.5,11.1,2.3,19.4,12.1,19.4,23.9v84.1c0,13.5-10.9,24.5-24.4,24.5H52.5c-13.5,0-24.4-10.9-24.4-24.5v-16.1c0-1.8-1.4-3.2-3.2-3.2h0c-1,0-2,0-3-.2h0c-10.8-1.3-19.3-10.4-19.9-21.4-.7-13.1,9.7-23.9,22.7-23.9h0c1.9,0,3.3-1.4,3.3-3.2v-16.1c0-6.8,2.7-12.9,7.1-17.3h0c4.4-4.4,10.5-7.2,17.3-7.2h87.7Z"/>
  </g>
  <g class="st7">
    <g>
      <path class="st3" d="M101.2,114.5c-2.8-10.1-14.7-16.7-24.8-14.6-1.3-2.4.7-3.1,2.8-3.6,8.8-2.1,22.2,6,24.3,15,.5,2.1.2,3-2.2,3.1h0Z"/>
      <path class="st3" d="M107,111.2c-1.5-6.2-5.5-10.7-10.8-14-6-3.8-12.6-5.6-19.7-3.9,1.7-4.7,8.1-3.7,12-2.8,5.9,1.4,11.4,4.6,15.4,9.1,2.3,2.6,6.2,8.4,3.1,11.5Z"/>
      <path class="st3" d="M98.3,115.8c-1-.2-2.2.5-3.1.1-.4-.2-1.7-2.2-2.2-2.8-3.8-4.3-8.9-6.6-14.6-6.9-.6-.2-1.6-2.8-1.5-3,5.5-1.8,12,.8,16.2,4.4,2.4,2.1,4.8,5.1,5.1,8.3h0Z"/>
      <path class="st3" d="M111.6,103.1c-1.2-1.6-2.2-3.3-3.5-4.9-5.3-6.5-12.7-10.8-21.1-12.1l-5.8-.7c5.2-2.9,11.7-.9,16.6,1.5,5,2.4,10.1,6.4,12.5,11.2.7,1.5,1.5,3.3,1.3,5h0Z"/>
      <path class="st3" d="M112,93.3c-5.8-6.4-13.2-11-21.8-12.6,3.4-1.3,7.5-.7,10.8.6,5.2,2,9.6,6.6,10.9,12h0Z"/>
      <path class="st3" d="M92.1,116c-4.8-.9-9.4-3.2-12.2-7.3,2.4-.1,4.9.9,6.9,2.1,2,1.2,4.5,3,5.3,5.2h0Z"/>
    </g>
  </g>
  <path class="st0" d="M60.6,39.3c-1.4,0-2.6-.4-3.4-1.2-.8-.8-1.3-1.9-1.3-3.3v-1.3h2.6v1.3c0,.6.2,1.1.5,1.5.3.3.8.5,1.5.5s1-.2,1.4-.5c.3-.3.5-.8.5-1.5v-7.4h-2.4v-2.4h6.6v2.4h-1.6v7.4c0,1.5-.4,2.6-1.2,3.3-.8.8-1.9,1.1-3.2,1.1ZM74.2,39.3c-1.1,0-2.1-.2-3-.6-.8-.4-1.4-1-1.9-1.8-.4-.8-.6-1.7-.6-2.8v-9.1h2.6v9.2c0,.9.2,1.5.7,2,.5.5,1.2.7,2.1.7s1.6-.2,2.1-.7c.5-.5.7-1.2.7-2v-9.2h2.6v9.1c0,1.1-.2,2-.7,2.8-.4.8-1.1,1.4-1.9,1.8-.8.4-1.8.6-2.9.6ZM82.2,39v-14h5.8c.9,0,1.7.2,2.3.5.7.3,1.2.8,1.6,1.5.4.6.6,1.4.6,2.3v.3c0,.9-.2,1.6-.6,2.3-.4.6-.9,1.1-1.6,1.5-.7.3-1.4.5-2.3.5h-3.1v5.1h-2.6ZM84.9,31.5h2.9c.6,0,1.1-.2,1.5-.5.4-.3.6-.8.6-1.4v-.2c0-.6-.2-1.1-.6-1.4-.4-.3-.9-.5-1.5-.5h-2.9v4.1ZM94.3,39v-14h2.6v14h-2.6ZM102.8,39v-11.6h-4.1v-2.4h10.8v2.4h-4.1v11.6h-2.6ZM111.3,39v-14h9v2.4h-6.4v3.3h5.8v2.4h-5.8v3.5h6.5v2.4h-9.1ZM122.4,39v-14h6.1c.9,0,1.6.2,2.3.5.7.3,1.2.7,1.5,1.3s.5,1.2.5,2v.2c0,.8-.2,1.5-.6,2s-.9.9-1.5,1.1v.4c.5,0,.9.2,1.2.6.3.3.4.8.4,1.3v4.6h-2.6v-4.2c0-.3,0-.6-.3-.8-.2-.2-.4-.3-.8-.3h-3.7v5.3h-2.6ZM125.1,31.3h3.2c.6,0,1.1-.2,1.5-.5.4-.3.5-.8.5-1.4v-.2c0-.6-.2-1-.5-1.3-.3-.3-.8-.5-1.5-.5h-3.2v3.9ZM73.4,65.3c-1.1,0-2-.2-2.9-.6-.8-.4-1.5-.9-1.9-1.7-.5-.7-.7-1.6-.7-2.6v-.6h2.6v.6c0,.8.3,1.5.8,1.9.5.4,1.2.6,2.1.6s1.6-.2,2-.5c.5-.4.7-.8.7-1.4s-.1-.7-.3-.9c-.2-.2-.5-.4-1-.6-.4-.2-.9-.3-1.5-.4h-.5c-1-.3-1.8-.6-2.5-.9-.7-.3-1.2-.8-1.6-1.3-.4-.5-.5-1.2-.5-2.1s.2-1.6.6-2.2c.4-.6,1-1.1,1.7-1.4.7-.3,1.6-.5,2.6-.5s1.9.2,2.7.5c.8.3,1.4.8,1.8,1.5.5.7.7,1.5.7,2.5v.6h-2.6v-.6c0-.5-.1-1-.3-1.3-.2-.3-.5-.6-.9-.7-.4-.2-.8-.2-1.4-.2-.8,0-1.4.2-1.8.5-.4.3-.6.7-.6,1.2s0,.6.3.9c.2.2.5.4.8.6s.8.3,1.4.4h.5c1,.3,1.9.6,2.6.9.7.3,1.3.8,1.7,1.3.4.5.6,1.2.6,2.1s-.2,1.6-.7,2.3c-.4.6-1,1.1-1.8,1.5-.8.4-1.7.5-2.8.5ZM81.8,65l-1.8-14h2.6l1.4,12.2h.4l1.8-12.2h4.6l1.8,12.2h.4l1.4-12.2h2.6l-1.8,14h-4.6l-1.8-12.4h-.4l-1.8,12.4h-4.6ZM97.4,65l3.7-14h4.6l3.7,14h-2.7l-.8-3.1h-5l-.8,3.1h-2.7ZM101.4,59.5h3.8l-1.7-6.8h-.4l-1.7,6.8ZM111,65v-14h5.8c.9,0,1.7.2,2.3.5.7.3,1.2.8,1.6,1.5.4.6.6,1.4.6,2.3v.3c0,.9-.2,1.6-.6,2.3-.4.6-.9,1.1-1.6,1.5-.7.3-1.4.5-2.3.5h-3.1v5.1h-2.6ZM113.6,57.5h2.9c.6,0,1.1-.2,1.5-.5.4-.3.6-.8.6-1.4v-.2c0-.6-.2-1.1-.6-1.4-.4-.3-.9-.5-1.5-.5h-2.9v4.1Z"/>
  <g>
    <path class="st5" d="M156.9,89.2c-.9,0-1.8,0-2.8-.2-9.9-1.2-17.6-9.5-18.1-19.5-.6-11.9,8.9-21.8,20.7-21.8h0c2.9,0,5.3-2.3,5.3-5.2v-16.1c0-6.2,2.5-11.8,6.6-15.9,4.1-4.1,9.7-6.6,15.9-6.6h87.7c0,0,.1.1,0,.1,0,0,0,.2,0,.2,10.7,1.7,18.8,11,18.8,22.2v84.1c0,12.4-10,22.5-22.4,22.5h-84c-12.4,0-22.4-10.1-22.4-22.5v-16.1c0-2.9-2.3-5.2-5.2-5.2Z"/>
    <path class="st2" d="M272.2,2h.2c.5,0,.9.3,1.2.5,11.1,2.3,19.4,12.1,19.4,23.9v84.1c0,13.5-10.9,24.5-24.4,24.5h-84c-13.5,0-24.4-10.9-24.4-24.5v-16.1c0-1.8-1.4-3.2-3.2-3.2h0c-1,0-2,0-3-.2h0c-10.8-1.3-19.3-10.4-19.9-21.4-.7-13.1,9.7-23.9,22.7-23.9h0c1.9,0,3.3-1.4,3.3-3.2v-16.1c0-6.8,2.7-12.9,7.1-17.3h0c4.4-4.4,10.5-7.2,17.3-7.2h87.7Z"/>
  </g>
  <path class="st0" d="M200.1,50v-2.3h1.8v-9.4h-1.8v-2.3h5.8c1.9,0,3.3.5,4.3,1.4,1,.9,1.5,2.4,1.5,4.2v2.6c0,1.9-.5,3.3-1.5,4.3-1,.9-2.4,1.4-4.3,1.4h-5.8ZM204.6,47.6h1.3c1.1,0,1.8-.3,2.3-.8.5-.6.7-1.3.7-2.4v-2.8c0-1-.2-1.8-.7-2.4-.5-.6-1.3-.8-2.3-.8h-1.3v9.2ZM213.8,50v-14h6.1c.9,0,1.6.2,2.3.5.7.3,1.2.7,1.5,1.3.4.6.5,1.2.5,2v.2c0,.8-.2,1.5-.6,2-.4.5-.9.9-1.5,1.1v.4c.5,0,.9.2,1.2.6.3.3.4.8.4,1.3v4.6h-2.6v-4.2c0-.3,0-.6-.3-.8-.2-.2-.4-.3-.8-.3h-3.7v5.3h-2.6ZM216.4,42.3h3.2c.6,0,1.1-.2,1.5-.5.4-.3.5-.8.5-1.4v-.2c0-.6-.2-1-.5-1.3-.3-.3-.8-.5-1.5-.5h-3.2v3.9ZM226.4,50v-14h2.6v14h-2.6ZM231.7,50v-14h8.8v2.4h-6.2v3.4h5.7v2.4h-5.7v5.8h-2.6ZM245.6,50v-11.6h-4.1v-2.4h10.8v2.4h-4.1v11.6h-2.6ZM177.5,102v-14h5.8c.9,0,1.7.2,2.3.5.7.3,1.2.8,1.6,1.5.4.6.6,1.4.6,2.3v.3c0,.9-.2,1.6-.6,2.3-.4.6-.9,1.1-1.6,1.5-.7.3-1.4.5-2.3.5h-3.1v5.1h-2.6ZM180.2,94.5h2.9c.6,0,1.1-.2,1.5-.5.4-.3.6-.8.6-1.4v-.2c0-.6-.2-1.1-.6-1.4-.4-.3-.9-.5-1.5-.5h-2.9v4.1ZM189.6,102v-14h6.1c.9,0,1.6.2,2.3.5.7.3,1.2.7,1.5,1.3.4.6.5,1.2.5,2v.2c0,.8-.2,1.5-.6,2-.4.5-.9.9-1.5,1.1v.4c.5,0,.9.2,1.2.6.3.3.4.8.4,1.3v4.6h-2.6v-4.2c0-.3,0-.6-.3-.8-.2-.2-.4-.3-.8-.3h-3.7v5.3h-2.6ZM192.2,94.3h3.2c.6,0,1.1-.2,1.5-.5.4-.3.5-.8.5-1.4v-.2c0-.6-.2-1-.5-1.3-.3-.3-.8-.5-1.5-.5h-3.2v3.9ZM207.7,102.3c-1.8,0-3.2-.5-4.2-1.4-1-1-1.6-2.4-1.6-4.2v-3.4c0-1.8.5-3.2,1.6-4.1,1-1,2.4-1.5,4.2-1.5s3.2.5,4.2,1.5c1,1,1.6,2.3,1.6,4.1v3.4c0,1.8-.5,3.2-1.6,4.2-1,1-2.4,1.4-4.2,1.4ZM207.7,99.9c1,0,1.8-.3,2.3-.9.5-.6.8-1.3.8-2.3v-3.5c0-1-.3-1.7-.8-2.3-.5-.6-1.3-.9-2.3-.9s-1.7.3-2.3.9c-.5.6-.8,1.3-.8,2.3v3.5c0,1,.3,1.7.8,2.3.6.6,1.3.9,2.3.9ZM218.4,102v-11.6h-4.1v-2.4h10.8v2.4h-4.1v11.6h-2.6ZM231.8,102.3c-1.8,0-3.2-.5-4.2-1.4-1-1-1.6-2.4-1.6-4.2v-3.4c0-1.8.5-3.2,1.6-4.1,1-1,2.4-1.5,4.2-1.5s3.2.5,4.2,1.5c1,1,1.6,2.3,1.6,4.1v3.4c0,1.8-.5,3.2-1.6,4.2-1,1-2.4,1.4-4.2,1.4ZM231.8,99.9c1,0,1.8-.3,2.3-.9.5-.6.8-1.3.8-2.3v-3.5c0-1-.3-1.7-.8-2.3-.5-.6-1.3-.9-2.3-.9s-1.7.3-2.3.9c-.5.6-.8,1.3-.8,2.3v3.5c0,1,.3,1.7.8,2.3.6.6,1.3.9,2.3.9ZM245.2,102.3c-1.7,0-3.1-.5-4.1-1.4-1-1-1.5-2.4-1.5-4.2v-3.4c0-1.8.5-3.2,1.5-4.1,1-1,2.4-1.5,4.1-1.5s3,.5,4,1.4c.9.9,1.4,2.2,1.4,3.9h0c0,.1-2.6.1-2.6.1v-.2c0-.8-.2-1.5-.7-2-.5-.5-1.2-.8-2.1-.8s-1.7.3-2.2.9c-.5.6-.8,1.4-.8,2.3v3.4c0,1,.3,1.8.8,2.3.5.6,1.3.9,2.2.9s1.6-.3,2.1-.8c.5-.5.7-1.2.7-2v-.4h2.6v.3c0,1.6-.5,2.9-1.4,3.9-.9.9-2.3,1.4-4,1.4ZM258.2,102.3c-1.8,0-3.2-.5-4.2-1.4-1-1-1.6-2.4-1.6-4.2v-3.4c0-1.8.5-3.2,1.6-4.1,1-1,2.4-1.5,4.2-1.5s3.2.5,4.2,1.5c1,1,1.6,2.3,1.6,4.1v3.4c0,1.8-.5,3.2-1.6,4.2-1,1-2.4,1.4-4.2,1.4ZM258.2,99.9c1,0,1.8-.3,2.3-.9.5-.6.8-1.3.8-2.3v-3.5c0-1-.3-1.7-.8-2.3-.5-.6-1.3-.9-2.3-.9s-1.7.3-2.3.9c-.5.6-.8,1.3-.8,2.3v3.5c0,1,.3,1.7.8,2.3.6.6,1.3.9,2.3.9ZM266.3,102v-14h2.6v11.6h6.4v2.4h-9Z"/>
  <path class="st6" d="M202.4,155.2c-.8,0-1.4-.1-2-.4-.6-.3-1-.7-1.4-1.2-.3-.5-.5-1.1-.5-1.8v-.4h1.8v.4c0,.6.2,1,.5,1.3.4.3.9.4,1.5.4s1.1-.1,1.4-.4c.3-.3.5-.6.5-1s0-.5-.2-.7c-.2-.2-.4-.3-.7-.4-.3-.1-.6-.2-1.1-.3h-.3c-.7-.2-1.3-.4-1.7-.6-.5-.2-.8-.5-1.1-.9-.3-.4-.4-.9-.4-1.5s.1-1.1.4-1.5c.3-.4.7-.8,1.2-1,.5-.2,1.1-.4,1.8-.4s1.3.1,1.9.4c.6.2,1,.6,1.3,1.1.3.5.5,1.1.5,1.8v.4h-1.8v-.4c0-.4,0-.7-.2-.9-.1-.2-.3-.4-.6-.5-.3-.1-.6-.2-1-.2-.6,0-1,.1-1.2.3-.3.2-.4.5-.4.9s0,.4.2.6c.1.2.3.3.6.4s.6.2,1,.3h.3c.7.2,1.3.4,1.8.6.5.2.9.5,1.2.9.3.4.4.9.4,1.5s-.2,1.1-.5,1.6c-.3.4-.7.8-1.3,1.1-.6.3-1.2.4-2,.4ZM207.5,155v-9.8h1.8v4h3.6v-4h1.8v9.8h-1.8v-4.1h-3.6v4.1h-1.8ZM220.5,155.2c-1.2,0-2.2-.3-2.9-1-.7-.7-1.1-1.7-1.1-2.9v-2.4c0-1.3.4-2.2,1.1-2.9.7-.7,1.7-1,2.9-1s2.2.3,2.9,1c.7.7,1.1,1.6,1.1,2.9v2.4c0,1.3-.4,2.2-1.1,2.9-.7.7-1.7,1-2.9,1ZM220.5,153.5c.7,0,1.2-.2,1.6-.6.4-.4.6-.9.6-1.6v-2.5c0-.7-.2-1.2-.6-1.6-.4-.4-.9-.6-1.6-.6s-1.2.2-1.6.6c-.4.4-.6.9-.6,1.6v2.5c0,.7.2,1.2.6,1.6.4.4.9.6,1.6.6ZM226.2,155v-9.8h4.3c.6,0,1.2.1,1.6.3.5.2.8.5,1.1.9.3.4.4.9.4,1.4v.2c0,.6-.1,1.1-.4,1.4s-.6.6-1,.8v.3c.4,0,.7.1.9.4.2.2.3.5.3.9v3.2h-1.8v-2.9c0-.2,0-.4-.2-.5-.1-.1-.3-.2-.6-.2h-2.6v3.7h-1.8ZM228,149.6h2.2c.4,0,.8-.1,1-.3.3-.2.4-.6.4-1h0c0-.5-.1-.8-.4-1.1-.2-.2-.6-.4-1-.4h-2.2v2.7ZM237.1,155v-8.1h-2.9v-1.7h7.6v1.7h-2.9v8.1h-1.8ZM248.9,155v-8.5h-.3l-1.3,3.1h-1.9l2-4.4h3.2v9.8h-1.8ZM252,155l2.5-3.5-2.5-3.4h2l1.6,2.3h.3l1.6-2.3h2l-2.5,3.4,2.5,3.5h-2.1l-1.6-2.3h-.3l-1.6,2.3h-2.1ZM187,173.2c-1,0-1.8-.3-2.4-.8-.6-.6-.9-1.3-.9-2.3v-.9h1.8v.9c0,.4.1.8.4,1,.2.2.6.4,1,.4s.7-.1,1-.4c.2-.2.4-.6.4-1v-5.2h-1.7v-1.7h4.6v1.7h-1.1v5.2c0,1-.3,1.8-.8,2.3-.6.5-1.3.8-2.3.8ZM196.5,173.2c-.8,0-1.5-.1-2.1-.4-.6-.3-1-.7-1.3-1.3-.3-.6-.4-1.2-.4-1.9v-6.4h1.8v6.4c0,.6.2,1.1.5,1.4.3.3.8.5,1.5.5s1.1-.2,1.5-.5c.3-.3.5-.8.5-1.4v-6.4h1.8v6.4c0,.7-.2,1.4-.5,1.9-.3.5-.7,1-1.3,1.3-.6.3-1.3.4-2.1.4ZM202.1,173v-9.8h4c.6,0,1.2.1,1.6.4.5.2.8.6,1.1,1,.3.4.4,1,.4,1.6v.2c0,.6-.1,1.1-.4,1.6-.3.4-.6.8-1.1,1.1-.5.2-1,.4-1.6.4h-2.2v3.6h-1.8ZM204,167.7h2c.4,0,.8-.1,1.1-.4.3-.2.4-.6.4-1h0c0-.6-.1-.9-.4-1.1-.3-.2-.6-.4-1.1-.4h-2v2.9ZM216.8,173c-.5,0-.8-.1-1.1-.4-.3-.3-.4-.7-.4-1.1v-3.9h-1.7v-1.5h1.7v-2.2h1.8v2.2h1.9v1.5h-1.9v3.6c0,.3.1.4.4.4h1.3v1.5h-2ZM223.6,173.2c-.7,0-1.3-.1-1.9-.4-.6-.3-1-.7-1.3-1.2-.3-.5-.5-1.2-.5-1.9v-.2c0-.7.2-1.4.5-1.9.3-.5.8-.9,1.3-1.2.6-.3,1.2-.4,1.9-.4s1.3.1,1.9.4c.6.3,1,.7,1.3,1.2.3.5.5,1.2.5,1.9v.2c0,.7-.2,1.4-.5,1.9-.3.5-.8.9-1.3,1.2-.6.3-1.2.4-1.9.4ZM223.6,171.6c.5,0,1-.2,1.3-.5.4-.4.5-.9.5-1.5h0c0-.8-.2-1.3-.5-1.6-.3-.4-.8-.5-1.3-.5s-1,.2-1.3.5c-.4.3-.5.8-.5,1.5h0c0,.8.2,1.3.5,1.7.4.3.8.5,1.3.5ZM232.4,173v-9.8h1.8v4h3.6v-4h1.8v9.8h-1.8v-4.1h-3.6v4.1h-1.8ZM241.6,173v-9.8h6.3v1.7h-4.5v2.3h4.1v1.7h-4.1v2.4h4.5v1.7h-6.4ZM249.1,173v-1.6h1.3v-6.6h-1.3v-1.6h4c1.3,0,2.3.3,3,1,.7.7,1,1.7,1,3v1.8c0,1.3-.3,2.3-1,3-.7.7-1.7,1-3,1h-4ZM252.2,171.3h.9c.7,0,1.3-.2,1.6-.6.3-.4.5-.9.5-1.7v-2c0-.7-.2-1.3-.5-1.7-.3-.4-.9-.6-1.6-.6h-.9v6.4ZM262,173.2c-.7,0-1.3-.1-1.8-.4-.5-.3-1-.8-1.3-1.3-.3-.6-.5-1.3-.5-2.1v-2.4c0-1.3.4-2.2,1.1-2.9.7-.7,1.7-1,2.9-1s2.1.3,2.8,1c.7.6,1,1.5,1,2.6h0c0,0-1.8,0-1.8,0h0c0-.5,0-.8-.2-1.1-.1-.3-.4-.5-.6-.7-.3-.2-.7-.3-1.1-.3-.7,0-1.2.2-1.5.6-.4.4-.6.9-.6,1.6v2.4c0,.7.2,1.2.6,1.7.4.4.9.6,1.6.6s1.2-.2,1.5-.5c.3-.4.5-.8.5-1.3h0c0-.1-2.3-.1-2.3-.1v-1.6h4.1v5h-1.7v-.9h-.3c0,.2-.2.3-.3.5-.1.2-.4.3-.6.4-.3.1-.7.2-1.2.2ZM267.9,173v-9.8h6.3v1.7h-4.5v2.3h4.1v1.7h-4.1v2.4h4.5v1.7h-6.4Z"/>
  <path class="st6" d="M437.3,155v-9.8h4.3c.6,0,1.2.1,1.6.3.5.2.8.5,1.1.9.3.4.4.9.4,1.4v.2c0,.6-.1,1.1-.4,1.4s-.6.6-1,.8v.3c.4,0,.7.1.9.4.2.2.3.5.3.9v3.2h-1.8v-2.9c0-.2,0-.4-.2-.5-.1-.1-.3-.2-.6-.2h-2.6v3.7h-1.8ZM439.1,149.6h2.2c.4,0,.8-.1,1-.3.3-.2.4-.6.4-1h0c0-.5-.1-.8-.4-1.1-.2-.2-.6-.4-1-.4h-2.2v2.7ZM446.1,155v-9.8h6.3v1.7h-4.5v2.3h4.1v1.7h-4.1v2.4h4.5v1.7h-6.4ZM453.2,155l2.6-9.8h3.2l2.6,9.8h-1.9l-.5-2.2h-3.5l-.5,2.2h-1.9ZM456.1,151.1h2.6l-1.2-4.8h-.3l-1.2,4.8ZM462.7,155v-9.8h1.8v8.1h4.5v1.7h-6.3ZM475.3,155v-8.1h-2.9v-1.7h7.6v1.7h-2.9v8.1h-1.8ZM481.3,155v-9.8h1.8v9.8h-1.8ZM485,155v-9.8h3.4l1.7,8.5h.3l1.7-8.5h3.4v9.8h-1.8v-8.4h-.3l-1.7,8.4h-3.1l-1.7-8.4h-.3v8.4h-1.8ZM497.3,155v-9.8h6.3v1.7h-4.5v2.3h4.1v1.7h-4.1v2.4h4.5v1.7h-6.4ZM507.8,155l2.6-9.8h3.2l2.6,9.8h-1.9l-.5-2.2h-3.5l-.5,2.2h-1.9ZM510.6,151.1h2.6l-1.2-4.8h-.3l-1.2,4.8ZM517.3,155v-9.8h1.8v8.1h4.5v1.7h-6.3ZM524.9,155v-9.8h6.3v1.7h-4.5v2.3h4.1v1.7h-4.1v2.4h4.5v1.7h-6.4ZM532.7,155v-9.8h4.3c.6,0,1.2.1,1.6.3.5.2.8.5,1.1.9.3.4.4.9.4,1.4v.2c0,.6-.1,1.1-.4,1.4-.3.4-.6.6-1,.8v.3c.4,0,.7.1.9.4.2.2.3.5.3.9v3.2h-1.8v-2.9c0-.2,0-.4-.2-.5-.1-.1-.3-.2-.6-.2h-2.6v3.7h-1.8ZM534.5,149.6h2.2c.4,0,.8-.1,1-.3.3-.2.4-.6.4-1h0c0-.5-.1-.8-.4-1.1-.2-.2-.6-.4-1-.4h-2.2v2.7ZM543.6,155v-8.1h-2.9v-1.7h7.6v1.7h-2.9v8.1h-1.8Z"/>
  <g>
    <path class="st5" d="M288.9,89.2c-.9,0-1.8,0-2.8-.2-9.9-1.2-17.6-9.5-18.1-19.5-.6-11.9,8.9-21.8,20.7-21.8h0c2.9,0,5.3-2.3,5.3-5.2v-16.1c0-6.2,2.5-11.8,6.6-15.9,4.1-4.1,9.7-6.6,15.9-6.6h87.7c0,0,.1.1,0,.1,0,0,0,.2,0,.2,10.7,1.7,18.8,11,18.8,22.2v84.1c0,12.4-10,22.5-22.4,22.5h-84c-12.4,0-22.4-10.1-22.4-22.5v-16.1c0-2.9-2.3-5.2-5.2-5.2Z"/>
    <path class="st2" d="M404.2,2h.2c.5,0,.9.3,1.2.5,11.1,2.3,19.4,12.1,19.4,23.9v84.1c0,13.5-10.9,24.5-24.4,24.5h-84c-13.5,0-24.4-10.9-24.4-24.5v-16.1c0-1.8-1.4-3.2-3.2-3.2h0c-1,0-2,0-3-.2h0c-10.8-1.3-19.3-10.4-19.9-21.4-.7-13.1,9.7-23.9,22.7-23.9h0c1.9,0,3.3-1.4,3.3-3.2v-16.1c0-6.8,2.7-12.9,7.1-17.3h0c4.4-4.4,10.5-7.2,17.3-7.2h87.7Z"/>
  </g>
  <path class="st0" d="M339.2,50.3c-1.1,0-2-.2-2.9-.6s-1.5-.9-1.9-1.7c-.5-.7-.7-1.6-.7-2.6v-.6h2.6v.6c0,.8.3,1.5.8,1.9.5.4,1.2.6,2.1.6s1.6-.2,2-.5c.5-.4.7-.8.7-1.4s-.1-.7-.3-.9c-.2-.2-.5-.4-1-.6-.4-.2-.9-.3-1.5-.4h-.5c-1-.3-1.8-.6-2.5-.9-.7-.3-1.2-.8-1.6-1.3-.4-.5-.5-1.2-.5-2.1s.2-1.6.6-2.2c.4-.6,1-1.1,1.7-1.4.7-.3,1.6-.5,2.6-.5s1.9.2,2.7.5c.8.3,1.4.8,1.8,1.5.5.7.7,1.5.7,2.5v.6h-2.6v-.6c0-.5-.1-1-.3-1.3-.2-.3-.5-.6-.9-.7-.4-.2-.8-.2-1.4-.2-.8,0-1.4.2-1.8.5-.4.3-.6.7-.6,1.2s0,.6.3.9c.2.2.5.4.8.6.4.2.8.3,1.4.4h.5c1,.3,1.9.6,2.6.9.7.3,1.3.8,1.7,1.3.4.5.6,1.2.6,2.1s-.2,1.6-.7,2.3c-.4.6-1,1.1-1.8,1.5-.8.4-1.7.5-2.8.5ZM346.5,50v-14h9v2.4h-6.4v3.3h5.8v2.4h-5.8v3.5h6.5v2.4h-9.1ZM357.6,50v-14h5l2.8,12.2h.4v-12.2h2.6v14h-5l-2.8-12.2h-.4v12.2h-2.6ZM370.6,50v-2.3h1.8v-9.4h-1.8v-2.3h5.8c1.9,0,3.3.5,4.3,1.4,1,.9,1.5,2.4,1.5,4.2v2.6c0,1.9-.5,3.3-1.5,4.3-1,.9-2.4,1.4-4.3,1.4h-5.8ZM375,47.6h1.3c1.1,0,1.8-.3,2.3-.8.5-.6.7-1.3.7-2.4v-2.8c0-1-.2-1.8-.7-2.4-.5-.6-1.3-.8-2.3-.8h-1.3v9.2ZM350.2,76v-11.6h-4.1v-2.4h10.8v2.4h-4.1v11.6h-2.6ZM363.6,76.3c-1.8,0-3.2-.5-4.2-1.4-1-1-1.6-2.4-1.6-4.2v-3.4c0-1.8.5-3.2,1.6-4.1,1-1,2.4-1.5,4.2-1.5s3.2.5,4.2,1.5c1,1,1.6,2.3,1.6,4.1v3.4c0,1.8-.5,3.2-1.6,4.2-1,1-2.4,1.4-4.2,1.4ZM363.6,73.9c1,0,1.8-.3,2.3-.9.5-.6.8-1.3.8-2.3v-3.5c0-1-.3-1.7-.8-2.3-.5-.6-1.3-.9-2.3-.9s-1.7.3-2.3.9c-.5.6-.8,1.3-.8,2.3v3.5c0,1,.3,1.7.8,2.3.6.6,1.3.9,2.3.9ZM329.5,102v-14h9v2.4h-6.4v3.3h5.8v2.4h-5.8v3.5h6.5v2.4h-9.1ZM343.2,102l-3.6-14h2.7l3,12.3h.3l3-12.3h2.7l-3.6,14h-4.5ZM352.9,102v-14h9v2.4h-6.4v3.3h5.8v2.4h-5.8v3.5h6.5v2.4h-9.1ZM364,102v-14h5l2.8,12.2h.4v-12.2h2.6v14h-5l-2.8-12.2h-.4v12.2h-2.6ZM380.6,102v-11.6h-4.1v-2.4h10.8v2.4h-4.1v11.6h-2.6Z"/>
  <g>
    <path class="st5" d="M420.9,89.2c-.9,0-1.8,0-2.8-.2-9.9-1.2-17.6-9.5-18.1-19.5-.6-11.9,8.9-21.8,20.7-21.8h0c2.9,0,5.3-2.3,5.3-5.2v-16.1c0-6.2,2.5-11.8,6.6-15.9,4.1-4.1,9.7-6.6,15.9-6.6h87.7c0,0,.1.1,0,.1,0,0,0,.2,0,.2,10.7,1.7,18.8,11,18.8,22.2v84.1c0,12.4-10,22.5-22.4,22.5h-84c-12.4,0-22.4-10.1-22.4-22.5v-16.1c0-2.9-2.3-5.2-5.2-5.2Z"/>
    <path class="st2" d="M536.2,2h.2c.5,0,.9.3,1.2.5,11.1,2.3,19.4,12.1,19.4,23.9v84.1c0,13.5-10.9,24.5-24.4,24.5h-84c-13.5,0-24.4-10.9-24.4-24.5v-16.1c0-1.8-1.4-3.2-3.2-3.2h0c-1,0-2,0-3-.2h0c-10.8-1.3-19.3-10.4-19.9-21.4-.7-13.1,9.7-23.9,22.7-23.9h0c1.9,0,3.3-1.4,3.3-3.2v-16.1c0-6.8,2.7-12.9,7.1-17.3h0c4.4-4.4,10.5-7.2,17.3-7.2h87.7Z"/>
  </g>
  <path class="st0" d="M444.6,39v-11.6h-4.1v-2.4h10.8v2.4h-4.1v11.6h-2.6ZM453.1,39v-14h9v2.4h-6.4v3.3h5.8v2.4h-5.8v3.5h6.5v2.4h-9.1ZM464.2,39v-14h2.6v11.6h6.4v2.4h-9ZM475,39v-14h9v2.4h-6.4v3.3h5.8v2.4h-5.8v3.5h6.5v2.4h-9.1ZM490.9,39.3c-1,0-1.8-.2-2.6-.6-.8-.4-1.4-1.1-1.9-1.9-.5-.8-.7-1.9-.7-3.1v-3.4c0-1.8.5-3.2,1.5-4.1,1-1,2.4-1.5,4.1-1.5s3,.5,4,1.4c.9.9,1.4,2.1,1.4,3.7h0c0,0-2.6,0-2.6,0v-.2c0-.5-.1-.9-.3-1.3-.2-.4-.5-.7-.9-.9-.4-.2-.9-.4-1.6-.4-.9,0-1.7.3-2.2.9-.5.6-.8,1.4-.8,2.3v3.4c0,1,.3,1.8.8,2.4.5.6,1.3.9,2.2.9s1.7-.3,2.1-.8c.4-.5.7-1.1.7-1.9v-.2h-3.3v-2.2h5.9v7.2h-2.4v-1.3h-.4c0,.2-.2.5-.5.7-.2.3-.5.5-.9.6-.4.2-1,.3-1.7.3ZM499.3,39v-14h6.1c.9,0,1.6.2,2.3.5.7.3,1.2.7,1.5,1.3.4.6.5,1.2.5,2v.2c0,.8-.2,1.5-.6,2s-.9.9-1.5,1.1v.4c.5,0,.9.2,1.2.6.3.3.4.8.4,1.3v4.6h-2.6v-4.2c0-.3,0-.6-.3-.8-.2-.2-.4-.3-.8-.3h-3.7v5.3h-2.6ZM502,31.3h3.2c.6,0,1.1-.2,1.5-.5.4-.3.5-.8.5-1.4v-.2c0-.6-.2-1-.5-1.3-.3-.3-.8-.5-1.5-.5h-3.2v3.9ZM511,39l3.7-14h4.6l3.7,14h-2.7l-.8-3.1h-5l-.8,3.1h-2.7ZM515.1,33.5h3.8l-1.7-6.8h-.4l-1.7,6.8ZM524.7,39v-14h4.9l2.4,12.2h.4l2.4-12.2h4.9v14h-2.6v-12.1h-.4l-2.4,12.1h-4.4l-2.4-12.1h-.4v12.1h-2.6ZM461.5,65l3.7-14h4.6l3.7,14h-2.7l-.8-3.1h-5l-.8,3.1h-2.7ZM465.6,59.5h3.8l-1.7-6.8h-.4l-1.7,6.8ZM475.1,65v-14h2.6v11.6h6.4v2.4h-9ZM486,65v-14h9v2.4h-6.4v3.3h5.8v2.4h-5.8v3.5h6.5v2.4h-9.1ZM497,65v-14h6.1c.9,0,1.6.2,2.3.5.7.3,1.2.7,1.5,1.3.4.6.5,1.2.5,2v.2c0,.8-.2,1.5-.6,2s-.9.9-1.5,1.1v.4c.5,0,.9.2,1.2.6.3.3.4.8.4,1.3v4.6h-2.6v-4.2c0-.3,0-.6-.3-.8-.2-.2-.4-.3-.8-.3h-3.7v5.3h-2.6ZM499.7,57.3h3.2c.6,0,1.1-.2,1.5-.5.4-.3.5-.8.5-1.4v-.2c0-.6-.2-1-.5-1.3-.3-.3-.8-.5-1.5-.5h-3.2v3.9ZM512.7,65v-11.6h-4.1v-2.4h10.8v2.4h-4.1v11.6h-2.6Z"/>
  <g class="st4">
    <path class="st3" d="M488.3,107.8c-.8-.9-.6-2,0-2.9,2.1-2.9,6.9-6.6,9.5-9.5.4-.5.8-1,1.2-1.5-.3,0-.5.2-.7.3-4.6,2.6-9.8,7.3-14.4,9.5-4.1,2-7.4-.5-11.3-1.6-.8-.4-.9-1.4-.3-2l32.9-13.7c2-.8,3,.6,2.7,2.5l-3.2,24.6c-.5,2.1-2.6,3.2-4.5,2.3l-11.9-7.9h0Z"/>
  </g>
</svg>