<?xml version="1.0" encoding="utf-8"?>
<svg version="1.1" xmlns="http://www.w3.org/2000/svg" viewBox="0 0 500 500">
<g fill="#FFFFFF">
	<path d="M47.5,392c20.9,29.1,47.8,53.5,78.8,71.5c31,18,65.5,29.3,101.2,33c-18.4-27.6-45-53-78.3-72.4C115.8,404.8,80.6,394.2,47.5,392z"/>
	<path d="M193.9,347.1c-64.2-37.3-133.6-46.8-183.3-30c4.8,15.9,11.1,31.2,18.9,45.8c43.2-1,90.3,10.7,134.2,36.2c43.9,25.5,77.4,60.6,97.9,98.6c16.6-0.5,33-2.6,49.2-6.3C300.7,440,258,384.4,193.9,347.1z"/>
	<path d="M499.6,195.8c-8.2-33.2-22.9-64.4-43.4-91.7c-20.5-27.3-46.3-50.3-75.8-67.5S318.2,8.4,284.3,4.2c-33.9-4.2-68.3-1.6-101.2,7.7C238,18.6,299,39.2,358.7,74C418.5,108.7,466.6,151.4,499.6,195.8z"/>
	<path d="M419.8,317.5c-28.1-46.7-76.2-91.4-135.6-125.8c-59.3-34.5-122-54.1-176.4-55.4C59.9,135.1,24,149,9.3,174.4c-0.1,0.2-0.2,0.3-0.3,0.4c-1.3,4.8-2.5,9.5-3.5,14.3c20.6-8.1,44.5-12.7,71-13.2c59-1.1,125,17.8,186,53.2c60.9,35.4,110.1,83.4,138.3,135.2c12.7,23.3,20.6,46.3,23.7,68.3c3.6-3.3,7.2-6.6,10.7-10.1c0.1-0.2,0.2-0.3,0.2-0.5C450.1,396.6,444.4,358.5,419.8,317.5z"/>
	<path d="M239.1,269.3c-90.8-52.8-191.2-61-239.4-24.2c0.1,11.5,1,23,2.6,34.4c14.2-4.3,28.8-7,43.6-8.1c53.9-4.1,113.4,11,167.3,42.3c54,31.4,96.5,75.6,119.7,124.4c6.4,13.4,11.3,27.4,14.6,41.9c10.7-4.2,21.2-9.1,31.2-14.8C386.8,405.2,329.9,322.1,239.1,269.3z"/>
	<path d="M466.5,239.4c-28.4-46.6-77-91.4-136.7-126.1C270,78.6,207.1,58.6,152.5,57c-41.6-1.2-73.9,8.9-90.6,27.9c69.4-11.8,160.9,8,249.7,59.5c88.7,51.5,151.3,121.3,175.4,187.4C495.3,307.9,488.1,274.9,466.5,239.4z"/>
</g>
</svg>
