<?xml version="1.0" encoding="UTF-8"?>
<svg id="_圖層_1" data-name="圖層 1" xmlns="http://www.w3.org/2000/svg" viewBox="0 0 48 48">
  <defs>
    <style>
      .cls-1 {
        fill: #2050f2;
      }
    </style>
  </defs>
  <path class="cls-1" d="M5.62,30.37c.29.04.58.05.86.05.88,0,1.6.72,1.6,1.6v4.99c0,3.84,3.11,6.95,6.95,6.95h26.02c3.84,0,6.95-3.11,6.95-6.95V10.99c0-3.52-2.61-6.42-6-6.88.14-.02.28-.04.43-.07H15.03c-1.92,0-3.66.78-4.92,2.03-1.26,1.26-2.03,3-2.03,4.92v4.99c0,.9-.74,1.6-1.64,1.6,0,0-.01,0-.02,0-3.66,0-6.6,3.06-6.41,6.76.16,3.08,2.55,5.65,5.61,6.03ZM28.33,7.69s10.7,0,10.77,0c0,0,0,0,0,0,0,0,0,0,0,0s0,0,0,0c0,0,0,0,0,0,1.8,0,3.4.91,4.34,2.31.57.84.9,1.85.91,2.94,0,.18,0,.35-.03.52,0,0,0,.02,0,.03-.23,2.19-1.81,3.98-3.89,4.52,0,0-.02,0-.02,0-.04.01-.08.02-.12.03-.11.02-.21.05-.32.06-.02,0-.04,0-.06.01-.05,0-.1.02-.16.02-.03,0-.05,0-.08,0-.18.02-.36.03-.55.03,0,0,0,0,0,0h-.15c-3.08.16-5.63,2.63-5.68,5.72-.06,3.27,2.57,5.93,5.82,5.93,2.83,0,5.13,2.23,5.24,5.03,0,.07,0,.14,0,.21,0,2.89-2.35,5.24-5.24,5.24-.07,0-21.69,0-21.69,0-3.14,0-5.68-2.54-5.68-5.68v-7.04s0-7.18,0-7.18v-8.16c.48-2.59,2.75-4.56,5.49-4.56"/>
</svg>