<svg width="559" height="177" viewBox="0 0 559 177" fill="none" xmlns="http://www.w3.org/2000/svg">
<g transform="translate(66, 0)">
<g filter="url(#filter0_d_792_3645)">
<path d="M21.9143 86.2329C21.0049 86.2433 20.0745 86.191 19.1442 86.076C9.2657 84.8625 1.54063 76.5464 1.02842 66.5984C0.411668 54.6524 9.9138 44.7671 21.7157 44.7671H21.768C24.674 44.7671 27.0783 42.4972 27.0783 39.5891V23.4589C27.0783 17.2558 29.5871 11.6384 33.643 7.56925C37.7094 3.51054 43.3228 1 49.5217 1L137.192 1C137.281 1 137.294 1.12418 137.205 1.13832C137.12 1.15201 137.118 1.29296 137.204 1.30688C147.863 3.0412 156 12.2915 156 23.4589V107.541C156 119.947 145.954 130 133.557 130L49.5322 130C37.1344 130 27.0887 119.947 27.0887 107.541L27.0887 91.4004C27.0887 88.5447 24.7681 86.2015 21.9143 86.2329Z" fill="#2050F2"/>
<path d="M21.9143 86.2329C21.0049 86.2433 20.0745 86.191 19.1442 86.076C9.2657 84.8625 1.54063 76.5464 1.02842 66.5984C0.411668 54.6524 9.9138 44.7671 21.7157 44.7671H21.768C24.674 44.7671 27.0783 42.4972 27.0783 39.5891V23.4589C27.0783 17.2558 29.5871 11.6384 33.643 7.56925C37.7094 3.51054 43.3228 1 49.5217 1L137.192 1C137.281 1 137.294 1.12418 137.205 1.13832C137.12 1.15201 137.118 1.29296 137.204 1.30688C147.863 3.0412 156 12.2915 156 23.4589V107.541C156 119.947 145.954 130 133.557 130L49.5322 130C37.1344 130 27.0887 119.947 27.0887 107.541L27.0887 91.4004C27.0887 88.5447 24.7681 86.2015 21.9143 86.2329Z" stroke="#0E0F28" stroke-width="2"/>
</g>
<g clip-path="url(#clip0_792_3645)">
<path d="M98.2199 111.539C95.4658 101.395 83.5051 94.8026 73.3936 96.9737C72.1346 94.5263 74.1412 93.8947 76.1477 93.4211C84.9215 91.3289 98.3772 99.4211 100.423 108.421C100.895 110.513 100.581 111.382 98.2592 111.539H98.2199Z" fill="#E4EAF2"/>
<path d="M104.043 108.224C102.508 102.066 98.4953 97.5263 93.2625 94.2106C87.2428 90.4211 80.7116 88.6053 73.5903 90.3421C75.3215 85.6842 81.6953 86.6711 85.551 87.579C91.4133 88.9606 96.9608 92.1579 100.935 96.6974C103.256 99.3421 107.151 105.105 104.043 108.224Z" fill="#E4EAF2"/>
<path d="M95.3476 112.803C94.364 112.605 93.1444 113.316 92.2394 112.921C91.8067 112.724 90.5476 110.671 90.0755 110.119C86.2591 105.816 81.2231 103.487 75.4788 103.171C74.928 102.974 73.8657 100.408 74.0231 100.171C79.4919 98.3555 86.0624 100.921 90.2722 104.553C92.6722 106.605 95.0722 109.605 95.3476 112.882V112.803Z" fill="#E4EAF2"/>
<path d="M108.567 100.092C107.348 98.5134 106.325 96.7765 105.026 95.1976C99.7147 88.6844 92.2787 84.4212 83.9377 83.0791L78.1147 82.4081C83.2688 79.5265 89.8 81.5002 94.7574 83.9081C99.7147 86.316 104.829 90.2634 107.229 95.1186C107.977 96.6186 108.725 98.4344 108.567 100.132V100.092Z" fill="#E4EAF2"/>
<path d="M109 90.3419C103.177 83.9866 95.8197 79.3287 87.2427 77.7498C90.6263 76.4077 94.7574 77.0393 98.0623 78.3024C103.216 80.3156 107.623 84.8551 109 90.3024V90.3419Z" fill="#E4EAF2"/>
<path d="M89.1311 113C84.2917 112.132 79.7278 109.803 76.895 105.737C79.2557 105.619 81.7737 106.684 83.7803 107.869C85.7868 109.053 88.2655 110.908 89.0917 113.04L89.1311 113Z" fill="#E4EAF2"/>
</g>
<path d="M57.6115 36.28C56.1715 36.28 55.0248 35.8867 54.1715 35.1C53.3315 34.3133 52.9115 33.2133 52.9115 31.8V30.48H55.5515V31.8C55.5515 32.4267 55.7248 32.92 56.0715 33.28C56.4182 33.6267 56.9048 33.8 57.5315 33.8C58.1182 33.8 58.5715 33.6267 58.8915 33.28C59.2248 32.9333 59.3915 32.44 59.3915 31.8V24.4H56.9915V22H63.6315V24.4H62.0315V31.8C62.0315 33.2533 61.6382 34.3667 60.8515 35.14C60.0648 35.9 58.9848 36.28 57.6115 36.28ZM71.1985 36.28C70.0518 36.28 69.0652 36.0733 68.2385 35.66C67.4252 35.2333 66.7985 34.6333 66.3585 33.86C65.9318 33.0733 65.7185 32.1467 65.7185 31.08V22H68.3585V31.16C68.3585 32.0133 68.5985 32.6867 69.0785 33.18C69.5718 33.6733 70.2785 33.92 71.1985 33.92C72.1185 33.92 72.8185 33.6733 73.2985 33.18C73.7918 32.6867 74.0385 32.0133 74.0385 31.16V22H76.6785V31.08C76.6785 32.1467 76.4585 33.0733 76.0185 33.86C75.5918 34.6333 74.9652 35.2333 74.1385 35.66C73.3252 36.0733 72.3452 36.28 71.1985 36.28ZM79.236 36V22H84.996C85.876 22 86.6493 22.18 87.316 22.54C87.996 22.8867 88.5227 23.38 88.896 24.02C89.2827 24.66 89.476 25.42 89.476 26.3V26.58C89.476 27.4467 89.276 28.2067 88.876 28.86C88.4893 29.5 87.956 30 87.276 30.36C86.6093 30.7067 85.8493 30.88 84.996 30.88H81.876V36H79.236ZM81.876 28.48H84.736C85.3627 28.48 85.8693 28.3067 86.256 27.96C86.6427 27.6133 86.836 27.14 86.836 26.54V26.34C86.836 25.74 86.6427 25.2667 86.256 24.92C85.8693 24.5733 85.3627 24.4 84.736 24.4H81.876V28.48ZM91.3063 36V22H93.9463V36H91.3063ZM99.8198 36V24.4H95.7398V22H106.54V24.4H102.46V36H99.8198ZM108.338 36V22H117.338V24.4H110.978V27.74H116.778V30.14H110.978V33.6H117.458V36H108.338ZM119.412 36V22H125.492C126.372 22 127.138 22.1533 127.792 22.46C128.445 22.7667 128.952 23.2 129.312 23.76C129.672 24.32 129.852 24.98 129.852 25.74V25.98C129.852 26.82 129.652 27.5 129.252 28.02C128.852 28.54 128.358 28.92 127.772 29.16V29.52C128.305 29.5467 128.718 29.7333 129.012 30.08C129.305 30.4133 129.452 30.86 129.452 31.42V36H126.812V31.8C126.812 31.48 126.725 31.22 126.552 31.02C126.392 30.82 126.118 30.72 125.732 30.72H122.052V36H119.412ZM122.052 28.32H125.212C125.838 28.32 126.325 28.1533 126.672 27.82C127.032 27.4733 127.212 27.02 127.212 26.46V26.26C127.212 25.7 127.038 25.2533 126.692 24.92C126.345 24.5733 125.852 24.4 125.212 24.4H122.052V28.32ZM70.4437 62.28C69.3637 62.28 68.4103 62.0867 67.5837 61.7C66.757 61.3133 66.1103 60.76 65.6437 60.04C65.177 59.32 64.9437 58.4533 64.9437 57.44V56.88H67.5437V57.44C67.5437 58.28 67.8037 58.9133 68.3237 59.34C68.8437 59.7533 69.5503 59.96 70.4437 59.96C71.3503 59.96 72.0237 59.78 72.4637 59.42C72.917 59.06 73.1437 58.6 73.1437 58.04C73.1437 57.6533 73.0303 57.34 72.8037 57.1C72.5903 56.86 72.2703 56.6667 71.8437 56.52C71.4303 56.36 70.9237 56.2133 70.3237 56.08L69.8637 55.98C68.9037 55.7667 68.077 55.5 67.3837 55.18C66.7037 54.8467 66.177 54.4133 65.8037 53.88C65.4437 53.3467 65.2637 52.6533 65.2637 51.8C65.2637 50.9467 65.4637 50.22 65.8637 49.62C66.277 49.0067 66.8503 48.54 67.5837 48.22C68.3303 47.8867 69.2037 47.72 70.2037 47.72C71.2037 47.72 72.0903 47.8933 72.8637 48.24C73.6503 48.5733 74.2637 49.08 74.7037 49.76C75.157 50.4267 75.3837 51.2667 75.3837 52.28V52.88H72.7837V52.28C72.7837 51.7467 72.677 51.32 72.4637 51C72.2637 50.6667 71.9703 50.4267 71.5837 50.28C71.197 50.12 70.737 50.04 70.2037 50.04C69.4037 50.04 68.8103 50.1933 68.4237 50.5C68.0503 50.7933 67.8637 51.2 67.8637 51.72C67.8637 52.0667 67.9503 52.36 68.1237 52.6C68.3103 52.84 68.5837 53.04 68.9437 53.2C69.3037 53.36 69.7637 53.5 70.3237 53.62L70.7837 53.72C71.7837 53.9333 72.6503 54.2067 73.3837 54.54C74.1303 54.8733 74.7103 55.3133 75.1237 55.86C75.537 56.4067 75.7437 57.1067 75.7437 57.96C75.7437 58.8133 75.5237 59.5667 75.0837 60.22C74.657 60.86 74.0437 61.3667 73.2437 61.74C72.457 62.1 71.5237 62.28 70.4437 62.28ZM78.8326 62L76.9926 48H79.6126L80.9726 60.16H81.3326L83.0926 48H87.6526L89.4126 60.16H89.7726L91.1326 48H93.7526L91.9126 62H87.3526L85.5526 49.56H85.1926L83.3926 62H78.8326ZM94.3502 62L98.0302 48H102.63L106.31 62H103.59L102.83 58.92H97.8302L97.0702 62H94.3502ZM98.4502 56.48H102.21L100.51 49.66H100.15L98.4502 56.48ZM107.986 62V48H113.746C114.626 48 115.399 48.18 116.066 48.54C116.746 48.8867 117.273 49.38 117.646 50.02C118.033 50.66 118.226 51.42 118.226 52.3V52.58C118.226 53.4467 118.026 54.2067 117.626 54.86C117.239 55.5 116.706 56 116.026 56.36C115.359 56.7067 114.599 56.88 113.746 56.88H110.626V62H107.986ZM110.626 54.48H113.486C114.113 54.48 114.619 54.3067 115.006 53.96C115.393 53.6133 115.586 53.14 115.586 52.54V52.34C115.586 51.74 115.393 51.2667 115.006 50.92C114.619 50.5733 114.113 50.4 113.486 50.4H110.626V54.48Z" fill="white"/>
<g filter="url(#filter1_d_792_3645)">
<path d="M152.914 86.2329C152.005 86.2433 151.075 86.191 150.144 86.076C140.266 84.8625 132.541 76.5464 132.028 66.5984C131.412 54.6524 140.914 44.7671 152.716 44.7671H152.768C155.674 44.7671 158.078 42.4972 158.078 39.5891V23.4589C158.078 17.2558 160.587 11.6384 164.643 7.56925C168.709 3.51054 174.323 1 180.522 1L268.192 1C268.281 1 268.294 1.12418 268.205 1.13832C268.12 1.15201 268.118 1.29296 268.204 1.30688C278.863 3.0412 287 12.2915 287 23.4589V107.541C287 119.947 276.954 130 264.557 130L180.532 130C168.134 130 158.089 119.947 158.089 107.541V91.4004C158.089 88.5447 155.768 86.2015 152.914 86.2329Z" fill="#2050F2"/>
<path d="M152.914 86.2329C152.005 86.2433 151.075 86.191 150.144 86.076C140.266 84.8625 132.541 76.5464 132.028 66.5984C131.412 54.6524 140.914 44.7671 152.716 44.7671H152.768C155.674 44.7671 158.078 42.4972 158.078 39.5891V23.4589C158.078 17.2558 160.587 11.6384 164.643 7.56925C168.709 3.51054 174.323 1 180.522 1L268.192 1C268.281 1 268.294 1.12418 268.205 1.13832C268.12 1.15201 268.118 1.29296 268.204 1.30688C278.863 3.0412 287 12.2915 287 23.4589V107.541C287 119.947 276.954 130 264.557 130L180.532 130C168.134 130 158.089 119.947 158.089 107.541V91.4004C158.089 88.5447 155.768 86.2015 152.914 86.2329Z" stroke="#0E0F28" stroke-width="2"/>
</g>
<path d="M203.219 47.28C202.139 47.28 201.186 47.0867 200.359 46.7C199.532 46.3133 198.886 45.76 198.419 45.04C197.952 44.32 197.719 43.4533 197.719 42.44V41.88H200.319V42.44C200.319 43.28 200.579 43.9133 201.099 44.34C201.619 44.7533 202.326 44.96 203.219 44.96C204.126 44.96 204.799 44.78 205.239 44.42C205.692 44.06 205.919 43.6 205.919 43.04C205.919 42.6533 205.806 42.34 205.579 42.1C205.366 41.86 205.046 41.6667 204.619 41.52C204.206 41.36 203.699 41.2133 203.099 41.08L202.639 40.98C201.679 40.7667 200.852 40.5 200.159 40.18C199.479 39.8467 198.952 39.4133 198.579 38.88C198.219 38.3467 198.039 37.6533 198.039 36.8C198.039 35.9467 198.239 35.22 198.639 34.62C199.052 34.0067 199.626 33.54 200.359 33.22C201.106 32.8867 201.979 32.72 202.979 32.72C203.979 32.72 204.866 32.8933 205.639 33.24C206.426 33.5733 207.039 34.08 207.479 34.76C207.932 35.4267 208.159 36.2667 208.159 37.28V37.88H205.559V37.28C205.559 36.7467 205.452 36.32 205.239 36C205.039 35.6667 204.746 35.4267 204.359 35.28C203.972 35.12 203.512 35.04 202.979 35.04C202.179 35.04 201.586 35.1933 201.199 35.5C200.826 35.7933 200.639 36.2 200.639 36.72C200.639 37.0667 200.726 37.36 200.899 37.6C201.086 37.84 201.359 38.04 201.719 38.2C202.079 38.36 202.539 38.5 203.099 38.62L203.559 38.72C204.559 38.9333 205.426 39.2067 206.159 39.54C206.906 39.8733 207.486 40.3133 207.899 40.86C208.312 41.4067 208.519 42.1067 208.519 42.96C208.519 43.8133 208.299 44.5667 207.859 45.22C207.432 45.86 206.819 46.3667 206.019 46.74C205.232 47.1 204.299 47.28 203.219 47.28ZM210.488 47V33H219.488V35.4H213.128V38.74H218.928V41.14H213.128V44.6H219.608V47H210.488ZM221.562 47V33H226.582L229.362 45.2H229.722V33H232.322V47H227.302L224.522 34.8H224.162V47H221.562ZM234.561 47V44.68H236.401V35.32H234.561V33H240.321C242.201 33 243.627 33.48 244.601 34.44C245.587 35.3867 246.081 36.8 246.081 38.68V41.32C246.081 43.2 245.587 44.62 244.601 45.58C243.627 46.5267 242.201 47 240.321 47H234.561ZM239.041 44.6H240.361C241.427 44.6 242.207 44.32 242.701 43.76C243.194 43.2 243.441 42.4133 243.441 41.4V38.6C243.441 37.5733 243.194 36.7867 242.701 36.24C242.207 35.68 241.427 35.4 240.361 35.4H239.041V44.6ZM214.206 73V61.4H210.126V59H220.926V61.4H216.846V73H214.206ZM227.598 73.28C225.838 73.28 224.438 72.8 223.398 71.84C222.358 70.8667 221.838 69.48 221.838 67.68V64.32C221.838 62.52 222.358 61.14 223.398 60.18C224.438 59.2067 225.838 58.72 227.598 58.72C229.358 58.72 230.758 59.2067 231.798 60.18C232.838 61.14 233.358 62.52 233.358 64.32V67.68C233.358 69.48 232.838 70.8667 231.798 71.84C230.758 72.8 229.358 73.28 227.598 73.28ZM227.598 70.92C228.585 70.92 229.351 70.6333 229.898 70.06C230.445 69.4867 230.718 68.72 230.718 67.76V64.24C230.718 63.28 230.445 62.5133 229.898 61.94C229.351 61.3667 228.585 61.08 227.598 61.08C226.625 61.08 225.858 61.3667 225.298 61.94C224.751 62.5133 224.478 63.28 224.478 64.24V67.76C224.478 68.72 224.751 69.4867 225.298 70.06C225.858 70.6333 226.625 70.92 227.598 70.92ZM193.486 99V85H202.486V87.4H196.126V90.74H201.926V93.14H196.126V96.6H202.606V99H193.486ZM207.16 99L203.6 85H206.32L209.28 97.3H209.56L212.52 85H215.24L211.68 99H207.16ZM216.924 99V85H225.924V87.4H219.564V90.74H225.364V93.14H219.564V96.6H226.044V99H216.924ZM227.998 99V85H233.018L235.798 97.2H236.158V85H238.758V99H233.738L230.958 86.8H230.598V99H227.998ZM244.636 99V87.4H240.556V85H251.356V87.4H247.276V99H244.636Z" fill="white"/>
<g filter="url(#filter2_d_792_3645)">
<path d="M283.914 86.2329C283.005 86.2433 282.075 86.191 281.144 86.076C271.266 84.8625 263.541 76.5464 263.028 66.5984C262.412 54.6524 271.914 44.7671 283.716 44.7671H283.768C286.674 44.7671 289.078 42.4972 289.078 39.5891V23.4589C289.078 17.2558 291.587 11.6384 295.643 7.56925C299.709 3.51054 305.323 1 311.522 1L399.192 1C399.281 1 399.294 1.12418 399.205 1.13832C399.12 1.15201 399.118 1.29296 399.204 1.30688C409.863 3.0412 418 12.2915 418 23.4589V107.541C418 119.947 407.954 130 395.557 130L311.532 130C299.134 130 289.089 119.947 289.089 107.541V91.4004C289.089 88.5447 286.768 86.2015 283.914 86.2329Z" fill="#2050F2"/>
<path d="M283.914 86.2329C283.005 86.2433 282.075 86.191 281.144 86.076C271.266 84.8625 263.541 76.5464 263.028 66.5984C262.412 54.6524 271.914 44.7671 283.716 44.7671H283.768C286.674 44.7671 289.078 42.4972 289.078 39.5891V23.4589C289.078 17.2558 291.587 11.6384 295.643 7.56925C299.709 3.51054 305.323 1 311.522 1L399.192 1C399.281 1 399.294 1.12418 399.205 1.13832C399.12 1.15201 399.118 1.29296 399.204 1.30688C409.863 3.0412 418 12.2915 418 23.4589V107.541C418 119.947 407.954 130 395.557 130L311.532 130C299.134 130 289.089 119.947 289.089 107.541V91.4004C289.089 88.5447 286.768 86.2015 283.914 86.2329Z" stroke="#0E0F28" stroke-width="2"/>
</g>
<path d="M307.591 36V24.4H303.511V22H314.311V24.4H310.231V36H307.591ZM316.109 36V22H325.109V24.4H318.749V27.74H324.549V30.14H318.749V33.6H325.229V36H316.109ZM327.183 36V22H329.823V33.6H336.223V36H327.183ZM338.023 36V22H347.023V24.4H340.663V27.74H346.463V30.14H340.663V33.6H347.143V36H338.023ZM353.937 36.28C352.977 36.28 352.104 36.0667 351.317 35.64C350.544 35.2 349.924 34.5667 349.457 33.74C349.004 32.9 348.777 31.88 348.777 30.68V27.32C348.777 25.52 349.284 24.14 350.297 23.18C351.311 22.2067 352.684 21.72 354.417 21.72C356.137 21.72 357.464 22.18 358.397 23.1C359.344 24.0067 359.817 25.24 359.817 26.8V26.88H357.217V26.72C357.217 26.2267 357.111 25.78 356.897 25.38C356.697 24.98 356.391 24.6667 355.977 24.44C355.564 24.2 355.044 24.08 354.417 24.08C353.484 24.08 352.751 24.3667 352.217 24.94C351.684 25.5133 351.417 26.2933 351.417 27.28V30.72C351.417 31.6933 351.684 32.48 352.217 33.08C352.751 33.6667 353.497 33.96 354.457 33.96C355.417 33.96 356.117 33.7067 356.557 33.2C356.997 32.6933 357.217 32.0533 357.217 31.28V31.08H353.897V28.84H359.817V36H357.377V34.66H357.017C356.924 34.8867 356.771 35.1267 356.557 35.38C356.357 35.6333 356.051 35.8467 355.637 36.02C355.224 36.1933 354.657 36.28 353.937 36.28ZM362.34 36V22H368.42C369.3 22 370.066 22.1533 370.72 22.46C371.373 22.7667 371.88 23.2 372.24 23.76C372.6 24.32 372.78 24.98 372.78 25.74V25.98C372.78 26.82 372.58 27.5 372.18 28.02C371.78 28.54 371.286 28.92 370.7 29.16V29.52C371.233 29.5467 371.646 29.7333 371.94 30.08C372.233 30.4133 372.38 30.86 372.38 31.42V36H369.74V31.8C369.74 31.48 369.653 31.22 369.48 31.02C369.32 30.82 369.046 30.72 368.66 30.72H364.98V36H362.34ZM364.98 28.32H368.14C368.766 28.32 369.253 28.1533 369.6 27.82C369.96 27.4733 370.14 27.02 370.14 26.46V26.26C370.14 25.7 369.966 25.2533 369.62 24.92C369.273 24.5733 368.78 24.4 368.14 24.4H364.98V28.32ZM374.016 36L377.696 22H382.296L385.976 36H383.256L382.496 32.92H377.496L376.736 36H374.016ZM378.116 30.48H381.876L380.176 23.66H379.816L378.116 30.48ZM387.652 36V22H392.552L394.972 34.2H395.332L397.752 22H402.652V36H400.092V23.94H399.732L397.332 36H392.972L390.572 23.94H390.212V36H387.652ZM324.485 62L328.165 48H332.765L336.445 62H333.725L332.965 58.92H327.965L327.205 62H324.485ZM328.585 56.48H332.345L330.645 49.66H330.285L328.585 56.48ZM338.121 62V48H340.761V59.6H347.161V62H338.121ZM348.961 62V48H357.961V50.4H351.601V53.74H357.401V56.14H351.601V59.6H358.081V62H348.961ZM360.035 62V48H366.115C366.995 48 367.762 48.1533 368.415 48.46C369.068 48.7667 369.575 49.2 369.935 49.76C370.295 50.32 370.475 50.98 370.475 51.74V51.98C370.475 52.82 370.275 53.5 369.875 54.02C369.475 54.54 368.982 54.92 368.395 55.16V55.52C368.928 55.5467 369.342 55.7333 369.635 56.08C369.928 56.4133 370.075 56.86 370.075 57.42V62H367.435V57.8C367.435 57.48 367.348 57.22 367.175 57.02C367.015 56.82 366.742 56.72 366.355 56.72H362.675V62H360.035ZM362.675 54.32H365.835C366.462 54.32 366.948 54.1533 367.295 53.82C367.655 53.4733 367.835 53.02 367.835 52.46V52.26C367.835 51.7 367.662 51.2533 367.315 50.92C366.968 50.5733 366.475 50.4 365.835 50.4H362.675V54.32ZM375.677 62V50.4H371.597V48H382.397V50.4H378.317V62H375.677Z" fill="white"/>
<g clip-path="url(#clip1_792_3645)">
<path d="M351.258 104.794C350.427 103.845 350.637 102.789 351.3 101.853C353.379 98.912 358.169 95.2341 360.808 92.3412C361.243 91.8653 361.609 91.3023 362.049 90.8282C361.748 90.766 361.581 90.9827 361.355 91.1105C356.733 93.7353 351.565 98.3987 346.983 100.562C342.837 102.519 339.582 100.1 335.669 98.9564C334.904 98.5355 334.79 97.5907 335.359 96.9478L368.225 83.2291C370.222 82.4211 371.268 83.8543 370.941 85.7633L367.695 110.404C367.225 112.46 365.124 113.57 363.17 112.702L351.258 104.792V104.794Z" fill="#E4EAF2"/>
</g>
<path d="M48.3621 152.196C47.6061 152.196 46.9388 152.061 46.3601 151.79C45.7815 151.519 45.3288 151.132 45.0021 150.628C44.6755 150.124 44.5121 149.517 44.5121 148.808V148.416H46.3321V148.808C46.3321 149.396 46.5141 149.839 46.8781 150.138C47.2421 150.427 47.7368 150.572 48.3621 150.572C48.9968 150.572 49.4681 150.446 49.7761 150.194C50.0935 149.942 50.2521 149.62 50.2521 149.228C50.2521 148.957 50.1775 148.738 50.0281 148.57C49.8788 148.402 49.6595 148.267 49.3701 148.164C49.0808 148.052 48.7261 147.949 48.3061 147.856L47.9841 147.786C47.3121 147.637 46.7335 147.45 46.2481 147.226C45.7721 146.993 45.4035 146.689 45.1421 146.316C44.8901 145.943 44.7641 145.457 44.7641 144.86C44.7641 144.263 44.9041 143.754 45.1841 143.334C45.4735 142.905 45.8748 142.578 46.3881 142.354C46.9108 142.121 47.5221 142.004 48.2221 142.004C48.9221 142.004 49.5428 142.125 50.0841 142.368C50.6348 142.601 51.0641 142.956 51.3721 143.432C51.6895 143.899 51.8481 144.487 51.8481 145.196V145.616H50.0281V145.196C50.0281 144.823 49.9535 144.524 49.8041 144.3C49.6641 144.067 49.4588 143.899 49.1881 143.796C48.9175 143.684 48.5955 143.628 48.2221 143.628C47.6621 143.628 47.2468 143.735 46.9761 143.95C46.7148 144.155 46.5841 144.44 46.5841 144.804C46.5841 145.047 46.6448 145.252 46.7661 145.42C46.8968 145.588 47.0881 145.728 47.3401 145.84C47.5921 145.952 47.9141 146.05 48.3061 146.134L48.6281 146.204C49.3281 146.353 49.9348 146.545 50.4481 146.778C50.9615 147.011 51.3581 147.319 51.6381 147.702C51.9275 148.085 52.0721 148.575 52.0721 149.172C52.0721 149.769 51.9181 150.297 51.6101 150.754C51.3115 151.202 50.8821 151.557 50.3221 151.818C49.7715 152.07 49.1181 152.196 48.3621 152.196ZM47.5081 153.624V140.576H49.1881V153.624H47.5081ZM57.2304 152.196C56.4277 152.196 55.737 152.051 55.1584 151.762C54.589 151.463 54.1504 151.043 53.8424 150.502C53.5437 149.951 53.3944 149.303 53.3944 148.556V142.2H55.2424V148.612C55.2424 149.209 55.4104 149.681 55.7464 150.026C56.0917 150.371 56.5864 150.544 57.2304 150.544C57.8744 150.544 58.3644 150.371 58.7004 150.026C59.0457 149.681 59.2184 149.209 59.2184 148.612V142.2H61.0664V148.556C61.0664 149.303 60.9124 149.951 60.6044 150.502C60.3057 151.043 59.867 151.463 59.2884 151.762C58.719 152.051 58.033 152.196 57.2304 152.196ZM66.2586 152.196C65.5026 152.196 64.8353 152.061 64.2566 151.79C63.678 151.519 63.2253 151.132 62.8986 150.628C62.572 150.124 62.4086 149.517 62.4086 148.808V148.416H64.2286V148.808C64.2286 149.396 64.4106 149.839 64.7746 150.138C65.1386 150.427 65.6333 150.572 66.2586 150.572C66.8933 150.572 67.3646 150.446 67.6726 150.194C67.99 149.942 68.1486 149.62 68.1486 149.228C68.1486 148.957 68.0693 148.738 67.9106 148.57C67.7613 148.402 67.5373 148.267 67.2386 148.164C66.9493 148.052 66.5946 147.949 66.1746 147.856L65.8526 147.786C65.1806 147.637 64.602 147.45 64.1166 147.226C63.6406 146.993 63.272 146.689 63.0106 146.316C62.7586 145.943 62.6326 145.457 62.6326 144.86C62.6326 144.263 62.7726 143.754 63.0526 143.334C63.342 142.905 63.7433 142.578 64.2566 142.354C64.7793 142.121 65.3906 142.004 66.0906 142.004C66.7906 142.004 67.4113 142.125 67.9526 142.368C68.5033 142.601 68.9326 142.956 69.2406 143.432C69.558 143.899 69.7166 144.487 69.7166 145.196V145.616H67.8966V145.196C67.8966 144.823 67.822 144.524 67.6726 144.3C67.5326 144.067 67.3273 143.899 67.0566 143.796C66.786 143.684 66.464 143.628 66.0906 143.628C65.5306 143.628 65.1153 143.735 64.8446 143.95C64.5833 144.155 64.4526 144.44 64.4526 144.804C64.4526 145.047 64.5133 145.252 64.6346 145.42C64.7653 145.588 64.9566 145.728 65.2086 145.84C65.4606 145.952 65.7826 146.05 66.1746 146.134L66.4966 146.204C67.1966 146.353 67.8033 146.545 68.3166 146.778C68.8393 147.011 69.2453 147.319 69.5346 147.702C69.824 148.085 69.9686 148.575 69.9686 149.172C69.9686 149.769 69.8146 150.297 69.5066 150.754C69.208 151.202 68.7786 151.557 68.2186 151.818C67.668 152.07 67.0146 152.196 66.2586 152.196ZM71.0122 152V150.376H72.3002V143.824H71.0122V142.2H75.0442C76.3602 142.2 77.3588 142.536 78.0402 143.208C78.7308 143.871 79.0762 144.86 79.0762 146.176V148.024C79.0762 149.34 78.7308 150.334 78.0402 151.006C77.3588 151.669 76.3602 152 75.0442 152H71.0122ZM74.1482 150.32H75.0722C75.8188 150.32 76.3648 150.124 76.7102 149.732C77.0555 149.34 77.2282 148.789 77.2282 148.08V146.12C77.2282 145.401 77.0555 144.851 76.7102 144.468C76.3648 144.076 75.8188 143.88 75.0722 143.88H74.1482V150.32ZM84.3404 152.196C83.127 152.196 82.1657 151.86 81.4564 151.188C80.747 150.507 80.3924 149.536 80.3924 148.276V145.924C80.3924 144.664 80.747 143.698 81.4564 143.026C82.1657 142.345 83.127 142.004 84.3404 142.004C85.5444 142.004 86.473 142.335 87.1264 142.998C87.7891 143.651 88.1204 144.552 88.1204 145.7V145.784H86.3004V145.644C86.3004 145.065 86.137 144.589 85.8104 144.216C85.493 143.843 85.003 143.656 84.3404 143.656C83.687 143.656 83.1737 143.857 82.8004 144.258C82.427 144.659 82.2404 145.205 82.2404 145.896V148.304C82.2404 148.985 82.427 149.531 82.8004 149.942C83.1737 150.343 83.687 150.544 84.3404 150.544C85.003 150.544 85.493 150.357 85.8104 149.984C86.137 149.601 86.3004 149.125 86.3004 148.556V148.304H88.1204V148.5C88.1204 149.648 87.7891 150.553 87.1264 151.216C86.473 151.869 85.5444 152.196 84.3404 152.196ZM96.5408 152.196C95.8502 152.196 95.2295 152.056 94.6788 151.776C94.1282 151.496 93.6942 151.09 93.3768 150.558C93.0595 150.026 92.9008 149.387 92.9008 148.64V148.416C92.9008 147.669 93.0595 147.03 93.3768 146.498C93.6942 145.966 94.1282 145.56 94.6788 145.28C95.2295 145 95.8502 144.86 96.5408 144.86C97.2315 144.86 97.8522 145 98.4028 145.28C98.9535 145.56 99.3875 145.966 99.7048 146.498C100.022 147.03 100.181 147.669 100.181 148.416V148.64C100.181 149.387 100.022 150.026 99.7048 150.558C99.3875 151.09 98.9535 151.496 98.4028 151.776C97.8522 152.056 97.2315 152.196 96.5408 152.196ZM96.5408 150.628C97.0822 150.628 97.5302 150.455 97.8848 150.11C98.2395 149.755 98.4168 149.251 98.4168 148.598V148.458C98.4168 147.805 98.2395 147.305 97.8848 146.96C97.5395 146.605 97.0915 146.428 96.5408 146.428C95.9995 146.428 95.5515 146.605 95.1968 146.96C94.8422 147.305 94.6648 147.805 94.6648 148.458V148.598C94.6648 149.251 94.8422 149.755 95.1968 150.11C95.5515 150.455 95.9995 150.628 96.5408 150.628ZM101.809 152V145.056H103.545V145.84H103.797C103.9 145.56 104.068 145.355 104.301 145.224C104.544 145.093 104.824 145.028 105.141 145.028H105.981V146.596H105.113C104.665 146.596 104.296 146.717 104.007 146.96C103.718 147.193 103.573 147.557 103.573 148.052V152H101.809ZM114.261 152.196C113.505 152.196 112.837 152.061 112.259 151.79C111.68 151.519 111.227 151.132 110.901 150.628C110.574 150.124 110.411 149.517 110.411 148.808V148.416H112.231V148.808C112.231 149.396 112.413 149.839 112.777 150.138C113.141 150.427 113.635 150.572 114.261 150.572C114.895 150.572 115.367 150.446 115.675 150.194C115.992 149.942 116.151 149.62 116.151 149.228C116.151 148.957 116.076 148.738 115.927 148.57C115.777 148.402 115.558 148.267 115.269 148.164C114.979 148.052 114.625 147.949 114.205 147.856L113.883 147.786C113.211 147.637 112.632 147.45 112.147 147.226C111.671 146.993 111.302 146.689 111.041 146.316C110.789 145.943 110.663 145.457 110.663 144.86C110.663 144.263 110.803 143.754 111.083 143.334C111.372 142.905 111.773 142.578 112.287 142.354C112.809 142.121 113.421 142.004 114.121 142.004C114.821 142.004 115.441 142.125 115.983 142.368C116.533 142.601 116.963 142.956 117.271 143.432C117.588 143.899 117.747 144.487 117.747 145.196V145.616H115.927V145.196C115.927 144.823 115.852 144.524 115.703 144.3C115.563 144.067 115.357 143.899 115.087 143.796C114.816 143.684 114.494 143.628 114.121 143.628C113.561 143.628 113.145 143.735 112.875 143.95C112.613 144.155 112.483 144.44 112.483 144.804C112.483 145.047 112.543 145.252 112.665 145.42C112.795 145.588 112.987 145.728 113.239 145.84C113.491 145.952 113.813 146.05 114.205 146.134L114.527 146.204C115.227 146.353 115.833 146.545 116.347 146.778C116.86 147.011 117.257 147.319 117.537 147.702C117.826 148.085 117.971 148.575 117.971 149.172C117.971 149.769 117.817 150.297 117.509 150.754C117.21 151.202 116.781 151.557 116.221 151.818C115.67 152.07 115.017 152.196 114.261 152.196ZM113.407 153.624V140.576H115.087V153.624H113.407ZM122.751 152.196C121.995 152.196 121.327 152.061 120.749 151.79C120.17 151.519 119.717 151.132 119.391 150.628C119.064 150.124 118.901 149.517 118.901 148.808V148.416H120.721V148.808C120.721 149.396 120.903 149.839 121.267 150.138C121.631 150.427 122.125 150.572 122.751 150.572C123.385 150.572 123.857 150.446 124.165 150.194C124.482 149.942 124.641 149.62 124.641 149.228C124.641 148.957 124.561 148.738 124.403 148.57C124.253 148.402 124.029 148.267 123.731 148.164C123.441 148.052 123.087 147.949 122.667 147.856L122.345 147.786C121.673 147.637 121.094 147.45 120.609 147.226C120.133 146.993 119.764 146.689 119.503 146.316C119.251 145.943 119.125 145.457 119.125 144.86C119.125 144.263 119.265 143.754 119.545 143.334C119.834 142.905 120.235 142.578 120.749 142.354C121.271 142.121 121.883 142.004 122.583 142.004C123.283 142.004 123.903 142.125 124.445 142.368C124.995 142.601 125.425 142.956 125.733 143.432C126.05 143.899 126.209 144.487 126.209 145.196V145.616H124.389V145.196C124.389 144.823 124.314 144.524 124.165 144.3C124.025 144.067 123.819 143.899 123.549 143.796C123.278 143.684 122.956 143.628 122.583 143.628C122.023 143.628 121.607 143.735 121.337 143.95C121.075 144.155 120.945 144.44 120.945 144.804C120.945 145.047 121.005 145.252 121.127 145.42C121.257 145.588 121.449 145.728 121.701 145.84C121.953 145.952 122.275 146.05 122.667 146.134L122.989 146.204C123.689 146.353 124.295 146.545 124.809 146.778C125.331 147.011 125.737 147.319 126.027 147.702C126.316 148.085 126.461 148.575 126.461 149.172C126.461 149.769 126.307 150.297 125.999 150.754C125.7 151.202 125.271 151.557 124.711 151.818C124.16 152.07 123.507 152.196 122.751 152.196ZM131.647 152.196C130.415 152.196 129.435 151.86 128.707 151.188C127.979 150.507 127.615 149.536 127.615 148.276V145.924C127.615 144.664 127.979 143.698 128.707 143.026C129.435 142.345 130.415 142.004 131.647 142.004C132.879 142.004 133.859 142.345 134.587 143.026C135.315 143.698 135.679 144.664 135.679 145.924V148.276C135.679 149.536 135.315 150.507 134.587 151.188C133.859 151.86 132.879 152.196 131.647 152.196ZM131.647 150.544C132.338 150.544 132.874 150.343 133.257 149.942C133.64 149.541 133.831 149.004 133.831 148.332V145.868C133.831 145.196 133.64 144.659 133.257 144.258C132.874 143.857 132.338 143.656 131.647 143.656C130.966 143.656 130.429 143.857 130.037 144.258C129.654 144.659 129.463 145.196 129.463 145.868V148.332C129.463 149.004 129.654 149.541 130.037 149.942C130.429 150.343 130.966 150.544 131.647 150.544ZM137.3 152V142.2H139.148V150.32H143.628V152H137.3ZM51.8376 170.196C50.9323 170.196 50.1903 170 49.6116 169.608C49.033 169.216 48.683 168.656 48.5616 167.928L50.1856 167.508C50.251 167.835 50.3583 168.091 50.5076 168.278C50.6663 168.465 50.8576 168.6 51.0816 168.684C51.315 168.759 51.567 168.796 51.8376 168.796C52.2483 168.796 52.5516 168.726 52.7476 168.586C52.9436 168.437 53.0416 168.255 53.0416 168.04C53.0416 167.825 52.9483 167.662 52.7616 167.55C52.575 167.429 52.2763 167.331 51.8656 167.256L51.4736 167.186C50.9883 167.093 50.545 166.967 50.1436 166.808C49.7423 166.64 49.4203 166.411 49.1776 166.122C48.935 165.833 48.8136 165.459 48.8136 165.002C48.8136 164.311 49.0656 163.784 49.5696 163.42C50.0736 163.047 50.7363 162.86 51.5576 162.86C52.3323 162.86 52.9763 163.033 53.4896 163.378C54.003 163.723 54.339 164.176 54.4976 164.736L52.8596 165.24C52.785 164.885 52.631 164.633 52.3976 164.484C52.1736 164.335 51.8936 164.26 51.5576 164.26C51.2216 164.26 50.965 164.321 50.7876 164.442C50.6103 164.554 50.5216 164.713 50.5216 164.918C50.5216 165.142 50.615 165.31 50.8016 165.422C50.9883 165.525 51.2403 165.604 51.5576 165.66L51.9496 165.73C52.4723 165.823 52.9436 165.949 53.3636 166.108C53.793 166.257 54.129 166.477 54.3716 166.766C54.6236 167.046 54.7496 167.429 54.7496 167.914C54.7496 168.642 54.4836 169.207 53.9516 169.608C53.429 170 52.7243 170.196 51.8376 170.196ZM56.8554 170L55.8754 163.056H57.6254L58.2414 168.81H58.4934L59.3894 163.056H62.2174L63.1134 168.81H63.3654L63.9814 163.056H65.7314L64.7514 170H61.8254L60.9294 164.246H60.6774L59.7814 170H56.8554ZM69.4299 170.196C68.9353 170.196 68.4919 170.112 68.0999 169.944C67.7079 169.767 67.3953 169.515 67.1619 169.188C66.9379 168.852 66.8259 168.446 66.8259 167.97C66.8259 167.494 66.9379 167.097 67.1619 166.78C67.3953 166.453 67.7126 166.211 68.1139 166.052C68.5246 165.884 68.9913 165.8 69.5139 165.8H71.4179V165.408C71.4179 165.081 71.3153 164.815 71.1099 164.61C70.9046 164.395 70.5779 164.288 70.1299 164.288C69.6913 164.288 69.3646 164.391 69.1499 164.596C68.9353 164.792 68.7953 165.049 68.7299 165.366L67.1059 164.82C67.2179 164.465 67.3953 164.143 67.6379 163.854C67.8899 163.555 68.2213 163.317 68.6319 163.14C69.0519 162.953 69.5606 162.86 70.1579 162.86C71.0726 162.86 71.7959 163.089 72.3279 163.546C72.8599 164.003 73.1259 164.666 73.1259 165.534V168.124C73.1259 168.404 73.2566 168.544 73.5179 168.544H74.0779V170H72.9019C72.5566 170 72.2719 169.916 72.0479 169.748C71.8239 169.58 71.7119 169.356 71.7119 169.076V169.062H71.4459C71.4086 169.174 71.3246 169.323 71.1939 169.51C71.0633 169.687 70.8579 169.846 70.5779 169.986C70.2979 170.126 69.9153 170.196 69.4299 170.196ZM69.7379 168.768C70.2326 168.768 70.6339 168.633 70.9419 168.362C71.2593 168.082 71.4179 167.713 71.4179 167.256V167.116H69.6399C69.3133 167.116 69.0566 167.186 68.8699 167.326C68.6833 167.466 68.5899 167.662 68.5899 167.914C68.5899 168.166 68.6879 168.371 68.8839 168.53C69.0799 168.689 69.3646 168.768 69.7379 168.768ZM75.3677 172.8V163.056H77.1037V163.896H77.3557C77.5144 163.625 77.7617 163.387 78.0977 163.182C78.4337 162.967 78.9144 162.86 79.5397 162.86C80.0997 162.86 80.6177 163 81.0937 163.28C81.5697 163.551 81.9524 163.952 82.2417 164.484C82.531 165.016 82.6757 165.66 82.6757 166.416V166.64C82.6757 167.396 82.531 168.04 82.2417 168.572C81.9524 169.104 81.5697 169.51 81.0937 169.79C80.6177 170.061 80.0997 170.196 79.5397 170.196C79.1197 170.196 78.765 170.145 78.4757 170.042C78.1957 169.949 77.967 169.827 77.7897 169.678C77.6217 169.519 77.4864 169.361 77.3837 169.202H77.1317V172.8H75.3677ZM79.0077 168.656C79.5584 168.656 80.011 168.483 80.3657 168.138C80.7297 167.783 80.9117 167.27 80.9117 166.598V166.458C80.9117 165.786 80.7297 165.277 80.3657 164.932C80.0017 164.577 79.549 164.4 79.0077 164.4C78.4664 164.4 78.0137 164.577 77.6497 164.932C77.2857 165.277 77.1037 165.786 77.1037 166.458V166.598C77.1037 167.27 77.2857 167.783 77.6497 168.138C78.0137 168.483 78.4664 168.656 79.0077 168.656ZM90.5101 170C90.0528 170 89.6795 169.86 89.3901 169.58C89.1101 169.291 88.9701 168.908 88.9701 168.432V164.512H87.2341V163.056H88.9701V160.9H90.7341V163.056H92.6381V164.512H90.7341V168.124C90.7341 168.404 90.8648 168.544 91.1261 168.544H92.4701V170H90.5101ZM97.2928 170.196C96.6021 170.196 95.9815 170.056 95.4308 169.776C94.8801 169.496 94.4461 169.09 94.1288 168.558C93.8115 168.026 93.6528 167.387 93.6528 166.64V166.416C93.6528 165.669 93.8115 165.03 94.1288 164.498C94.4461 163.966 94.8801 163.56 95.4308 163.28C95.9815 163 96.6021 162.86 97.2928 162.86C97.9835 162.86 98.6041 163 99.1548 163.28C99.7055 163.56 100.139 163.966 100.457 164.498C100.774 165.03 100.933 165.669 100.933 166.416V166.64C100.933 167.387 100.774 168.026 100.457 168.558C100.139 169.09 99.7055 169.496 99.1548 169.776C98.6041 170.056 97.9835 170.196 97.2928 170.196ZM97.2928 168.628C97.8341 168.628 98.2821 168.455 98.6368 168.11C98.9915 167.755 99.1688 167.251 99.1688 166.598V166.458C99.1688 165.805 98.9915 165.305 98.6368 164.96C98.2915 164.605 97.8435 164.428 97.2928 164.428C96.7515 164.428 96.3035 164.605 95.9488 164.96C95.5941 165.305 95.4168 165.805 95.4168 166.458V166.598C95.4168 167.251 95.5941 167.755 95.9488 168.11C96.3035 168.455 96.7515 168.628 97.2928 168.628ZM109.462 170.196C108.706 170.196 108.038 170.061 107.46 169.79C106.881 169.519 106.428 169.132 106.102 168.628C105.775 168.124 105.612 167.517 105.612 166.808V166.416H107.432V166.808C107.432 167.396 107.614 167.839 107.978 168.138C108.342 168.427 108.836 168.572 109.462 168.572C110.096 168.572 110.568 168.446 110.876 168.194C111.193 167.942 111.352 167.62 111.352 167.228C111.352 166.957 111.277 166.738 111.128 166.57C110.978 166.402 110.759 166.267 110.47 166.164C110.18 166.052 109.826 165.949 109.406 165.856L109.084 165.786C108.412 165.637 107.833 165.45 107.348 165.226C106.872 164.993 106.503 164.689 106.242 164.316C105.99 163.943 105.864 163.457 105.864 162.86C105.864 162.263 106.004 161.754 106.284 161.334C106.573 160.905 106.974 160.578 107.488 160.354C108.01 160.121 108.622 160.004 109.322 160.004C110.022 160.004 110.642 160.125 111.184 160.368C111.734 160.601 112.164 160.956 112.472 161.432C112.789 161.899 112.948 162.487 112.948 163.196V163.616H111.128V163.196C111.128 162.823 111.053 162.524 110.904 162.3C110.764 162.067 110.558 161.899 110.288 161.796C110.017 161.684 109.695 161.628 109.322 161.628C108.762 161.628 108.346 161.735 108.076 161.95C107.814 162.155 107.684 162.44 107.684 162.804C107.684 163.047 107.744 163.252 107.866 163.42C107.996 163.588 108.188 163.728 108.44 163.84C108.692 163.952 109.014 164.05 109.406 164.134L109.728 164.204C110.428 164.353 111.034 164.545 111.548 164.778C112.061 165.011 112.458 165.319 112.738 165.702C113.027 166.085 113.172 166.575 113.172 167.172C113.172 167.769 113.018 168.297 112.71 168.754C112.411 169.202 111.982 169.557 111.422 169.818C110.871 170.07 110.218 170.196 109.462 170.196ZM108.608 171.624V158.576H110.288V171.624H108.608ZM117.364 170.196C116.356 170.196 115.553 169.921 114.956 169.37C114.368 168.819 114.074 168.049 114.074 167.06V166.136H115.922V167.06C115.922 167.499 116.043 167.844 116.286 168.096C116.529 168.339 116.869 168.46 117.308 168.46C117.719 168.46 118.036 168.339 118.26 168.096C118.493 167.853 118.61 167.508 118.61 167.06V161.88H116.93V160.2H121.578V161.88H120.458V167.06C120.458 168.077 120.183 168.857 119.632 169.398C119.081 169.93 118.325 170.196 117.364 170.196ZM126.875 170.196C126.072 170.196 125.382 170.051 124.803 169.762C124.234 169.463 123.795 169.043 123.487 168.502C123.188 167.951 123.039 167.303 123.039 166.556V160.2H124.887V166.612C124.887 167.209 125.055 167.681 125.391 168.026C125.736 168.371 126.231 168.544 126.875 168.544C127.519 168.544 128.009 168.371 128.345 168.026C128.69 167.681 128.863 167.209 128.863 166.612V160.2H130.711V166.556C130.711 167.303 130.557 167.951 130.249 168.502C129.95 169.043 129.512 169.463 128.933 169.762C128.364 170.051 127.678 170.196 126.875 170.196ZM132.501 170V160.2H136.533C137.149 160.2 137.69 160.326 138.157 160.578C138.633 160.821 139.002 161.166 139.263 161.614C139.534 162.062 139.669 162.594 139.669 163.21V163.406C139.669 164.013 139.529 164.545 139.249 165.002C138.978 165.45 138.605 165.8 138.129 166.052C137.662 166.295 137.13 166.416 136.533 166.416H134.349V170H132.501ZM134.349 164.736H136.351C136.79 164.736 137.144 164.615 137.415 164.372C137.686 164.129 137.821 163.798 137.821 163.378V163.238C137.821 162.818 137.686 162.487 137.415 162.244C137.144 162.001 136.79 161.88 136.351 161.88H134.349V164.736Z" fill="#0E0F28"/>
<path d="M301.274 152V142.2H305.53C306.146 142.2 306.682 142.307 307.14 142.522C307.597 142.737 307.952 143.04 308.204 143.432C308.456 143.824 308.582 144.286 308.582 144.818V144.986C308.582 145.574 308.442 146.05 308.162 146.414C307.882 146.778 307.536 147.044 307.126 147.212V147.464C307.499 147.483 307.788 147.613 307.994 147.856C308.199 148.089 308.302 148.402 308.302 148.794V152H306.454V149.06C306.454 148.836 306.393 148.654 306.272 148.514C306.16 148.374 305.968 148.304 305.698 148.304H303.122V152H301.274ZM303.122 146.624H305.334C305.772 146.624 306.113 146.507 306.356 146.274C306.608 146.031 306.734 145.714 306.734 145.322V145.182C306.734 144.79 306.612 144.477 306.37 144.244C306.127 144.001 305.782 143.88 305.334 143.88H303.122V146.624ZM310.119 152V142.2H316.419V143.88H311.967V146.218H316.027V147.898H311.967V150.32H316.503V152H310.119ZM317.199 152L319.775 142.2H322.995L325.571 152H323.667L323.135 149.844H319.635L319.103 152H317.199ZM320.069 148.136H322.701L321.511 143.362H321.259L320.069 148.136ZM326.744 152V142.2H328.592V150.32H333.072V152H326.744ZM339.307 152V143.88H336.451V142.2H344.011V143.88H341.155V152H339.307ZM345.27 152V142.2H347.118V152H345.27ZM348.961 152V142.2H352.391L354.085 150.74H354.337L356.031 142.2H359.461V152H357.669V143.558H357.417L355.737 152H352.685L351.005 143.558H350.753V152H348.961ZM361.307 152V142.2H367.607V143.88H363.155V146.218H367.215V147.898H363.155V150.32H367.691V152H361.307ZM371.777 152L374.353 142.2H377.573L380.149 152H378.245L377.713 149.844H374.213L373.681 152H371.777ZM374.647 148.136H377.279L376.089 143.362H375.837L374.647 148.136ZM381.322 152V142.2H383.17V150.32H387.65V152H381.322ZM388.91 152V142.2H395.21V143.88H390.758V146.218H394.818V147.898H390.758V150.32H395.294V152H388.91ZM396.662 152V142.2H400.918C401.534 142.2 402.071 142.307 402.528 142.522C402.986 142.737 403.34 143.04 403.592 143.432C403.844 143.824 403.97 144.286 403.97 144.818V144.986C403.97 145.574 403.83 146.05 403.55 146.414C403.27 146.778 402.925 147.044 402.514 147.212V147.464C402.888 147.483 403.177 147.613 403.382 147.856C403.588 148.089 403.69 148.402 403.69 148.794V152H401.842V149.06C401.842 148.836 401.782 148.654 401.66 148.514C401.548 148.374 401.357 148.304 401.086 148.304H398.51V152H396.662ZM398.51 146.624H400.722C401.161 146.624 401.502 146.507 401.744 146.274C401.996 146.031 402.122 145.714 402.122 145.322V145.182C402.122 144.79 402.001 144.477 401.758 144.244C401.516 144.001 401.17 143.88 400.722 143.88H398.51V146.624ZM407.612 152V143.88H404.756V142.2H412.316V143.88H409.46V152H407.612Z" fill="#0E0F28"/>
</g>
<defs>
<filter id="filter0_d_792_3645" x="0" y="0" width="163" height="141" filterUnits="userSpaceOnUse" color-interpolation-filters="sRGB">
<feFlood flood-opacity="0" result="BackgroundImageFix"/>
<feColorMatrix in="SourceAlpha" type="matrix" values="0 0 0 0 0 0 0 0 0 0 0 0 0 0 0 0 0 0 127 0" result="hardAlpha"/>
<feOffset dy="4"/>
<feComposite in2="hardAlpha" operator="out"/>
<feColorMatrix type="matrix" values="0 0 0 0 0.054902 0 0 0 0 0.0588235 0 0 0 0 0.156863 0 0 0 1 0"/>
<feBlend mode="normal" in2="BackgroundImageFix" result="effect1_dropShadow_792_3645"/>
<feBlend mode="normal" in="SourceGraphic" in2="effect1_dropShadow_792_3645" result="shape"/>
</filter>
<filter id="filter1_d_792_3645" x="132" y="0" width="163" height="141" filterUnits="userSpaceOnUse" color-interpolation-filters="sRGB">
<feFlood flood-opacity="0" result="BackgroundImageFix"/>
<feColorMatrix in="SourceAlpha" type="matrix" values="0 0 0 0 0 0 0 0 0 0 0 0 0 0 0 0 0 0 127 0" result="hardAlpha"/>
<feOffset dy="4"/>
<feComposite in2="hardAlpha" operator="out"/>
<feColorMatrix type="matrix" values="0 0 0 0 0.054902 0 0 0 0 0.0588235 0 0 0 0 0.156863 0 0 0 1 0"/>
<feBlend mode="normal" in2="BackgroundImageFix" result="effect1_dropShadow_792_3645"/>
<feBlend mode="normal" in="SourceGraphic" in2="effect1_dropShadow_792_3645" result="shape"/>
</filter>
<filter id="filter2_d_792_3645" x="264" y="0" width="163" height="141" filterUnits="userSpaceOnUse" color-interpolation-filters="sRGB">
<feFlood flood-opacity="0" result="BackgroundImageFix"/>
<feColorMatrix in="SourceAlpha" type="matrix" values="0 0 0 0 0 0 0 0 0 0 0 0 0 0 0 0 0 0 127 0" result="hardAlpha"/>
<feOffset dy="4"/>
<feComposite in2="hardAlpha" operator="out"/>
<feColorMatrix type="matrix" values="0 0 0 0 0.054902 0 0 0 0 0.0588235 0 0 0 0 0.156863 0 0 0 1 0"/>
<feBlend mode="normal" in2="BackgroundImageFix" result="effect1_dropShadow_792_3645"/>
<feBlend mode="normal" in="SourceGraphic" in2="effect1_dropShadow_792_3645" result="shape"/>
</filter>
<clipPath id="clip0_792_3645">
<rect width="36" height="36" fill="white" transform="translate(73 77)"/>
</clipPath>
<clipPath id="clip1_792_3645">
<rect width="36" height="30" fill="white" transform="translate(335 83)"/>
</clipPath>
</defs>
</svg>
