<?xml version="1.0" encoding="UTF-8"?>
<svg id="_圖層_1" data-name="圖層_1" xmlns="http://www.w3.org/2000/svg" version="1.1" xmlns:xlink="http://www.w3.org/1999/xlink" viewBox="0 0 419 174">
  <!-- Generator: Adobe Illustrator 29.5.1, SVG Export Plug-In . SVG Version: 2.1.0 Build 141)  -->
  <defs>
    <style>
      .st0 {
        fill: #fff;
      }

      .st1, .st2 {
        fill: none;
      }

      .st3 {
        fill: #e4eaf2;
      }

      .st4 {
        clip-path: url(#clippath-1);
      }

      .st5 {
        fill: #2050f2;
      }

      .st6 {
        fill: #0e0f28;
      }

      .st2 {
        stroke: #0e0f28;
        stroke-width: 2px;
      }

      .st7 {
        clip-path: url(#clippath);
      }
    </style>
    <clipPath id="clippath">
      <rect class="st1" x="73" y="77" width="36" height="36"/>
    </clipPath>
    <clipPath id="clippath-1">
      <rect class="st1" x="335" y="83" width="36" height="30"/>
    </clipPath>
  </defs>
  <g>
    <path class="st5" d="M21.9,86.2c-.9,0-1.8,0-2.8-.2-9.9-1.2-17.6-9.5-18.1-19.5-.6-11.9,8.9-21.8,20.7-21.8h0c2.9,0,5.3-2.3,5.3-5.2v-16.1c0-6.2,2.5-11.8,6.6-15.9,4.1-4.1,9.7-6.6,15.9-6.6h87.7c0,0,.1.1,0,.1,0,0,0,.2,0,.2,10.7,1.7,18.8,11,18.8,22.2v84.1c0,12.4-10,22.5-22.4,22.5H49.5c-12.4,0-22.4-10.1-22.4-22.5v-16.1c0-2.9-2.3-5.2-5.2-5.2Z"/>
    <path class="st2" d="M21.9,86.2c-.9,0-1.8,0-2.8-.2-9.9-1.2-17.6-9.5-18.1-19.5-.6-11.9,8.9-21.8,20.7-21.8h0c2.9,0,5.3-2.3,5.3-5.2v-16.1c0-6.2,2.5-11.8,6.6-15.9,4.1-4.1,9.7-6.6,15.9-6.6h87.7c0,0,.1.1,0,.1,0,0,0,.2,0,.2,10.7,1.7,18.8,11,18.8,22.2v84.1c0,12.4-10,22.5-22.4,22.5H49.5c-12.4,0-22.4-10.1-22.4-22.5v-16.1c0-2.9-2.3-5.2-5.2-5.2Z"/>
  </g>
  <g class="st7">
    <g>
      <path class="st3" d="M98.2,111.5c-2.8-10.1-14.7-16.7-24.8-14.6-1.3-2.4.7-3.1,2.8-3.6,8.8-2.1,22.2,6,24.3,15,.5,2.1.2,3-2.2,3.1h0Z"/>
      <path class="st3" d="M104,108.2c-1.5-6.2-5.5-10.7-10.8-14-6-3.8-12.6-5.6-19.7-3.9,1.7-4.7,8.1-3.7,12-2.8,5.9,1.4,11.4,4.6,15.4,9.1,2.3,2.6,6.2,8.4,3.1,11.5Z"/>
      <path class="st3" d="M95.3,112.8c-1-.2-2.2.5-3.1.1-.4-.2-1.7-2.2-2.2-2.8-3.8-4.3-8.9-6.6-14.6-6.9-.6-.2-1.6-2.8-1.5-3,5.5-1.8,12,.8,16.2,4.4,2.4,2.1,4.8,5.1,5.1,8.3h0Z"/>
      <path class="st3" d="M108.6,100.1c-1.2-1.6-2.2-3.3-3.5-4.9-5.3-6.5-12.7-10.8-21.1-12.1l-5.8-.7c5.2-2.9,11.7-.9,16.6,1.5,5,2.4,10.1,6.4,12.5,11.2.7,1.5,1.5,3.3,1.3,5h0Z"/>
      <path class="st3" d="M109,90.3c-5.8-6.4-13.2-11-21.8-12.6,3.4-1.3,7.5-.7,10.8.6,5.2,2,9.6,6.6,10.9,12h0Z"/>
      <path class="st3" d="M89.1,113c-4.8-.9-9.4-3.2-12.2-7.3,2.4-.1,4.9.9,6.9,2.1,2,1.2,4.5,3,5.3,5.2h0Z"/>
    </g>
  </g>
  <path class="st0" d="M57.6,36.3c-1.4,0-2.6-.4-3.4-1.2-.8-.8-1.3-1.9-1.3-3.3v-1.3h2.6v1.3c0,.6.2,1.1.5,1.5.3.3.8.5,1.5.5s1-.2,1.4-.5c.3-.3.5-.8.5-1.5v-7.4h-2.4v-2.4h6.6v2.4h-1.6v7.4c0,1.5-.4,2.6-1.2,3.3-.8.8-1.9,1.1-3.2,1.1ZM71.2,36.3c-1.1,0-2.1-.2-3-.6-.8-.4-1.4-1-1.9-1.8-.4-.8-.6-1.7-.6-2.8v-9.1h2.6v9.2c0,.9.2,1.5.7,2,.5.5,1.2.7,2.1.7s1.6-.2,2.1-.7c.5-.5.7-1.2.7-2v-9.2h2.6v9.1c0,1.1-.2,2-.7,2.8-.4.8-1.1,1.4-1.9,1.8-.8.4-1.8.6-2.9.6ZM79.2,36v-14h5.8c.9,0,1.7.2,2.3.5.7.3,1.2.8,1.6,1.5.4.6.6,1.4.6,2.3v.3c0,.9-.2,1.6-.6,2.3-.4.6-.9,1.1-1.6,1.5-.7.3-1.4.5-2.3.5h-3.1v5.1h-2.6ZM81.9,28.5h2.9c.6,0,1.1-.2,1.5-.5.4-.3.6-.8.6-1.4v-.2c0-.6-.2-1.1-.6-1.4-.4-.3-.9-.5-1.5-.5h-2.9v4.1ZM91.3,36v-14h2.6v14h-2.6ZM99.8,36v-11.6h-4.1v-2.4h10.8v2.4h-4.1v11.6h-2.6ZM108.3,36v-14h9v2.4h-6.4v3.3h5.8v2.4h-5.8v3.5h6.5v2.4h-9.1ZM119.4,36v-14h6.1c.9,0,1.6.2,2.3.5.7.3,1.2.7,1.5,1.3s.5,1.2.5,2v.2c0,.8-.2,1.5-.6,2s-.9.9-1.5,1.1v.4c.5,0,.9.2,1.2.6.3.3.4.8.4,1.3v4.6h-2.6v-4.2c0-.3,0-.6-.3-.8-.2-.2-.4-.3-.8-.3h-3.7v5.3h-2.6ZM122.1,28.3h3.2c.6,0,1.1-.2,1.5-.5.4-.3.5-.8.5-1.4v-.2c0-.6-.2-1-.5-1.3-.3-.3-.8-.5-1.5-.5h-3.2v3.9ZM70.4,62.3c-1.1,0-2-.2-2.9-.6-.8-.4-1.5-.9-1.9-1.7-.5-.7-.7-1.6-.7-2.6v-.6h2.6v.6c0,.8.3,1.5.8,1.9.5.4,1.2.6,2.1.6s1.6-.2,2-.5c.5-.4.7-.8.7-1.4s-.1-.7-.3-.9c-.2-.2-.5-.4-1-.6-.4-.2-.9-.3-1.5-.4h-.5c-1-.3-1.8-.6-2.5-.9-.7-.3-1.2-.8-1.6-1.3-.4-.5-.5-1.2-.5-2.1s.2-1.6.6-2.2c.4-.6,1-1.1,1.7-1.4.7-.3,1.6-.5,2.6-.5s1.9.2,2.7.5c.8.3,1.4.8,1.8,1.5.5.7.7,1.5.7,2.5v.6h-2.6v-.6c0-.5-.1-1-.3-1.3-.2-.3-.5-.6-.9-.7-.4-.2-.8-.2-1.4-.2-.8,0-1.4.2-1.8.5-.4.3-.6.7-.6,1.2s0,.6.3.9c.2.2.5.4.8.6s.8.3,1.4.4h.5c1,.3,1.9.6,2.6.9.7.3,1.3.8,1.7,1.3.4.5.6,1.2.6,2.1s-.2,1.6-.7,2.3c-.4.6-1,1.1-1.8,1.5-.8.4-1.7.5-2.8.5ZM78.8,62l-1.8-14h2.6l1.4,12.2h.4l1.8-12.2h4.6l1.8,12.2h.4l1.4-12.2h2.6l-1.8,14h-4.6l-1.8-12.4h-.4l-1.8,12.4h-4.6ZM94.4,62l3.7-14h4.6l3.7,14h-2.7l-.8-3.1h-5l-.8,3.1h-2.7ZM98.5,56.5h3.8l-1.7-6.8h-.4l-1.7,6.8ZM108,62v-14h5.8c.9,0,1.7.2,2.3.5.7.3,1.2.8,1.6,1.5.4.6.6,1.4.6,2.3v.3c0,.9-.2,1.6-.6,2.3-.4.6-.9,1.1-1.6,1.5-.7.3-1.4.5-2.3.5h-3.1v5.1h-2.6ZM110.6,54.5h2.9c.6,0,1.1-.2,1.5-.5.4-.3.6-.8.6-1.4v-.2c0-.6-.2-1.1-.6-1.4-.4-.3-.9-.5-1.5-.5h-2.9v4.1Z"/>
  <g>
    <path class="st5" d="M152.9,86.2c-.9,0-1.8,0-2.8-.2-9.9-1.2-17.6-9.5-18.1-19.5-.6-11.9,8.9-21.8,20.7-21.8h0c2.9,0,5.3-2.3,5.3-5.2v-16.1c0-6.2,2.5-11.8,6.6-15.9,4.1-4.1,9.7-6.6,15.9-6.6h87.7c0,0,.1.1,0,.1,0,0,0,.2,0,.2,10.7,1.7,18.8,11,18.8,22.2v84.1c0,12.4-10,22.5-22.4,22.5h-84c-12.4,0-22.4-10.1-22.4-22.5v-16.1c0-2.9-2.3-5.2-5.2-5.2Z"/>
    <path class="st2" d="M152.9,86.2c-.9,0-1.8,0-2.8-.2-9.9-1.2-17.6-9.5-18.1-19.5-.6-11.9,8.9-21.8,20.7-21.8h0c2.9,0,5.3-2.3,5.3-5.2v-16.1c0-6.2,2.5-11.8,6.6-15.9,4.1-4.1,9.7-6.6,15.9-6.6h87.7c0,0,.1.1,0,.1,0,0,0,.2,0,.2,10.7,1.7,18.8,11,18.8,22.2v84.1c0,12.4-10,22.5-22.4,22.5h-84c-12.4,0-22.4-10.1-22.4-22.5v-16.1c0-2.9-2.3-5.2-5.2-5.2Z"/>
  </g>
  <path class="st0" d="M203.2,47.3c-1.1,0-2-.2-2.9-.6-.8-.4-1.5-.9-1.9-1.7-.5-.7-.7-1.6-.7-2.6v-.6h2.6v.6c0,.8.3,1.5.8,1.9.5.4,1.2.6,2.1.6s1.6-.2,2-.5c.5-.4.7-.8.7-1.4s-.1-.7-.3-.9c-.2-.2-.5-.4-1-.6-.4-.2-.9-.3-1.5-.4h-.5c-1-.3-1.8-.6-2.5-.9-.7-.3-1.2-.8-1.6-1.3-.4-.5-.5-1.2-.5-2.1s.2-1.6.6-2.2c.4-.6,1-1.1,1.7-1.4.7-.3,1.6-.5,2.6-.5s1.9.2,2.7.5c.8.3,1.4.8,1.8,1.5.5.7.7,1.5.7,2.5v.6h-2.6v-.6c0-.5-.1-1-.3-1.3-.2-.3-.5-.6-.9-.7-.4-.2-.8-.2-1.4-.2-.8,0-1.4.2-1.8.5-.4.3-.6.7-.6,1.2s0,.6.3.9c.2.2.5.4.8.6s.8.3,1.4.4h.5c1,.3,1.9.6,2.6.9.7.3,1.3.8,1.7,1.3.4.5.6,1.2.6,2.1s-.2,1.6-.7,2.3c-.4.6-1,1.1-1.8,1.5-.8.4-1.7.5-2.8.5ZM210.5,47v-14h9v2.4h-6.4v3.3h5.8v2.4h-5.8v3.5h6.5v2.4h-9.1ZM221.6,47v-14h5l2.8,12.2h.4v-12.2h2.6v14h-5l-2.8-12.2h-.4v12.2h-2.6ZM234.6,47v-2.3h1.8v-9.4h-1.8v-2.3h5.8c1.9,0,3.3.5,4.3,1.4,1,.9,1.5,2.4,1.5,4.2v2.6c0,1.9-.5,3.3-1.5,4.3-1,.9-2.4,1.4-4.3,1.4h-5.8ZM239,44.6h1.3c1.1,0,1.8-.3,2.3-.8.5-.6.7-1.3.7-2.4v-2.8c0-1-.2-1.8-.7-2.4-.5-.6-1.3-.8-2.3-.8h-1.3v9.2ZM214.2,73v-11.6h-4.1v-2.4h10.8v2.4h-4.1v11.6h-2.6ZM227.6,73.3c-1.8,0-3.2-.5-4.2-1.4-1-1-1.6-2.4-1.6-4.2v-3.4c0-1.8.5-3.2,1.6-4.1,1-1,2.4-1.5,4.2-1.5s3.2.5,4.2,1.5c1,1,1.6,2.3,1.6,4.1v3.4c0,1.8-.5,3.2-1.6,4.2-1,1-2.4,1.4-4.2,1.4ZM227.6,70.9c1,0,1.8-.3,2.3-.9.5-.6.8-1.3.8-2.3v-3.5c0-1-.3-1.7-.8-2.3-.5-.6-1.3-.9-2.3-.9s-1.7.3-2.3.9c-.5.6-.8,1.3-.8,2.3v3.5c0,1,.3,1.7.8,2.3.6.6,1.3.9,2.3.9ZM193.5,99v-14h9v2.4h-6.4v3.3h5.8v2.4h-5.8v3.5h6.5v2.4h-9.1ZM207.2,99l-3.6-14h2.7l3,12.3h.3l3-12.3h2.7l-3.6,14h-4.5ZM216.9,99v-14h9v2.4h-6.4v3.3h5.8v2.4h-5.8v3.5h6.5v2.4h-9.1ZM228,99v-14h5l2.8,12.2h.4v-12.2h2.6v14h-5l-2.8-12.2h-.4v12.2h-2.6ZM244.6,99v-11.6h-4.1v-2.4h10.8v2.4h-4.1v11.6h-2.6Z"/>
  <g>
    <path class="st5" d="M283.9,86.2c-.9,0-1.8,0-2.8-.2-9.9-1.2-17.6-9.5-18.1-19.5-.6-11.9,8.9-21.8,20.7-21.8h0c2.9,0,5.3-2.3,5.3-5.2v-16.1c0-6.2,2.5-11.8,6.6-15.9,4.1-4.1,9.7-6.6,15.9-6.6h87.7c0,0,.1.1,0,.1,0,0,0,.2,0,.2,10.7,1.7,18.8,11,18.8,22.2v84.1c0,12.4-10,22.5-22.4,22.5h-84c-12.4,0-22.4-10.1-22.4-22.5v-16.1c0-2.9-2.3-5.2-5.2-5.2Z"/>
    <path class="st2" d="M283.9,86.2c-.9,0-1.8,0-2.8-.2-9.9-1.2-17.6-9.5-18.1-19.5-.6-11.9,8.9-21.8,20.7-21.8h0c2.9,0,5.3-2.3,5.3-5.2v-16.1c0-6.2,2.5-11.8,6.6-15.9,4.1-4.1,9.7-6.6,15.9-6.6h87.7c0,0,.1.1,0,.1,0,0,0,.2,0,.2,10.7,1.7,18.8,11,18.8,22.2v84.1c0,12.4-10,22.5-22.4,22.5h-84c-12.4,0-22.4-10.1-22.4-22.5v-16.1c0-2.9-2.3-5.2-5.2-5.2Z"/>
  </g>
  <path class="st0" d="M307.6,36v-11.6h-4.1v-2.4h10.8v2.4h-4.1v11.6h-2.6ZM316.1,36v-14h9v2.4h-6.4v3.3h5.8v2.4h-5.8v3.5h6.5v2.4h-9.1ZM327.2,36v-14h2.6v11.6h6.4v2.4h-9ZM338,36v-14h9v2.4h-6.4v3.3h5.8v2.4h-5.8v3.5h6.5v2.4h-9.1ZM353.9,36.3c-1,0-1.8-.2-2.6-.6-.8-.4-1.4-1.1-1.9-1.9-.5-.8-.7-1.9-.7-3.1v-3.4c0-1.8.5-3.2,1.5-4.1,1-1,2.4-1.5,4.1-1.5s3,.5,4,1.4c.9.9,1.4,2.1,1.4,3.7h0c0,0-2.6,0-2.6,0v-.2c0-.5-.1-.9-.3-1.3-.2-.4-.5-.7-.9-.9-.4-.2-.9-.4-1.6-.4-.9,0-1.7.3-2.2.9-.5.6-.8,1.4-.8,2.3v3.4c0,1,.3,1.8.8,2.4.5.6,1.3.9,2.2.9s1.7-.3,2.1-.8c.4-.5.7-1.1.7-1.9v-.2h-3.3v-2.2h5.9v7.2h-2.4v-1.3h-.4c0,.2-.2.5-.5.7-.2.3-.5.5-.9.6-.4.2-1,.3-1.7.3ZM362.3,36v-14h6.1c.9,0,1.6.2,2.3.5.7.3,1.2.7,1.5,1.3.4.6.5,1.2.5,2v.2c0,.8-.2,1.5-.6,2s-.9.9-1.5,1.1v.4c.5,0,.9.2,1.2.6.3.3.4.8.4,1.3v4.6h-2.6v-4.2c0-.3,0-.6-.3-.8-.2-.2-.4-.3-.8-.3h-3.7v5.3h-2.6ZM365,28.3h3.2c.6,0,1.1-.2,1.5-.5.4-.3.5-.8.5-1.4v-.2c0-.6-.2-1-.5-1.3-.3-.3-.8-.5-1.5-.5h-3.2v3.9ZM374,36l3.7-14h4.6l3.7,14h-2.7l-.8-3.1h-5l-.8,3.1h-2.7ZM378.1,30.5h3.8l-1.7-6.8h-.4l-1.7,6.8ZM387.7,36v-14h4.9l2.4,12.2h.4l2.4-12.2h4.9v14h-2.6v-12.1h-.4l-2.4,12.1h-4.4l-2.4-12.1h-.4v12.1h-2.6ZM324.5,62l3.7-14h4.6l3.7,14h-2.7l-.8-3.1h-5l-.8,3.1h-2.7ZM328.6,56.5h3.8l-1.7-6.8h-.4l-1.7,6.8ZM338.1,62v-14h2.6v11.6h6.4v2.4h-9ZM349,62v-14h9v2.4h-6.4v3.3h5.8v2.4h-5.8v3.5h6.5v2.4h-9.1ZM360,62v-14h6.1c.9,0,1.6.2,2.3.5.7.3,1.2.7,1.5,1.3.4.6.5,1.2.5,2v.2c0,.8-.2,1.5-.6,2s-.9.9-1.5,1.1v.4c.5,0,.9.2,1.2.6.3.3.4.8.4,1.3v4.6h-2.6v-4.2c0-.3,0-.6-.3-.8-.2-.2-.4-.3-.8-.3h-3.7v5.3h-2.6ZM362.7,54.3h3.2c.6,0,1.1-.2,1.5-.5.4-.3.5-.8.5-1.4v-.2c0-.6-.2-1-.5-1.3-.3-.3-.8-.5-1.5-.5h-3.2v3.9ZM375.7,62v-11.6h-4.1v-2.4h10.8v2.4h-4.1v11.6h-2.6Z"/>
  <g class="st4">
    <path class="st3" d="M351.3,104.8c-.8-.9-.6-2,0-2.9,2.1-2.9,6.9-6.6,9.5-9.5.4-.5.8-1,1.2-1.5-.3,0-.5.2-.7.3-4.6,2.6-9.8,7.3-14.4,9.5-4.1,2-7.4-.5-11.3-1.6-.8-.4-.9-1.4-.3-2l32.9-13.7c2-.8,3,.6,2.7,2.5l-3.2,24.6c-.5,2.1-2.6,3.2-4.5,2.3l-11.9-7.9h0Z"/>
  </g>
  <path class="st6" d="M48.4,152.2c-.8,0-1.4-.1-2-.4-.6-.3-1-.7-1.4-1.2-.3-.5-.5-1.1-.5-1.8v-.4h1.8v.4c0,.6.2,1,.5,1.3.4.3.9.4,1.5.4s1.1-.1,1.4-.4c.3-.3.5-.6.5-1s0-.5-.2-.7c-.1-.2-.4-.3-.7-.4-.3-.1-.6-.2-1.1-.3h-.3c-.7-.2-1.3-.4-1.7-.6-.5-.2-.8-.5-1.1-.9-.3-.4-.4-.9-.4-1.5s.1-1.1.4-1.5c.3-.4.7-.8,1.2-1,.5-.2,1.1-.4,1.8-.4s1.3.1,1.9.4c.6.2,1,.6,1.3,1.1.3.5.5,1.1.5,1.8v.4h-1.8v-.4c0-.4,0-.7-.2-.9-.1-.2-.3-.4-.6-.5-.3-.1-.6-.2-1-.2-.6,0-1,.1-1.2.3-.3.2-.4.5-.4.9s0,.4.2.6c.1.2.3.3.6.4s.6.2,1,.3h.3c.7.2,1.3.4,1.8.6.5.2.9.5,1.2.9.3.4.4.9.4,1.5s-.2,1.1-.5,1.6c-.3.4-.7.8-1.3,1.1-.6.3-1.2.4-2,.4ZM47.5,153.6v-13h1.7v13h-1.7ZM57.2,152.2c-.8,0-1.5-.1-2.1-.4-.6-.3-1-.7-1.3-1.3-.3-.6-.4-1.2-.4-1.9v-6.4h1.8v6.4c0,.6.2,1.1.5,1.4.3.3.8.5,1.5.5s1.1-.2,1.5-.5c.3-.3.5-.8.5-1.4v-6.4h1.8v6.4c0,.7-.2,1.4-.5,1.9-.3.5-.7,1-1.3,1.3-.6.3-1.3.4-2.1.4ZM66.3,152.2c-.8,0-1.4-.1-2-.4-.6-.3-1-.7-1.4-1.2-.3-.5-.5-1.1-.5-1.8v-.4h1.8v.4c0,.6.2,1,.5,1.3.4.3.9.4,1.5.4s1.1-.1,1.4-.4c.3-.3.5-.6.5-1s0-.5-.2-.7c-.1-.2-.4-.3-.7-.4-.3-.1-.6-.2-1.1-.3h-.3c-.7-.2-1.3-.4-1.7-.6-.5-.2-.8-.5-1.1-.9-.3-.4-.4-.9-.4-1.5s.1-1.1.4-1.5c.3-.4.7-.8,1.2-1,.5-.2,1.1-.4,1.8-.4s1.3.1,1.9.4c.6.2,1,.6,1.3,1.1.3.5.5,1.1.5,1.8v.4h-1.8v-.4c0-.4,0-.7-.2-.9-.1-.2-.3-.4-.6-.5-.3-.1-.6-.2-1-.2-.6,0-1,.1-1.2.3-.3.2-.4.5-.4.9s0,.4.2.6c.1.2.3.3.6.4.3.1.6.2,1,.3h.3c.7.2,1.3.4,1.8.6.5.2.9.5,1.2.9.3.4.4.9.4,1.5s-.2,1.1-.5,1.6c-.3.4-.7.8-1.3,1.1-.6.3-1.2.4-2,.4ZM71,152v-1.6h1.3v-6.6h-1.3v-1.6h4c1.3,0,2.3.3,3,1,.7.7,1,1.7,1,3v1.8c0,1.3-.3,2.3-1,3-.7.7-1.7,1-3,1h-4ZM74.1,150.3h.9c.7,0,1.3-.2,1.6-.6.3-.4.5-.9.5-1.7v-2c0-.7-.2-1.3-.5-1.7-.3-.4-.9-.6-1.6-.6h-.9v6.4ZM84.3,152.2c-1.2,0-2.2-.3-2.9-1-.7-.7-1.1-1.7-1.1-2.9v-2.4c0-1.3.4-2.2,1.1-2.9.7-.7,1.7-1,2.9-1s2.1.3,2.8,1c.7.7,1,1.6,1,2.7h0c0,0-1.8,0-1.8,0h0c0-.7-.2-1.2-.5-1.6-.3-.4-.8-.6-1.5-.6s-1.2.2-1.5.6c-.4.4-.6.9-.6,1.6v2.4c0,.7.2,1.2.6,1.6.4.4.9.6,1.5.6s1.2-.2,1.5-.6c.3-.4.5-.9.5-1.4v-.3h1.8v.2c0,1.1-.3,2.1-1,2.7-.7.7-1.6,1-2.8,1ZM96.5,152.2c-.7,0-1.3-.1-1.9-.4-.6-.3-1-.7-1.3-1.2-.3-.5-.5-1.2-.5-1.9v-.2c0-.7.2-1.4.5-1.9.3-.5.8-.9,1.3-1.2.6-.3,1.2-.4,1.9-.4s1.3.1,1.9.4c.6.3,1,.7,1.3,1.2.3.5.5,1.2.5,1.9v.2c0,.7-.2,1.4-.5,1.9-.3.5-.8.9-1.3,1.2-.6.3-1.2.4-1.9.4ZM96.5,150.6c.5,0,1-.2,1.3-.5.4-.4.5-.9.5-1.5h0c0-.8-.2-1.3-.5-1.6-.3-.4-.8-.5-1.3-.5s-1,.2-1.3.5c-.4.3-.5.8-.5,1.5h0c0,.8.2,1.3.5,1.7.4.3.8.5,1.3.5ZM101.8,152v-6.9h1.7v.8h.3c.1-.3.3-.5.5-.6.2-.1.5-.2.8-.2h.8v1.6h-.9c-.4,0-.8.1-1.1.4-.3.2-.4.6-.4,1.1v3.9h-1.8ZM114.3,152.2c-.8,0-1.4-.1-2-.4-.6-.3-1-.7-1.4-1.2-.3-.5-.5-1.1-.5-1.8v-.4h1.8v.4c0,.6.2,1,.5,1.3.4.3.9.4,1.5.4s1.1-.1,1.4-.4c.3-.3.5-.6.5-1s0-.5-.2-.7c-.2-.2-.4-.3-.7-.4-.3-.1-.6-.2-1.1-.3h-.3c-.7-.2-1.3-.4-1.7-.6-.5-.2-.8-.5-1.1-.9-.3-.4-.4-.9-.4-1.5s.1-1.1.4-1.5c.3-.4.7-.8,1.2-1,.5-.2,1.1-.4,1.8-.4s1.3.1,1.9.4c.5.2,1,.6,1.3,1.1.3.5.5,1.1.5,1.8v.4h-1.8v-.4c0-.4,0-.7-.2-.9-.1-.2-.3-.4-.6-.5-.3-.1-.6-.2-1-.2-.6,0-1,.1-1.2.3-.3.2-.4.5-.4.9s0,.4.2.6c.1.2.3.3.6.4s.6.2,1,.3h.3c.7.2,1.3.4,1.8.6.5.2.9.5,1.2.9.3.4.4.9.4,1.5s-.2,1.1-.5,1.6c-.3.4-.7.8-1.3,1.1-.6.3-1.2.4-2,.4ZM113.4,153.6v-13h1.7v13h-1.7ZM122.8,152.2c-.8,0-1.4-.1-2-.4-.6-.3-1-.7-1.4-1.2-.3-.5-.5-1.1-.5-1.8v-.4h1.8v.4c0,.6.2,1,.5,1.3.4.3.9.4,1.5.4s1.1-.1,1.4-.4c.3-.3.5-.6.5-1s0-.5-.2-.7c-.2-.2-.4-.3-.7-.4-.3-.1-.6-.2-1.1-.3h-.3c-.7-.2-1.3-.4-1.7-.6-.5-.2-.8-.5-1.1-.9-.3-.4-.4-.9-.4-1.5s.1-1.1.4-1.5c.3-.4.7-.8,1.2-1,.5-.2,1.1-.4,1.8-.4s1.3.1,1.9.4c.6.2,1,.6,1.3,1.1.3.5.5,1.1.5,1.8v.4h-1.8v-.4c0-.4,0-.7-.2-.9-.1-.2-.3-.4-.6-.5-.3-.1-.6-.2-1-.2-.6,0-1,.1-1.2.3-.3.2-.4.5-.4.9s0,.4.2.6c.1.2.3.3.6.4.3.1.6.2,1,.3h.3c.7.2,1.3.4,1.8.6.5.2.9.5,1.2.9.3.4.4.9.4,1.5s-.2,1.1-.5,1.6c-.3.4-.7.8-1.3,1.1-.6.3-1.2.4-2,.4ZM131.6,152.2c-1.2,0-2.2-.3-2.9-1-.7-.7-1.1-1.7-1.1-2.9v-2.4c0-1.3.4-2.2,1.1-2.9.7-.7,1.7-1,2.9-1s2.2.3,2.9,1c.7.7,1.1,1.6,1.1,2.9v2.4c0,1.3-.4,2.2-1.1,2.9-.7.7-1.7,1-2.9,1ZM131.6,150.5c.7,0,1.2-.2,1.6-.6.4-.4.6-.9.6-1.6v-2.5c0-.7-.2-1.2-.6-1.6-.4-.4-.9-.6-1.6-.6s-1.2.2-1.6.6c-.4.4-.6.9-.6,1.6v2.5c0,.7.2,1.2.6,1.6.4.4.9.6,1.6.6ZM137.3,152v-9.8h1.8v8.1h4.5v1.7h-6.3ZM51.8,170.2c-.9,0-1.6-.2-2.2-.6-.6-.4-.9-1-1-1.7l1.6-.4c0,.3.2.6.3.8.2.2.4.3.6.4.2,0,.5.1.8.1.4,0,.7,0,.9-.2.2-.1.3-.3.3-.5s0-.4-.3-.5c-.2-.1-.5-.2-.9-.3h-.4c-.5-.2-.9-.3-1.3-.4-.4-.2-.7-.4-1-.7-.2-.3-.4-.7-.4-1.1,0-.7.3-1.2.8-1.6.5-.4,1.2-.6,2-.6s1.4.2,1.9.5c.5.3.8.8,1,1.4l-1.6.5c0-.4-.2-.6-.5-.8-.2-.1-.5-.2-.8-.2s-.6,0-.8.2c-.2.1-.3.3-.3.5s0,.4.3.5c.2.1.4.2.8.2h.4c.5.2,1,.3,1.4.4.4.1.8.4,1,.7.3.3.4.7.4,1.1,0,.7-.3,1.3-.8,1.7-.5.4-1.2.6-2.1.6ZM56.9,170l-1-6.9h1.8l.6,5.8h.3l.9-5.8h2.8l.9,5.8h.3l.6-5.8h1.8l-1,6.9h-2.9l-.9-5.8h-.3l-.9,5.8h-2.9ZM69.4,170.2c-.5,0-.9,0-1.3-.3-.4-.2-.7-.4-.9-.8-.2-.3-.3-.7-.3-1.2s.1-.9.3-1.2c.2-.3.6-.6,1-.7.4-.2.9-.3,1.4-.3h1.9v-.4c0-.3-.1-.6-.3-.8-.2-.2-.5-.3-1-.3s-.8.1-1,.3c-.2.2-.4.5-.4.8l-1.6-.5c.1-.4.3-.7.5-1,.3-.3.6-.5,1-.7.4-.2.9-.3,1.5-.3.9,0,1.6.2,2.2.7.5.5.8,1.1.8,2v2.6c0,.3.1.4.4.4h.6v1.5h-1.2c-.3,0-.6,0-.9-.3s-.3-.4-.3-.7h0s-.3,0-.3,0c0,.1-.1.3-.3.4-.1.2-.3.3-.6.5-.3.1-.7.2-1.1.2ZM69.7,168.8c.5,0,.9-.1,1.2-.4.3-.3.5-.6.5-1.1h0c0-.1-1.8-.1-1.8-.1-.3,0-.6,0-.8.2-.2.1-.3.3-.3.6s0,.5.3.6c.2.2.5.2.9.2ZM75.4,172.8v-9.7h1.7v.8h.3c.2-.3.4-.5.7-.7.3-.2.8-.3,1.4-.3s1.1.1,1.6.4c.5.3.9.7,1.1,1.2.3.5.4,1.2.4,1.9v.2c0,.8-.1,1.4-.4,1.9-.3.5-.7.9-1.1,1.2-.5.3-1,.4-1.6.4s-.8,0-1.1-.2c-.3,0-.5-.2-.7-.4-.2-.2-.3-.3-.4-.5h-.3v3.6h-1.8ZM79,168.7c.6,0,1-.2,1.4-.5.4-.4.5-.9.5-1.5h0c0-.8-.2-1.3-.5-1.7-.4-.4-.8-.5-1.4-.5s-1,.2-1.4.5c-.4.3-.5.9-.5,1.5h0c0,.8.2,1.3.5,1.7.4.3.8.5,1.4.5ZM90.5,170c-.5,0-.8-.1-1.1-.4-.3-.3-.4-.7-.4-1.1v-3.9h-1.7v-1.5h1.7v-2.2h1.8v2.2h1.9v1.5h-1.9v3.6c0,.3.1.4.4.4h1.3v1.5h-2ZM97.3,170.2c-.7,0-1.3-.1-1.9-.4-.6-.3-1-.7-1.3-1.2s-.5-1.2-.5-1.9v-.2c0-.7.2-1.4.5-1.9s.8-.9,1.3-1.2c.6-.3,1.2-.4,1.9-.4s1.3.1,1.9.4,1,.7,1.3,1.2c.3.5.5,1.2.5,1.9v.2c0,.7-.2,1.4-.5,1.9-.3.5-.8.9-1.3,1.2s-1.2.4-1.9.4ZM97.3,168.6c.5,0,1-.2,1.3-.5.4-.4.5-.9.5-1.5h0c0-.8-.2-1.3-.5-1.6-.3-.4-.8-.5-1.3-.5s-1,.2-1.3.5c-.4.3-.5.8-.5,1.5h0c0,.8.2,1.3.5,1.7.4.3.8.5,1.3.5ZM109.5,170.2c-.8,0-1.4-.1-2-.4-.6-.3-1-.7-1.4-1.2-.3-.5-.5-1.1-.5-1.8v-.4h1.8v.4c0,.6.2,1,.5,1.3.4.3.9.4,1.5.4s1.1-.1,1.4-.4c.3-.3.5-.6.5-1s0-.5-.2-.7c-.2-.2-.4-.3-.7-.4-.3-.1-.6-.2-1.1-.3h-.3c-.7-.2-1.3-.4-1.7-.6-.5-.2-.8-.5-1.1-.9-.3-.4-.4-.9-.4-1.5s.1-1.1.4-1.5c.3-.4.7-.8,1.2-1,.5-.2,1.1-.4,1.8-.4s1.3.1,1.9.4c.6.2,1,.6,1.3,1.1.3.5.5,1.1.5,1.8v.4h-1.8v-.4c0-.4,0-.7-.2-.9-.1-.2-.3-.4-.6-.5-.3-.1-.6-.2-1-.2-.6,0-1,.1-1.2.3-.3.2-.4.5-.4.9s0,.4.2.6c.1.2.3.3.6.4s.6.2,1,.3h.3c.7.2,1.3.4,1.8.6.5.2.9.5,1.2.9.3.4.4.9.4,1.5s-.2,1.1-.5,1.6c-.3.4-.7.8-1.3,1.1-.6.3-1.2.4-2,.4ZM108.6,171.6v-13h1.7v13h-1.7ZM117.4,170.2c-1,0-1.8-.3-2.4-.8-.6-.6-.9-1.3-.9-2.3v-.9h1.8v.9c0,.4.1.8.4,1,.2.2.6.4,1,.4s.7-.1,1-.4c.2-.2.3-.6.3-1v-5.2h-1.7v-1.7h4.6v1.7h-1.1v5.2c0,1-.3,1.8-.8,2.3-.6.5-1.3.8-2.3.8ZM126.9,170.2c-.8,0-1.5-.1-2.1-.4-.6-.3-1-.7-1.3-1.3-.3-.6-.4-1.2-.4-1.9v-6.4h1.8v6.4c0,.6.2,1.1.5,1.4.3.3.8.5,1.5.5s1.1-.2,1.5-.5c.3-.3.5-.8.5-1.4v-6.4h1.8v6.4c0,.7-.2,1.4-.5,1.9-.3.5-.7,1-1.3,1.3-.6.3-1.3.4-2.1.4ZM132.5,170v-9.8h4c.6,0,1.2.1,1.6.4.5.2.8.6,1.1,1,.3.4.4,1,.4,1.6v.2c0,.6-.1,1.1-.4,1.6-.3.4-.6.8-1.1,1.1-.5.2-1,.4-1.6.4h-2.2v3.6h-1.8ZM134.3,164.7h2c.4,0,.8-.1,1.1-.4.3-.2.4-.6.4-1h0c0-.6-.1-.9-.4-1.1-.3-.2-.6-.4-1.1-.4h-2v2.9Z"/>
  <path class="st6" d="M301.3,152v-9.8h4.3c.6,0,1.2.1,1.6.3.5.2.8.5,1.1.9.3.4.4.9.4,1.4v.2c0,.6-.1,1.1-.4,1.4s-.6.6-1,.8v.3c.4,0,.7.1.9.4.2.2.3.5.3.9v3.2h-1.8v-2.9c0-.2,0-.4-.2-.5-.1-.1-.3-.2-.6-.2h-2.6v3.7h-1.8ZM303.1,146.6h2.2c.4,0,.8-.1,1-.3.3-.2.4-.6.4-1h0c0-.5-.1-.8-.4-1.1-.2-.2-.6-.4-1-.4h-2.2v2.7ZM310.1,152v-9.8h6.3v1.7h-4.5v2.3h4.1v1.7h-4.1v2.4h4.5v1.7h-6.4ZM317.2,152l2.6-9.8h3.2l2.6,9.8h-1.9l-.5-2.2h-3.5l-.5,2.2h-1.9ZM320.1,148.1h2.6l-1.2-4.8h-.3l-1.2,4.8ZM326.7,152v-9.8h1.8v8.1h4.5v1.7h-6.3ZM339.3,152v-8.1h-2.9v-1.7h7.6v1.7h-2.9v8.1h-1.8ZM345.3,152v-9.8h1.8v9.8h-1.8ZM349,152v-9.8h3.4l1.7,8.5h.3l1.7-8.5h3.4v9.8h-1.8v-8.4h-.3l-1.7,8.4h-3.1l-1.7-8.4h-.3v8.4h-1.8ZM361.3,152v-9.8h6.3v1.7h-4.5v2.3h4.1v1.7h-4.1v2.4h4.5v1.7h-6.4ZM371.8,152l2.6-9.8h3.2l2.6,9.8h-1.9l-.5-2.2h-3.5l-.5,2.2h-1.9ZM374.6,148.1h2.6l-1.2-4.8h-.3l-1.2,4.8ZM381.3,152v-9.8h1.8v8.1h4.5v1.7h-6.3ZM388.9,152v-9.8h6.3v1.7h-4.5v2.3h4.1v1.7h-4.1v2.4h4.5v1.7h-6.4ZM396.7,152v-9.8h4.3c.6,0,1.2.1,1.6.3.5.2.8.5,1.1.9.3.4.4.9.4,1.4v.2c0,.6-.1,1.1-.4,1.4s-.6.6-1,.8v.3c.4,0,.7.1.9.4.2.2.3.5.3.9v3.2h-1.8v-2.9c0-.2,0-.4-.2-.5-.1-.1-.3-.2-.6-.2h-2.6v3.7h-1.8ZM398.5,146.6h2.2c.4,0,.8-.1,1-.3.3-.2.4-.6.4-1h0c0-.5-.1-.8-.4-1.1-.2-.2-.6-.4-1-.4h-2.2v2.7ZM407.6,152v-8.1h-2.9v-1.7h7.6v1.7h-2.9v8.1h-1.8Z"/>
</svg>